<svg width="108" height="129" viewBox="0 0 108 129" fill="none" xmlns="http://www.w3.org/2000/svg">
<path fill-rule="evenodd" clip-rule="evenodd" d="M62.6983 0.860749C64.0982 0.157665 65.6496 -0.172305 67.2813 0.0892647C68.9116 0.350671 70.7187 1.21768 72.6055 3.06973C75.5567 5.96679 75.9865 8.89471 75.4249 11.392C74.8446 13.9715 73.1781 16.184 71.8145 17.4125L71.0499 18.1L71.6866 18.9086C72.2462 19.6187 72.7147 20.7684 73.0645 22.0209C73.4071 23.2475 73.6022 24.4487 73.6758 25.1606L73.752 25.891L74.4571 26.101C80.2345 27.8131 82.7115 30.7037 83.8184 33.6469C84.9693 36.7073 84.7098 39.9469 84.6622 42.6283C84.6587 42.8251 84.6385 43.03 84.6104 43.2436C79.488 36.2596 68.606 36.4599 63.8829 44.1654L61.6026 47.8871C59.9901 50.5179 57.4846 52.4811 54.545 53.4174L50.376 54.7455C43.8895 56.8113 40.8658 63.276 42.0987 69.0561C41.7534 69.0967 41.4086 69.1354 41.0645 69.1684C40.9597 69.1781 40.8595 69.2239 40.7862 69.3012C40.713 69.3784 40.6726 69.4805 40.6739 69.5854C40.6753 69.69 40.7181 69.7903 40.793 69.8656C40.8681 69.9411 40.9693 69.9843 41.0743 69.9916C41.4934 70.0186 41.9129 70.0348 42.3321 70.0463L42.3409 70.0815L42.7393 70.057C43.3447 70.0673 43.9497 70.0651 44.5538 70.0522C48.0845 69.9568 51.6302 69.5724 55.1045 68.4926C55.9604 68.2219 56.8072 68.2217 57.6114 68.5082C60.2711 69.5239 62.0148 72.9313 62.794 76.0502C63.0605 77.1626 63.2187 78.325 63.128 79.3617C63.04 80.2965 62.8826 81.2298 62.6602 82.1459C60.6486 92.2593 49.489 96.9846 39.4932 96.641C38.366 96.6445 37.241 96.6119 36.0831 96.5434C35.9756 96.5371 35.8686 96.571 35.7862 96.641C35.7037 96.7112 35.6519 96.811 35.6426 96.9184C35.6334 97.0257 35.6671 97.133 35.7364 97.2162C35.8057 97.2993 35.9057 97.3515 36.0127 97.3637C37.1817 97.4944 38.3227 97.588 39.4717 97.642C43.6756 98.0334 48.3515 97.4374 52.545 95.7826C55.6934 100.417 62.2445 102.558 67.7852 99.1283C67.8109 99.4581 67.9841 99.7727 68.2833 99.9662C71.6537 102.147 73.1831 105.113 73.6856 108.161C74.3717 112.323 73.1356 116.648 71.8985 119.171C68.6288 123.061 65.5688 125.477 62.5508 126.857C59.5204 128.242 56.4589 128.616 53.1465 128.302C49.8108 127.986 46.2324 126.976 42.1788 125.593C40.1554 124.903 38.0323 124.126 35.7715 123.304C33.5149 122.484 31.1265 121.621 28.5909 120.764C22.2868 118.634 18.5421 115.36 16.3526 111.827C11.7184 104.347 13.8153 95.3159 14.6211 92.3266C15.0741 90.6466 16.7743 86.3962 18.7647 81.6713C20.5634 77.4013 22.5643 72.8286 23.9922 69.6137C25.8392 70.1813 27.8646 70.6523 30.0831 71.0092C30.6819 71.1054 31.2454 70.6978 31.3419 70.099C31.4382 69.5001 31.0306 68.9366 30.4317 68.8402C27.932 68.4382 25.7101 67.8881 23.7383 67.224C16.0814 64.645 12.1515 60.3196 10.3145 55.9662C8.65291 52.0282 8.66715 47.9783 9.31744 45.019C11.0327 45.3059 12.7206 45.1625 14.0733 44.4486C14.6097 44.1655 14.8153 43.5007 14.5323 42.9643C14.2491 42.4279 13.5843 42.2223 13.0479 42.5053C12.0661 43.0234 10.5542 43.1347 8.80181 42.6606C6.08425 41.9251 3.11975 39.8629 1.42095 36.5844C-0.250177 33.3591 -0.751716 28.846 1.60357 23.0688C5.04228 17.7576 8.44023 15.8277 11.3096 15.4877C14.2252 15.1424 16.8984 16.4014 18.9161 18.0688C19.6485 18.674 20.2789 19.321 20.7842 19.9379C21.1685 20.4068 21.8599 20.4759 22.3292 20.0922C22.7985 19.7078 22.8679 19.0146 22.4835 18.5453C22.0902 18.0652 21.6356 17.5752 21.128 17.0951C32.9844 2.74814 49.0466 5.07317 55.6739 8.07852L56.8594 8.61563L57.1905 7.35684C57.7537 5.2161 59.8421 2.29546 62.6983 0.860749ZM7.91216 94.3822C9.42505 93.2199 10.9484 92.6931 12.2256 92.8275C11.3774 96.3475 10.0704 103.985 13.4151 111.021C8.96632 110.254 6.34109 108.731 4.92095 107.019C3.3177 105.086 3.09129 102.718 3.77056 100.387C4.45677 98.0333 6.05074 95.8125 7.91216 94.3822ZM101.045 83.8764C102.206 84.6272 103.451 85.6731 104.357 87.1898C105.959 89.8717 106.645 94.3353 102.852 101.867C99.961 107.605 94.8978 109.696 89.5674 109.952C84.4525 110.196 79.1994 108.73 75.7442 107.216C75.0553 103.839 73.2143 100.54 69.4766 98.1215C69.4339 98.0938 69.3896 98.0702 69.3448 98.0492L72.5206 95.7836C76.1862 93.1676 81.0442 92.9431 84.9327 95.2094L89.1104 97.644C95.8755 101.691 104.136 95.4588 102.104 87.8422L101.045 83.8764ZM65.2881 45.0268C69.642 37.9237 80.0167 38.1662 84.044 45.4125C83.9121 45.776 83.762 46.1536 83.5938 46.5434C82.9458 48.0455 82.0924 49.6267 81.2393 51.2016C80.3995 52.7519 79.5496 54.3141 78.9678 55.6996C78.6756 56.3957 78.4355 57.0835 78.2989 57.7318C78.164 58.3721 78.114 59.0468 78.2725 59.684C78.3303 59.9163 78.3499 60.3073 78.2891 60.8891C78.23 61.4549 78.1037 62.1277 77.9249 62.8881C77.5659 64.4142 77.0234 66.1829 76.4805 67.9965C75.9449 69.7858 75.4084 71.6208 75.0948 73.2006C74.9378 73.9914 74.8298 74.7526 74.8116 75.435C74.7939 76.0988 74.857 76.7946 75.1299 77.3871C75.4793 78.1455 76.2626 78.6119 76.9522 78.9213C77.7032 79.2582 78.6491 79.5394 79.6876 79.7807C81.7715 80.2648 84.4155 80.6333 87.046 80.9447C89.7585 81.2658 92.2808 81.5075 94.4922 81.7758C95.5662 81.9061 96.4949 82.0351 97.2237 82.1684C97.9982 82.31 98.4113 82.4346 98.5547 82.5092C98.7 82.5849 98.8635 82.6668 99.0411 82.7563L100.512 88.267C102.163 94.4548 95.4519 99.5166 89.9571 96.2299L89.9522 96.2279L89.9483 96.226L85.7618 93.7856C81.3129 91.1929 75.7563 91.4505 71.5635 94.4428L67.503 97.3402C62.8487 100.662 57.1471 99.1326 54.2178 95.2895C56.2609 94.2783 57.916 93.0556 59.2598 91.7367C61.8696 89.4133 63.8228 86.397 64.6407 82.6479C64.9046 81.6395 65.0956 80.6126 65.209 79.5736C65.3486 78.1538 65.1628 76.8417 64.876 75.56C64.0833 72.5367 62.8332 69.2638 59.9532 67.31C58.4439 66.188 56.594 65.6688 54.4991 66.3783C51.0118 67.5597 46.6818 68.1223 43.6358 68.3461C42.7631 63.4152 45.4087 58.0571 50.876 56.3158L55.045 54.9877C58.3617 53.9313 61.1887 51.7163 63.0079 48.7484L65.2881 45.0268ZM48.6387 36.2504C48.2178 33.7053 45.5323 31.9109 43.0733 32.6898C40.6143 33.4697 38.8337 36.2533 39.5127 38.2563C40.0673 40.7752 42.4601 41.9136 44.9795 41.3598C47.4982 40.8054 49.038 38.671 48.6387 36.2504ZM60.8614 37.265C59.8986 37.119 57.7095 37.8135 56.7354 38.1791C55.2761 39.3663 59.2223 39.6406 59.4854 39.641C59.7438 39.6403 62.063 37.4485 60.8614 37.265ZM44.9454 33.6293C44.9631 33.4123 45.2207 33.3076 45.3848 33.4506L45.7823 33.7973C45.8181 33.8284 45.8616 33.8502 45.9083 33.8588L46.4698 33.9623C46.6605 33.9974 46.7518 34.2191 46.6397 34.3773L46.3086 34.8422C46.2811 34.8811 46.2647 34.9275 46.2608 34.975L46.2188 35.5004C46.201 35.7174 45.9425 35.8222 45.7784 35.6791L45.3819 35.3324C45.346 35.3011 45.3018 35.2795 45.2549 35.2709L44.6924 35.1674C44.5022 35.132 44.4127 34.9114 44.5245 34.7533L44.8545 34.2865C44.882 34.2477 44.8985 34.2021 44.9024 34.1547L44.9454 33.6293ZM67.7159 28.8725C67.311 26.538 65.1416 24.8248 63.2237 25.4652C61.3056 26.1067 59.9803 28.5953 60.5733 30.4428C61.0827 32.7577 63.0024 33.8655 64.9747 33.432C66.9464 32.998 68.1004 31.0933 67.7159 28.8725ZM64.7217 26.5219C64.7313 26.2857 65.0072 26.1648 65.167 26.3266L65.3877 26.5492C65.4197 26.5815 65.4601 26.6048 65.504 26.6156L65.9268 26.7201C66.0951 26.7618 66.1714 26.9626 66.0782 27.1195L65.8438 27.5131C65.8195 27.554 65.8046 27.6015 65.8028 27.6488L65.7911 27.974C65.7818 28.2105 65.5047 28.3322 65.3448 28.1703L65.1251 27.9477C65.0931 27.9153 65.0527 27.8922 65.0088 27.8813L64.585 27.7758C64.417 27.7339 64.3415 27.5341 64.4346 27.3773L64.669 26.9828C64.6932 26.9419 64.7072 26.8953 64.709 26.8481L64.7217 26.5219Z" fill="#F7F0FB"/>
<path fill-rule="evenodd" clip-rule="evenodd" d="M65.2908 45.0276C69.6696 37.8838 80.1402 38.1687 84.1169 45.5374L84.2781 45.8362C86.1499 49.3049 89.6222 51.6173 93.5447 52.0081L101.685 52.8196C107.63 53.4119 109.941 60.8606 105.372 64.7171C105.206 64.857 105.046 65.0037 104.892 65.1555C104.259 63.5383 103.33 61.959 102.108 60.5052L101.787 60.1321C96.5988 54.2911 88.2233 52.61 83.0525 56.8499C80.4454 58.9881 78.8419 63.1942 79.3249 67.2893C79.8119 71.4165 82.4139 75.4484 88.155 77.303C90.1875 79.5568 92.0499 80.9292 93.9431 81.4202C95.5463 81.8359 97.0696 81.5945 98.5925 80.8968C98.65 81.2252 98.7218 81.5527 98.8083 81.8772L100.513 88.2679C102.164 94.4555 95.4534 99.5174 89.9587 96.2307L89.9548 96.2278L89.9499 96.2259L85.7644 93.7864C81.3155 91.1935 75.7581 91.4503 71.5652 94.4427L67.5046 97.3411C62.8504 100.662 57.1487 99.1332 54.2195 95.2903C60.939 91.9648 63.4803 86.3701 64.4499 82.4846C64.7598 81.243 64.9113 80.1712 64.989 79.3977C65.1048 78.2436 64.9698 76.8447 64.6384 75.4173C64.0794 73.0092 62.9251 70.3642 61.2546 68.5032C59.5675 66.6237 57.243 65.4502 54.5007 66.3792C51.0137 67.5605 46.6844 68.1231 43.6384 68.347C42.7655 63.416 45.4102 58.057 50.8777 56.3157L55.0466 54.9886C58.3634 53.9322 61.1903 51.7172 63.0095 48.7493L65.2908 45.0276Z" fill="#F7F0FB"/>
<path fill-rule="evenodd" clip-rule="evenodd" d="M83.9358 57.832C87.8277 54.5893 93.8865 55.4076 98.0521 58.2636C99.1059 58.9693 100.077 59.7996 100.947 60.7324C101.751 61.7249 102.439 62.7959 102.987 63.9277C105.166 68.2312 104.916 73.9744 101.184 76.8818C101.067 76.9759 100.952 77.0676 100.837 77.1572C98.9752 78.615 96.8524 79.9094 94.7483 79.5302C92.6358 79.1656 90.789 77.4614 89.1829 75.7129L89.0442 75.5566L88.8382 75.4931C80.917 74.0047 78.0728 63.0267 83.9358 57.832Z" fill="#F7F0FB"/>
</svg>
