<svg width="24" height="24" viewBox="0 0 24 24" fill="none" xmlns="http://www.w3.org/2000/svg">
<path d="M10.7999 5.76507C9.53127 5.14686 8.10609 4.79999 6.5999 4.79999C5.09371 4.79999 3.66854 5.14686 2.3999 5.76507V17.7651C3.66854 17.1469 5.09371 16.8 6.5999 16.8C8.60223 16.8 10.4614 17.413 11.9999 18.4616C13.5384 17.413 15.3976 16.8 17.3999 16.8C18.9061 16.8 20.3313 17.1469 21.5999 17.7651V5.76507C20.3313 5.14686 18.9061 4.79999 17.3999 4.79999C15.8937 4.79999 14.4685 5.14686 13.1999 5.76507V14.4C13.1999 15.0627 12.6626 15.6 11.9999 15.6C11.3372 15.6 10.7999 15.0627 10.7999 14.4V5.76507Z" fill="#E0BEF6"/>
</svg>
