<svg width="132" height="135" viewBox="0 0 132 135" fill="none" xmlns="http://www.w3.org/2000/svg">
<path d="M57.5288 95.7156C61.3881 93.8193 66.0537 95.4103 67.95 99.2694C69.8463 103.129 68.2553 107.794 64.3962 109.691C56.0887 113.773 46.4385 117.433 37.4239 118.148C28.2111 118.879 18.1467 116.517 12.2483 106.718C10.0307 103.034 11.2194 98.2503 14.9034 96.0326C18.5875 93.815 23.3716 95.0037 25.5892 98.6877C27.3023 101.533 30.2778 103.094 36.1929 102.625C42.3062 102.14 49.8723 99.4777 57.5288 95.7156Z" fill="#F7F0FB"/>
<path d="M57.3428 95.337C57.4668 95.5894 57.5908 95.8417 57.7148 96.0941C59.7553 95.1804 62.1513 95.287 64.0532 96.2988C65.4529 97.0302 66.5725 98.2235 67.2099 99.6331C68.8221 102.975 67.1971 107.29 63.9294 108.741C60.6986 110.278 57.4196 111.705 54.0838 112.96C48.6618 114.991 43.0414 116.569 37.3365 117.046C27.9638 118.013 17.8489 114.552 13.0939 106.209C11.1296 103.169 12.2004 98.65 15.3705 96.8086C18.4436 94.8156 23.025 95.8898 24.899 99.1032C27.1953 103.181 32.3681 103.721 36.2475 103.312C41.522 102.8 46.5038 101.085 51.2902 99.0889C53.4693 98.1691 55.6093 97.1632 57.7148 96.0941C57.5908 95.8417 57.4668 95.5894 57.3428 95.337C55.2253 96.3425 53.0792 97.2845 50.9035 98.14C46.1308 99.9967 41.1739 101.559 36.1384 101.938C32.3189 102.241 28.0547 101.609 26.2795 98.2722C24.0487 94.2754 18.3654 92.7992 14.4363 95.2567C10.3962 97.5201 8.91652 103.266 11.4027 107.227C16.4162 116.354 27.6829 120.277 37.5113 119.25C43.5215 118.772 49.32 117.144 54.8755 115.065C58.2927 113.78 61.6194 112.283 64.8631 110.641C69.1283 108.614 70.9167 102.919 68.6902 98.9057C67.8148 97.2109 66.3537 95.8412 64.6389 95.0828C62.3055 94.0263 59.522 94.1401 57.3428 95.337ZM57.7148 96.0941L57.3428 95.337L57.7148 96.0941V96.0941Z" fill="#F7F0FB"/>
<path fill-rule="evenodd" clip-rule="evenodd" d="M58.9004 4.16404C60.859 -0.959086 68.8311 -1.47229 71.4209 3.27927C75.3141 9.43841 79.2064 15.5991 83.0957 21.7607C86.8231 27.6659 90.5487 33.573 94.2724 39.4804C95.3405 41.2008 97.3341 42.2846 99.3467 42.25C107.589 42.1756 115.832 42.1045 124.074 42.0361C129.311 41.7644 133.333 48.042 130.862 52.7138C129.464 55.6599 128.066 58.6059 126.666 61.5527C123.521 68.1482 120.374 74.7435 117.226 81.3369C116.68 82.4742 116.534 83.7955 116.818 85.0215C118.554 92.6108 120.289 100.201 122.02 107.791C123.391 112.848 118.341 118.173 113.202 117.06C108.493 116.238 103.784 115.416 99.0752 114.593C98.6747 114.523 98.28 114.42 97.8955 114.288C90.699 111.813 83.5024 109.336 76.3076 106.855C74.4157 106.184 72.1776 106.669 70.7334 108.062C67.5962 111.031 64.4577 113.999 61.3193 116.968C55.6942 122.288 50.0673 127.607 44.4385 132.924C40.1066 137.488 31.3829 133.983 31.4082 127.702C30.9029 117.738 30.4018 107.773 29.9053 97.8076C29.8303 96.091 28.9024 94.435 27.4726 93.4746C19.3933 87.9852 11.3158 82.4925 3.2412 76.9961C-1.4979 74.0817 -0.912723 66.1304 4.16405 63.9424C15.5712 58.3829 26.9821 52.8299 38.3955 47.2832C39.634 46.686 40.6484 45.6338 41.2012 44.3691C46.0935 33.237 50.9921 22.1074 55.8965 10.9804C56.8978 8.70872 57.8986 6.43554 58.9004 4.16404ZM79.0898 41.9883C75.2413 42.221 72.9046 45.4344 71.584 48.2676C71.1756 49.1713 70.333 49.8651 69.3906 50.0136C68.4027 50.1741 67.4208 50.3679 66.4473 50.5957C65.6742 50.7766 64.9056 50.9795 64.1435 51.2021C62.9524 51.5732 61.5202 51.0169 60.6933 49.9599C59.1861 48.0379 56.872 46.2486 54.1162 46.3896C49.5548 46.7817 47.301 51.0523 46.1084 54.5761C45.1689 57.4715 44.812 60.5024 44.8594 63.5058C44.8497 64.1383 44.6502 64.7648 44.3047 65.2929C43.0554 67.2162 42.0838 69.3514 41.5742 71.623C41.0827 73.7961 41.0392 76.0938 41.5078 78.2969C45.3866 92.8509 63.2878 95.7243 75.916 92.8711C86.8451 90.432 98.4457 83.659 101.334 71.6914C101.789 69.4701 101.792 67.1373 101.286 64.9072C100.007 59.007 95.2306 54.5873 90.0644 52.2734C89.4062 51.976 88.8714 51.4001 88.6142 50.7138C87.0941 46.8655 84.4086 42.0371 79.0898 41.9883Z" fill="#F7F0FB"/>
<path fill-rule="evenodd" clip-rule="evenodd" d="M91.5245 85.9404C94.6089 90.1818 96.434 95.3617 96.3741 100.679C96.3798 102.319 96.2282 103.96 95.9181 105.571C94.7211 111.929 90.9776 117.731 85.7511 121.514C86.23 122.067 86.5964 122.778 86.6134 123.693C86.3522 126.414 84.1667 127.165 82.6564 127.784C81.0152 128.353 79.3306 128.565 77.6583 128.565C75.5285 128.52 73.3421 128.275 71.3234 127.149C70.4626 128.472 69.0331 128.961 67.8741 129.412C66.2862 129.938 64.6554 130.138 63.0382 130.136C61.3711 130.125 59.694 129.902 58.0685 129.327C56.5687 128.709 54.4323 127.929 54.2013 125.317C54.2389 124.278 54.7021 123.525 55.2853 122.961C47.4466 118.497 42.3071 109.673 42.4757 100.679C42.43 95.7859 43.9824 91.0341 46.6388 87.0137C46.9736 87.3326 47.3185 87.6402 47.6749 87.9346C45.2995 91.7398 43.9609 96.1712 44.0714 100.679C44.0393 109.608 49.5328 118.186 57.5392 121.959L59.2111 122.784L57.5841 123.678C56.7533 124.126 56.1308 124.826 56.172 125.317C56.1179 126.051 57.4298 127.008 58.7404 127.429C60.0828 127.892 61.5678 128.086 63.0382 128.081C64.4648 128.074 65.9026 127.878 67.2042 127.434C68.4733 127.029 69.7643 126.134 69.8165 125.437L70.0997 123.571L71.5431 124.777C73.0555 125.96 75.4608 126.402 77.6583 126.401C79.1235 126.396 80.6011 126.192 81.9279 125.723C83.2277 125.303 84.4901 124.317 84.4064 123.693C84.4321 123.331 84.009 122.762 83.3341 122.347L81.88 121.412L83.3321 120.481C88.6802 117.052 92.5349 111.385 93.7091 105.146C93.992 103.676 94.1363 102.18 94.1417 100.679C94.2221 95.835 92.6657 91.0587 89.9337 87.0586C90.4751 86.7003 91.0063 86.3282 91.5245 85.9404Z" fill="#F7F0FB"/>
<path d="M63.0391 63.5864C66.7772 63.5866 69.8076 66.6168 69.8076 70.355C69.8076 74.0931 66.7772 77.1234 63.0391 77.1235C59.3008 77.1235 56.2696 74.0932 56.2695 70.355C56.2695 66.6167 59.3008 63.5864 63.0391 63.5864ZM67.8242 70.0845C67.9813 67.0981 65.3872 64.3989 62.4092 64.6694C59.4311 64.9402 56.7234 67.6477 56.9941 70.0845C56.9942 73.075 59.4186 74.9585 62.4092 74.9585C65.3996 74.9583 67.6746 72.9254 67.8242 70.0845ZM63.208 66.5308C63.3407 66.0978 63.9104 66.0007 64.1797 66.3647L64.2148 66.4126C64.2737 66.4921 64.3532 66.5548 64.4443 66.5933L64.6416 66.6763C65.0127 66.8328 65.0966 67.3211 64.7988 67.5923L64.6406 67.7358C64.5673 67.8025 64.5134 67.8882 64.4844 67.9829L64.4668 68.0405C64.334 68.4732 63.7654 68.5703 63.4961 68.2065L63.46 68.1587C63.4011 68.0791 63.3217 68.0165 63.2305 67.978L63.0332 67.895C62.662 67.7384 62.5788 67.2491 62.877 66.978L63.0342 66.8345C63.1074 66.7679 63.1614 66.683 63.1904 66.5884L63.208 66.5308Z" fill="#F7F0FB"/>
<path d="M84.1543 60.3384C87.8924 60.3385 90.9227 63.3688 90.9229 67.1069C90.9229 70.8451 87.8925 73.8754 84.1543 73.8755C80.416 73.8755 77.3857 70.8452 77.3857 67.1069C77.3859 63.3688 80.4161 60.3384 84.1543 60.3384ZM84.9658 61.4214C81.9878 61.6922 79.2801 64.3998 79.5508 66.8364C79.551 69.8268 81.9754 71.7104 84.9658 71.7104C87.9563 71.7104 90.2311 69.6773 90.3809 66.8364C90.538 63.85 87.944 61.1506 84.9658 61.4214ZM86.2461 63.2837C86.3788 62.8508 86.9474 62.7529 87.2168 63.1167L87.2529 63.1655C87.3118 63.2449 87.3913 63.3068 87.4824 63.3452L87.6787 63.4282C88.0502 63.5846 88.1342 64.074 87.8359 64.3452L87.6787 64.4888C87.6057 64.5553 87.5515 64.6405 87.5225 64.7349L87.5039 64.7925C87.371 65.225 86.8025 65.3231 86.5332 64.9595L86.4971 64.9106C86.4382 64.8312 86.3587 64.7693 86.2676 64.731L86.0713 64.6479C85.6999 64.4916 85.6162 64.0022 85.9141 63.731L86.0723 63.5874C86.1453 63.521 86.1994 63.4357 86.2285 63.3413L86.2461 63.2837Z" fill="#F7F0FB"/>
</svg>
