<svg width="361" height="371" viewBox="0 0 361 371" fill="none" xmlns="http://www.w3.org/2000/svg">
<path d="M243.988 273.886C313.48 283.683 290.802 231.068 327.853 234.954C369.455 241.541 357.349 278.754 342.817 292.926C300.572 334.125 254.218 296.059 222.506 289.263C196.797 274.299 174.496 264.088 243.988 273.886Z" fill="#F7F0FB"/>
<path fill-rule="evenodd" clip-rule="evenodd" d="M53.1816 22.5574C60.6836 33.4982 78.9411 56.1687 91.9531 59.3249C68.9531 95.6709 48.7172 168.449 151.776 168.79C158.301 173.193 173.991 179.595 184.551 169.983C228.203 175.637 305.144 164.441 263.695 74.4216C279.588 69.1082 311.418 57.2636 311.597 52.3933C302.399 43.5241 275.517 25.1714 241.573 22.7156C223.866 11.0981 177.257 -6.81409 132.481 14.4744C115.111 10.2857 74.9325 6.03805 53.1816 22.5574ZM234.597 77.5818C245.833 44.7511 289.457 47.7357 309.865 53.3318C282.363 68.8284 248.227 75.9554 234.597 77.5818ZM202.915 65.6872C198.886 64.8819 196.976 60.2337 199.274 56.8279L200.37 55.2048C201.26 53.8856 201.679 52.3034 201.557 50.7165L201.063 44.3083C200.804 40.867 204.233 38.339 207.443 39.6052L210.356 40.7546C212.498 41.5992 214.925 41.2744 216.769 39.8962L217.734 39.1745C223.417 34.9268 231.533 38.8026 231.801 45.8923L231.857 47.4021C231.939 49.561 232.786 51.6214 234.246 53.2136L236.389 55.5505C240.159 59.6622 238.082 66.314 232.641 67.5476L232.292 67.6267C230.289 68.0811 228.615 69.4491 227.771 71.322C225.475 76.4141 218.267 76.4791 215.88 71.4294L215.263 70.1238C214.114 67.6931 211.708 66.103 209.021 65.9978L203.817 65.7947C203.514 65.7828 203.212 65.7467 202.915 65.6872ZM186.291 119.524C186.137 109.978 194.727 101.669 204.197 102.879C213.667 104.089 221.991 113.04 220.845 120.783C220.497 130.324 212.542 136.05 203.001 135.702C193.46 135.354 186.438 128.606 186.291 119.524ZM194.639 109.217C193.747 109.554 193.507 110.704 194.188 111.371L195.275 112.434C195.443 112.598 195.564 112.805 195.624 113.031L195.938 114.21C196.215 115.245 197.552 115.525 198.221 114.687L198.982 113.732C199.128 113.549 199.321 113.409 199.54 113.326L200.962 112.788C201.854 112.45 202.095 111.301 201.413 110.634L200.326 109.57C200.159 109.406 200.038 109.2 199.978 108.973L199.663 107.795C199.387 106.76 198.049 106.479 197.381 107.316L196.619 108.271C196.473 108.454 196.28 108.595 196.061 108.678L194.639 109.217ZM165.892 149.464C165.029 149.432 157.516 142.195 161.563 141.762C164.802 141.416 172.047 143.885 175.265 145.163C180.016 149.108 166.756 149.495 165.892 149.464ZM161.374 160.934C157.276 157.626 169.996 160.592 170.82 160.817C171.642 161.042 178.008 166.822 174.089 166.09C170.954 165.503 164.306 162.408 161.374 160.934ZM116.406 115.151C116.252 105.605 124.842 97.2937 134.313 98.5037C143.782 99.7138 152.106 108.667 150.959 116.41C150.611 125.951 142.657 131.676 133.116 131.329C123.575 130.981 116.553 124.232 116.406 115.151ZM124.752 104.842C123.86 105.179 123.62 106.328 124.301 106.995L125.388 108.059C125.555 108.223 125.676 108.429 125.736 108.655L126.052 109.835C126.329 110.87 127.665 111.149 128.333 110.311L129.096 109.357C129.242 109.174 129.434 109.033 129.653 108.95L131.075 108.412C131.967 108.074 132.208 106.925 131.526 106.258L130.439 105.194C130.272 105.03 130.151 104.825 130.091 104.598L129.775 103.419C129.499 102.384 128.162 102.104 127.494 102.942L126.732 103.896C126.586 104.079 126.393 104.22 126.174 104.302L124.752 104.842ZM57.043 22.9831C72.8472 23.1169 106.34 27.1265 104.634 58.3611C95.6329 53.6174 71.6646 43.1536 57.043 22.9831Z" fill="#F7F0FB"/>
<path d="M137.983 232.033L132.964 209.847L138.834 210.216L140.483 220.964L141.322 227.712L141.562 227.727L143.019 221.124L146.042 210.67L152.93 211.103L154.598 221.872L155.21 228.726L155.451 228.721L157.154 222.032L160.138 211.556L166.008 211.925L158.269 233.308L151.76 232.899L149.994 222.725L149.293 216.346L149.014 216.329L147.477 222.587L144.472 232.441L137.983 232.033ZM167.919 233.915L169.288 212.131L174.799 212.478L173.409 234.26L167.919 233.915ZM172.243 209.45C171.285 209.39 170.494 209.006 169.87 208.299C169.246 207.592 168.967 206.719 169.032 205.681C169.098 204.642 169.483 203.818 170.19 203.208C170.911 202.585 171.744 202.303 172.689 202.362C173.634 202.422 174.418 202.805 175.042 203.513C175.68 204.208 175.966 205.074 175.901 206.112C175.836 207.151 175.443 207.981 174.722 208.604C174.014 209.228 173.188 209.51 172.243 209.45ZM187.994 235.558C185.771 235.418 183.917 234.827 182.432 233.785C180.949 232.73 179.861 231.325 179.169 229.571C178.492 227.804 178.224 225.796 178.366 223.547C178.513 221.204 179.045 219.219 179.963 217.593C180.893 215.968 182.145 214.757 183.719 213.961C185.293 213.164 187.111 212.831 189.174 212.961C191.211 213.089 192.885 213.555 194.198 214.359C195.51 215.163 196.454 216.205 197.028 217.484C197.616 218.763 197.821 220.173 197.644 221.712L192.353 221.379C192.364 220.779 192.305 220.24 192.174 219.764C192.044 219.288 191.835 218.888 191.548 218.562C191.262 218.224 190.898 217.96 190.455 217.772C190.013 217.584 189.492 217.471 188.893 217.433C187.283 217.319 186.076 217.817 185.271 218.929C184.48 220.029 184.017 221.65 183.883 223.793C183.732 226.189 184.041 227.966 184.81 229.124C185.594 230.269 186.816 230.913 188.477 231.058C188.982 231.103 189.501 231.029 190.035 230.835C190.582 230.629 191.045 230.291 191.422 229.82C191.799 229.349 191.997 228.74 192.018 227.993L197.289 228.325C197.23 229.898 196.791 231.247 195.972 232.371C195.153 233.496 194.051 234.335 192.666 234.89C191.295 235.445 189.738 235.668 187.994 235.558ZM208.65 236.817C206.88 236.705 205.352 236.349 204.067 235.747C202.782 235.145 201.793 234.294 201.1 233.195C200.422 232.083 200.095 230.699 200.119 229.044L205.47 229.38C205.547 230.481 205.89 231.298 206.498 231.83C207.107 232.35 207.917 232.641 208.929 232.705C209.541 232.743 210.111 232.712 210.639 232.612C211.166 232.511 211.593 232.311 211.919 232.011C212.259 231.711 212.446 231.282 212.481 230.723C212.508 230.297 212.43 229.945 212.247 229.666C212.065 229.374 211.78 229.122 211.392 228.911C211.019 228.687 210.552 228.47 209.99 228.261C209.429 228.052 208.782 227.818 208.05 227.558C206.756 227.089 205.574 226.554 204.502 225.952C203.432 225.337 202.592 224.562 201.982 223.628C201.373 222.695 201.113 221.509 201.204 220.071C201.334 218.008 202.191 216.492 203.775 215.522C205.36 214.54 207.371 214.125 209.807 214.278C211.298 214.372 212.629 214.663 213.801 215.151C214.973 215.639 215.913 216.413 216.622 217.473C217.344 218.534 217.754 219.97 217.854 221.78L212.545 221.426C212.437 220.591 212.223 219.956 211.903 219.521C211.597 219.075 211.229 218.764 210.799 218.59C210.382 218.417 209.934 218.315 209.455 218.285C208.922 218.252 208.438 218.308 208.001 218.454C207.578 218.588 207.243 218.807 206.997 219.113C206.751 219.418 206.613 219.797 206.585 220.249C206.55 220.809 206.68 221.284 206.976 221.677C207.286 222.071 207.764 222.428 208.412 222.75C209.074 223.059 209.902 223.398 210.894 223.768C211.627 224.014 212.411 224.297 213.246 224.617C214.081 224.937 214.864 225.347 215.594 225.847C216.325 226.334 216.907 226.972 217.338 227.761C217.784 228.537 217.969 229.525 217.894 230.723C217.762 232.813 216.861 234.393 215.19 235.464C213.519 236.535 211.339 236.986 208.65 236.817Z" fill="#F7F0FB"/>
<ellipse cx="32.0092" cy="27.3021" rx="32.0092" ry="27.3021" transform="matrix(-0.566609 -0.823987 -0.823976 0.566624 127.603 224.837)" fill="#F7F0FB"/>
<path d="M238.174 213.72C237.784 193.428 254.089 193.707 268.174 195.802C276.642 197.062 285.22 198.909 290.388 205.734C310.267 231.984 250.422 262.131 240.559 230.715C239.162 226.267 238.308 220.696 238.174 213.72Z" fill="#F7F0FB"/>
<path fill-rule="evenodd" clip-rule="evenodd" d="M280.946 250.215C286.015 169.121 234.19 139.134 177.273 139.134C120.357 139.134 61.7398 187.283 73.5655 250.215C56.9816 289.387 46.8451 329.527 83.789 346C83.2208 344.175 82.8069 342.313 82.5629 340.437C82.0178 336.733 82.049 333.002 82.6102 329.403C82.5991 325.861 82.853 322.261 83.645 318.676C85.0783 311.176 90.3095 303.661 97.5845 300.18C110.127 293.736 125.456 296.961 136.246 305.048C146.794 312.192 153.122 326.367 152.282 338.972C152.153 343.468 151.628 348.381 150.011 353.074C157.226 352.575 164.96 351.804 173.243 350.739C180.648 351.347 187.694 351.777 194.388 352.039C193.798 350.265 193.376 348.442 193.148 346.584C192.538 342.749 192.578 338.891 193.143 335.179C193.135 331.448 193.621 327.694 194.641 324.055C198.471 308.928 213.576 296.513 230.115 297.113C253.285 297.491 265.299 322.295 264.469 341.795C264.448 342.977 264.379 344.181 264.26 345.398C305.391 331.767 307.241 298.563 280.946 250.215ZM88.6284 347.923L88.6303 347.924C88.6066 347.878 88.5817 347.832 88.5581 347.786C88.5816 347.832 88.6048 347.878 88.6284 347.923ZM86.3952 342.621C86.4117 342.671 86.4306 342.72 86.4474 342.77C86.358 342.504 86.2708 342.237 86.1873 341.968L86.3952 342.621ZM84.5154 330.406C84.4705 334.11 84.9664 337.695 85.9246 341.078C84.8871 337.414 84.394 333.512 84.5404 329.479L84.5154 330.406ZM229.979 300.861C223.217 300.615 216.963 302.353 211.671 305.581C216.963 302.353 223.216 300.617 229.977 300.863C249.091 301.559 260.359 321.677 259.632 341.622C259.564 343.485 259.395 345.258 259.129 346.942C259.396 345.257 259.566 343.483 259.633 341.619C260.36 321.675 249.092 301.558 229.979 300.861ZM147.382 333.306C147.395 333.468 147.406 333.631 147.417 333.794C147.406 333.63 147.395 333.467 147.382 333.304L147.382 333.306ZM85.0545 323.576C84.8929 324.687 84.7666 325.839 84.6754 327.032C84.7666 325.84 84.8929 324.688 85.0544 323.577L85.0545 323.576ZM133.687 308.323C123.891 300.674 110.141 297.622 98.9332 302.993C91.7575 306.433 87.5214 312.119 85.6474 320.364C87.5214 312.12 91.7577 306.435 98.9331 302.996C110.142 297.624 123.891 300.675 133.688 308.325C136.315 310.376 138.581 312.583 140.475 314.99C138.581 312.583 136.315 310.375 133.687 308.323ZM144.553 321.722C144.645 321.928 144.733 322.136 144.821 322.345C144.733 322.136 144.645 321.928 144.553 321.722ZM140.893 315.532C141.954 316.938 142.89 318.412 143.701 319.962C142.89 318.411 141.954 316.936 140.892 315.53L140.893 315.532ZM202.606 313.75C202.194 314.286 201.794 314.834 201.412 315.397C201.794 314.834 202.194 314.286 202.606 313.75ZM206.198 309.765C205.152 310.754 204.168 311.816 203.249 312.94C204.168 311.816 205.152 310.754 206.198 309.765ZM208.47 307.806C208.126 308.078 207.785 308.354 207.451 308.639C207.785 308.354 208.126 308.078 208.47 307.806ZM211.302 305.808C211.051 305.966 210.803 306.127 210.557 306.291C210.803 306.127 211.051 305.966 211.302 305.808ZM103.165 178.783C129.839 179.62 156.51 180.549 183.177 181.57L183.325 181.579C210.097 184.47 236.862 187.453 263.616 190.53L264.835 190.67L264.786 191.861C264.271 204.306 263.737 216.752 263.182 229.196L263.171 229.301C262.24 234.177 261.306 239.053 260.368 243.928C259.623 247.803 258.876 251.679 258.126 255.553L255.872 267.179C248.013 266.446 240.153 265.705 232.295 264.956C213.13 263.129 193.969 261.254 174.814 259.332C147.532 257.949 120.255 256.469 92.9842 254.893L90.8564 254.743L90.9399 252.64C91.3001 239.236 91.6835 225.832 92.0902 212.43L92.159 211.935C94.7344 201.483 97.3251 191.034 99.9295 180.589L100.401 178.696L102.35 178.757C102.622 178.766 102.894 178.774 103.165 178.783ZM161.402 160.927C157.304 157.618 170.029 160.586 170.85 160.81C171.675 161.037 178.035 166.814 174.118 166.082C170.983 165.495 164.334 162.401 161.402 160.927ZM161.588 141.754C164.827 141.408 172.072 143.878 175.29 145.155C180.041 149.1 166.783 149.487 165.916 149.456C165.052 149.423 157.542 142.187 161.588 141.754Z" fill="#F7F0FB"/>
<path d="M229.975 300.864C210.86 300.168 195.797 315.308 195.071 335.253C194.344 355.198 208.32 369.889 227.435 370.586C246.549 371.282 258.904 361.568 259.631 341.623C260.357 321.677 249.089 301.561 229.975 300.864ZM226.078 330.377C232.813 330.623 236.073 340.414 235.84 346.805C235.607 353.196 227.987 351.378 221.252 351.133C214.517 350.888 210.342 345.876 212.353 341.464C214.801 335.199 219.344 330.132 226.078 330.377ZM242.813 325.963C245.48 326.06 247.453 331.338 247.355 334.039C247.256 336.74 245.042 338.099 242.374 338.002C242.294 337.999 242.213 337.992 242.133 337.984C242.1 337.981 242.067 337.975 242.033 337.971C241.987 337.965 241.941 337.959 241.895 337.951C241.858 337.945 241.822 337.938 241.785 337.93C241.743 337.922 241.7 337.914 241.657 337.904C241.603 337.892 241.549 337.876 241.495 337.861C241.477 337.856 241.459 337.853 241.441 337.848C241.385 337.831 241.329 337.812 241.272 337.793C241.247 337.785 241.222 337.777 241.197 337.768C241.158 337.754 241.119 337.739 241.081 337.724C241.039 337.708 240.997 337.692 240.956 337.674C240.918 337.658 240.879 337.641 240.841 337.623C240.81 337.609 240.779 337.596 240.749 337.581C240.701 337.558 240.653 337.533 240.606 337.508C240.579 337.494 240.552 337.481 240.526 337.466C240.48 337.441 240.434 337.416 240.389 337.389C240.366 337.375 240.343 337.361 240.32 337.347C240.271 337.317 240.221 337.287 240.172 337.255C240.153 337.242 240.134 337.23 240.115 337.217C239.994 337.136 239.876 337.051 239.761 336.96C239.746 336.948 239.732 336.936 239.717 336.924C239.363 336.639 239.037 336.309 238.747 335.946C238.727 335.921 238.706 335.896 238.685 335.87C238.641 335.813 238.598 335.755 238.555 335.696C238.546 335.684 238.538 335.672 238.529 335.66C238.389 335.464 238.259 335.261 238.142 335.052C238.133 335.037 238.125 335.022 238.117 335.008C238.003 334.801 237.901 334.59 237.811 334.374C237.798 334.343 237.785 334.313 237.773 334.282C237.498 333.593 237.352 332.87 237.378 332.168C237.477 329.468 240.145 325.866 242.813 325.963ZM215.089 317.92C218.023 318.027 220.677 321.822 220.579 324.523C220.573 324.682 220.558 324.84 220.533 324.999L220.529 325.031C220.434 325.617 220.216 326.2 219.903 326.75C219.896 326.762 219.889 326.772 219.883 326.784C219.8 326.928 219.71 327.069 219.614 327.208C219.608 327.216 219.603 327.225 219.597 327.234C219.554 327.295 219.51 327.355 219.465 327.414C219.451 327.433 219.437 327.452 219.423 327.471C219.387 327.518 219.35 327.564 219.312 327.61C219.291 327.637 219.27 327.664 219.248 327.69C219.149 327.808 219.045 327.923 218.938 328.034C218.914 328.059 218.891 328.084 218.867 328.109C218.861 328.115 218.855 328.121 218.849 328.127C218.793 328.183 218.737 328.239 218.679 328.294L218.665 328.306C218.4 328.553 218.114 328.779 217.813 328.98C217.784 329 217.754 329.019 217.725 329.038C217.675 329.07 217.625 329.103 217.574 329.134C217.545 329.151 217.516 329.168 217.487 329.185C217.438 329.214 217.388 329.242 217.338 329.27C217.309 329.286 217.279 329.302 217.25 329.317C217.196 329.346 217.142 329.373 217.088 329.4C217.061 329.413 217.033 329.427 217.005 329.44C216.956 329.463 216.908 329.486 216.859 329.507C216.817 329.526 216.775 329.543 216.733 329.561C216.69 329.578 216.646 329.596 216.603 329.612C216.57 329.625 216.536 329.638 216.503 329.65C216.445 329.671 216.386 329.691 216.328 329.71C216.298 329.72 216.268 329.729 216.239 329.738C216.193 329.752 216.147 329.765 216.1 329.778C216.056 329.79 216.011 329.803 215.966 329.814C215.923 329.825 215.88 329.834 215.837 329.844C215.795 329.853 215.754 329.863 215.712 329.871C215.663 329.881 215.614 329.888 215.565 329.896C215.526 329.903 215.486 329.91 215.446 329.915C215.398 329.922 215.35 329.926 215.302 329.932C215.262 329.936 215.222 329.94 215.182 329.944C215.131 329.948 215.081 329.95 215.031 329.953C214.993 329.955 214.954 329.958 214.916 329.959C214.914 329.959 214.911 329.959 214.908 329.959L214.65 329.958C211.716 329.851 209.39 328.327 209.488 325.626C209.587 322.925 212.155 317.813 215.089 317.92ZM230.603 316.477C233.335 316.576 235.796 320.365 235.698 323.066C235.677 323.618 235.548 324.177 235.332 324.715C235.326 324.729 235.32 324.744 235.314 324.758C235.257 324.897 235.194 325.034 235.125 325.17C235.114 325.192 235.103 325.215 235.092 325.238C235.064 325.291 235.035 325.344 235.006 325.397C234.998 325.411 234.991 325.424 234.983 325.438C234.947 325.501 234.91 325.564 234.872 325.627C234.863 325.642 234.853 325.657 234.843 325.672C234.807 325.731 234.77 325.789 234.731 325.846C234.72 325.863 234.709 325.879 234.697 325.896C234.663 325.946 234.629 325.995 234.593 326.044C234.571 326.075 234.548 326.105 234.525 326.136C234.497 326.174 234.468 326.213 234.438 326.251C234.419 326.275 234.4 326.298 234.381 326.322C234.348 326.362 234.316 326.403 234.283 326.443C234.259 326.471 234.234 326.499 234.209 326.527C234.082 326.673 233.948 326.814 233.808 326.948C233.738 327.015 233.668 327.08 233.596 327.144C233.557 327.178 233.517 327.212 233.478 327.245C233.425 327.289 233.373 327.332 233.319 327.374C233.278 327.407 233.235 327.438 233.193 327.47C233.17 327.487 233.147 327.505 233.124 327.521C233.076 327.557 233.026 327.59 232.976 327.624C232.952 327.641 232.928 327.658 232.903 327.674C232.86 327.703 232.816 327.73 232.773 327.757C232.751 327.77 232.73 327.784 232.708 327.797C232.654 327.83 232.6 327.861 232.546 327.891C232.523 327.904 232.499 327.918 232.475 327.93C232.425 327.958 232.375 327.984 232.324 328.009C232.294 328.024 232.264 328.038 232.233 328.053C232.187 328.075 232.14 328.096 232.093 328.117C232.064 328.13 232.036 328.143 232.007 328.155C231.958 328.175 231.909 328.196 231.86 328.215C231.826 328.228 231.792 328.24 231.758 328.252C231.719 328.266 231.68 328.281 231.64 328.294C231.596 328.309 231.551 328.322 231.506 328.335C231.467 328.346 231.428 328.358 231.389 328.369C231.351 328.379 231.312 328.388 231.274 328.397C231.233 328.407 231.192 328.417 231.151 328.426C231.11 328.434 231.069 328.442 231.028 328.449C230.987 328.457 230.947 328.465 230.906 328.471C230.858 328.479 230.811 328.483 230.763 328.489C230.729 328.493 230.695 328.497 230.66 328.501C230.609 328.505 230.558 328.508 230.507 328.511C230.476 328.512 230.445 328.515 230.414 328.516C230.411 328.516 230.408 328.517 230.405 328.517L230.164 328.515C227.433 328.415 224.578 324.989 224.677 322.288C224.775 319.587 227.871 316.378 230.603 316.477Z" fill="#F7F0FB"/>
<path fill-rule="evenodd" clip-rule="evenodd" d="M133.689 308.326C123.892 300.677 110.143 297.626 98.934 302.998C89.3668 307.583 85.0265 316.162 84.5415 329.476C83.8149 349.421 98.721 366.155 117.836 366.851C136.95 367.548 146.76 358.746 147.487 338.8C147.982 325.213 143.198 315.751 133.689 308.326ZM110.744 326.423C116.637 326.637 119.479 335.493 119.269 341.275C119.058 347.057 112.392 345.421 106.499 345.206C100.606 344.992 96.9587 340.462 98.7231 336.468C99.2296 335.132 99.8394 333.856 100.55 332.689C100.565 332.665 100.579 332.641 100.593 332.618C100.666 332.499 100.742 332.381 100.817 332.264C100.833 332.24 100.849 332.215 100.865 332.19C100.939 332.076 101.014 331.963 101.09 331.852C101.119 331.81 101.148 331.769 101.177 331.727C101.238 331.64 101.299 331.553 101.361 331.467C101.401 331.412 101.442 331.357 101.482 331.303C101.547 331.216 101.612 331.129 101.678 331.044C101.71 331.004 101.741 330.964 101.773 330.924C101.847 330.831 101.921 330.738 101.997 330.647C102.026 330.611 102.056 330.576 102.086 330.541C102.165 330.446 102.246 330.352 102.327 330.26C102.332 330.255 102.336 330.25 102.341 330.245L102.601 329.958C102.618 329.94 102.636 329.923 102.653 329.905C102.683 329.873 102.713 329.843 102.743 329.811C103.354 329.179 104.013 328.619 104.721 328.144C104.775 328.107 104.829 328.07 104.884 328.035C104.952 327.99 105.022 327.948 105.092 327.905C105.154 327.867 105.216 327.828 105.279 327.791C105.353 327.747 105.429 327.705 105.505 327.663C105.569 327.628 105.634 327.592 105.699 327.558C105.777 327.517 105.857 327.477 105.937 327.438C105.999 327.407 106.062 327.376 106.126 327.346C106.208 327.308 106.291 327.271 106.374 327.235C106.438 327.207 106.503 327.179 106.568 327.152C106.645 327.121 106.722 327.09 106.799 327.061C106.877 327.031 106.955 327.002 107.034 326.975C107.107 326.949 107.18 326.923 107.254 326.899C107.34 326.871 107.427 326.846 107.514 326.82C107.579 326.801 107.644 326.782 107.71 326.764C107.798 326.74 107.886 326.718 107.975 326.696C108.054 326.677 108.134 326.658 108.214 326.64C108.286 326.625 108.358 326.611 108.43 326.597C108.517 326.58 108.606 326.564 108.694 326.549C108.773 326.536 108.853 326.525 108.933 326.514C109.022 326.502 109.111 326.489 109.201 326.479C109.288 326.469 109.376 326.463 109.464 326.455C109.539 326.449 109.614 326.441 109.689 326.436C109.822 326.428 109.956 326.424 110.092 326.42C110.131 326.419 110.17 326.416 110.209 326.416C110.216 326.416 110.224 326.416 110.231 326.416L110.744 326.423ZM123.727 319.864C126.128 319.951 127.9 324.789 127.81 327.264C127.719 329.74 125.726 330.986 123.325 330.898C123.252 330.896 123.179 330.89 123.107 330.883C123.092 330.881 123.077 330.878 123.062 330.876C123.004 330.869 122.946 330.862 122.888 330.852C122.856 330.847 122.824 330.839 122.792 330.833C122.757 330.826 122.722 330.82 122.687 330.812C122.638 330.8 122.59 330.787 122.542 330.773C122.522 330.768 122.501 330.763 122.481 330.757C122.44 330.745 122.399 330.731 122.358 330.718C122.321 330.705 122.284 330.693 122.247 330.679C122.226 330.672 122.205 330.664 122.185 330.656C122.136 330.637 122.088 330.617 122.04 330.597C122.016 330.586 121.992 330.575 121.968 330.565C121.924 330.545 121.88 330.524 121.836 330.502C121.812 330.49 121.788 330.478 121.764 330.465C121.722 330.444 121.682 330.421 121.641 330.398C121.614 330.383 121.587 330.367 121.56 330.351C121.518 330.327 121.476 330.301 121.435 330.275C121.414 330.262 121.393 330.248 121.371 330.234C121.329 330.207 121.288 330.178 121.246 330.149C121.224 330.134 121.201 330.118 121.179 330.102C121.136 330.071 121.094 330.039 121.052 330.006C121.032 329.991 121.011 329.976 120.99 329.96C120.941 329.921 120.893 329.88 120.844 329.839C120.833 329.829 120.823 329.82 120.812 329.81C120.775 329.777 120.737 329.744 120.7 329.71C120.298 329.34 119.942 328.902 119.651 328.425C119.636 328.4 119.62 328.375 119.605 328.35C119.576 328.301 119.547 328.251 119.519 328.2C119.508 328.18 119.497 328.161 119.486 328.141C119.464 328.099 119.443 328.056 119.422 328.014C119.405 327.981 119.387 327.949 119.371 327.917C119.349 327.87 119.327 327.823 119.305 327.775C119.297 327.757 119.288 327.738 119.28 327.719C119.197 327.53 119.124 327.338 119.062 327.144C119.051 327.108 119.041 327.071 119.03 327.034C119.019 326.996 119.009 326.958 118.998 326.92C118.993 326.902 118.989 326.884 118.985 326.867C118.951 326.736 118.921 326.605 118.898 326.474C118.892 326.441 118.888 326.408 118.883 326.375C118.841 326.101 118.822 325.826 118.832 325.555C118.922 323.08 121.326 319.776 123.727 319.864ZM98.8694 316.949C101.537 317.046 103.959 320.217 103.877 322.468C103.795 324.719 101.171 327.077 98.5039 326.98C95.8364 326.883 93.7169 325.607 93.7987 323.356C93.8807 321.106 96.2017 316.852 98.8694 316.949ZM111.376 314.393C113.86 314.483 116.106 317.648 116.024 319.899C115.942 322.149 113.494 324.515 111.011 324.424C108.527 324.334 105.922 321.47 106.004 319.219C106.087 316.968 108.892 314.302 111.376 314.393Z" fill="#F7F0FB"/>
</svg>
