<svg width="24" height="24" viewBox="0 0 24 24" fill="none" xmlns="http://www.w3.org/2000/svg">
<path fill-rule="evenodd" clip-rule="evenodd" d="M3.6001 7.20001C3.6001 5.21178 5.21187 3.60001 7.2001 3.60001H19.2001C19.6546 3.60001 20.0701 3.85681 20.2734 4.26335C20.4767 4.66989 20.4328 5.15638 20.1601 5.52001L17.1001 9.60001L20.1601 13.68C20.4328 14.0436 20.4767 14.5301 20.2734 14.9367C20.0701 15.3432 19.6546 15.6 19.2001 15.6H7.2001C6.53736 15.6 6.0001 16.1373 6.0001 16.8V20.4C6.0001 21.0627 5.46284 21.6 4.8001 21.6C4.13736 21.6 3.6001 21.0627 3.6001 20.4V7.20001Z" fill="#E0BEF6"/>
</svg>
