<svg width="343" height="126" viewBox="0 0 343 126" fill="none" xmlns="http://www.w3.org/2000/svg">
<path fill-rule="evenodd" clip-rule="evenodd" d="M131.888 14.6112C132.594 14.5471 133.301 14.676 134.008 14.9972C134.715 15.2541 135.358 15.6717 135.936 16.2497C136.578 16.7636 137.061 17.3426 137.382 17.985C138.089 19.27 138.314 20.6845 138.057 22.2264C137.8 23.7043 137.028 24.7651 135.743 25.4078C134.618 26.8139 133.493 28.373 132.368 30.0831C136.799 33.3942 139.927 37.1532 141.25 40.9945C143.185 46.0399 143.651 51.3705 142.834 56.7248L142.839 56.7205C142.389 59.6766 141.545 62.6392 140.342 65.565L140.193 65.919C140.106 66.1253 140.019 66.332 139.928 66.5379C139.923 66.5503 139.917 66.5627 139.911 66.5751C139.887 66.6312 139.861 66.687 139.836 66.7431C139.797 66.8301 139.758 66.9176 139.719 67.0047C139.638 67.1835 139.557 67.3631 139.473 67.5416C139.433 67.6276 139.391 67.7131 139.35 67.7989C139.216 68.0807 139.076 68.3614 138.935 68.6421C138.891 68.731 138.847 68.8203 138.801 68.909C138.664 69.1783 138.523 69.4467 138.379 69.715C138.331 69.8056 138.283 69.8966 138.234 69.9872C138.216 70.0187 138.2 70.0503 138.183 70.0818C138.106 70.2217 138.03 70.3622 137.952 70.5018C137.86 70.6655 137.767 70.8287 137.673 70.992C137.584 71.1481 137.495 71.3052 137.403 71.4609C137.284 71.6628 137.163 71.8637 137.041 72.0648C136.966 72.1874 136.892 72.3104 136.816 72.4327C136.679 72.655 136.538 72.876 136.396 73.0973C136.33 73.2011 136.264 73.3053 136.196 73.4088C136.064 73.6132 135.93 73.8177 135.793 74.0213C135.7 74.161 135.606 74.3009 135.51 74.4402C135.394 74.6106 135.276 74.7808 135.157 74.9506C135.056 75.0963 134.952 75.2413 134.848 75.3866C134.721 75.5649 134.593 75.7438 134.463 75.9214C134.378 76.0383 134.29 76.1546 134.204 76.2712C134.042 76.4882 133.879 76.705 133.714 76.9209C133.666 76.9826 133.619 77.0443 133.571 77.1059C132.226 78.8459 130.753 80.5467 129.159 82.198C129.109 82.2498 129.06 82.3025 129.01 82.3543C128.786 82.5847 128.559 82.8138 128.33 83.0422C128.265 83.1077 128.199 83.1737 128.133 83.2389C127.927 83.4439 127.718 83.6481 127.507 83.8514C127.404 83.9513 127.299 84.0506 127.195 84.1502C126.977 84.3572 126.758 84.5638 126.537 84.769C126.48 84.8221 126.423 84.8755 126.365 84.9285C126.111 85.1626 125.854 85.3954 125.595 85.6271C125.547 85.6705 125.498 85.7145 125.45 85.7579C125.196 85.9838 124.939 86.2084 124.68 86.432C124.599 86.5015 124.518 86.5711 124.437 86.6404C117.664 92.4375 109.304 97.3915 99.7617 100.909C74.0583 110.382 47.8084 106.493 34.7289 92.7532C34.2365 95.2784 33.6386 98.0231 32.9277 100.985C32.2208 104.262 31.2565 107.412 30.0356 110.433C28.8789 113.517 27.3684 116.281 25.5049 118.723C23.6413 121.229 21.3268 123.06 18.5638 124.217C16.1861 125.117 13.5835 125.406 10.756 125.085C7.92845 124.828 5.45396 123.735 3.33323 121.808C1.72666 120.265 0.698492 118.433 0.248638 116.312C-0.201098 114.256 -0.040828 112.071 0.730307 109.757C1.56572 107.251 2.56252 105.13 3.71921 103.395C4.81155 101.724 6.0644 100.213 7.47793 98.8639C8.89148 97.5147 10.4023 96.2618 12.0086 95.1052C13.6149 93.9486 15.3186 92.6947 17.1177 91.3454C18.5314 90.253 19.9465 89.1283 21.3602 87.9716C22.7739 86.8792 24.2194 85.6569 25.6974 84.3075C25.8901 83.344 26.0831 82.38 26.2758 81.4165C26.5328 80.4527 26.7907 79.488 27.0477 78.5243V78.2351C27.1118 78.1068 27.1434 77.9774 27.1434 77.8491C25.794 79.07 24.2834 80.4527 22.6128 81.9949C20.9421 83.4727 19.1421 84.758 17.2144 85.8504C15.351 86.8785 13.3907 87.4895 11.3345 87.6824C9.34225 87.8752 7.38139 87.2642 5.45343 85.8504C3.91124 84.6936 2.78649 83.2472 2.07962 81.5121C1.37287 79.7773 0.923091 78.1062 0.730307 76.4998C0.473301 74.8291 0.376834 73.3825 0.441093 72.1616C0.505336 70.941 0.537852 70.2656 0.537852 70.1371C0.923505 67.1811 1.79132 64.1277 3.14078 60.979C4.49031 57.7661 6.25754 54.809 8.44233 52.1101C10.6272 49.4113 13.1984 47.0978 16.1544 45.1701C19.1104 43.2423 22.324 42.0526 25.7941 41.6027C29.2642 41.2173 32.4778 42.0211 35.4339 44.0132C36.3978 42.5354 37.5875 41.6673 39.0012 41.4103C40.4789 41.0892 41.7969 41.3145 42.9534 42.0855C44.0456 42.8566 44.6883 44.078 44.8812 45.7485C45.1382 47.3549 45.1057 49.2513 44.7844 51.436C44.4631 53.6208 43.9494 55.9669 43.2427 58.4728C42.5358 60.9146 41.7968 63.3572 41.0257 65.7989C40.3189 68.1763 39.6438 70.4586 39.0012 72.6433C38.3587 74.7635 37.9404 76.5637 37.7476 78.0416C38.5831 77.399 39.9009 76.5634 41.6998 75.5354C43.499 74.443 45.3954 73.2543 47.3874 71.9691C49.4436 70.6197 51.4364 69.2056 53.3641 67.7277C53.6299 67.5304 53.8883 67.3325 54.1392 67.1376C54.4513 66.2335 54.8046 65.3367 55.2015 64.4496C56.2297 62.0077 57.5157 59.7258 59.058 57.6052C60.6645 55.4848 62.4004 53.7813 64.2638 52.4961C67.5412 50.1829 71.1406 48.5759 75.0605 47.6762C78.9804 46.7767 82.9655 46.873 87.0139 47.9654C87.7207 47.3873 88.5564 46.9048 89.5201 46.5194C90.5482 46.1339 91.7056 45.9409 92.9907 45.9409C94.7897 45.9411 96.268 46.4557 97.4246 47.4838C98.6454 48.4476 99.2565 49.669 99.2566 51.1468C99.2566 52.3034 98.9022 53.6852 98.1955 55.2915C97.4886 56.8337 96.6217 58.5057 95.5936 60.3049C94.5655 62.104 93.4721 63.9355 92.3155 65.7989C91.2232 67.6622 90.2272 69.4624 89.3277 71.1972C88.4923 72.8679 87.8812 74.4435 87.4956 75.9214C87.1101 77.335 87.1427 78.4923 87.5924 79.392C88.6848 79.3918 90.099 79.0061 91.8338 78.2351C93.5687 77.3997 95.3363 76.2748 97.1354 74.8613C98.9989 73.4475 100.735 71.7757 102.341 69.8479C104.012 67.9201 105.297 65.831 106.197 63.5819C106.441 62.94 106.804 62.4221 107.281 62.0274C107.599 60.191 107.992 58.3307 108.463 56.4483C109.362 52.5927 110.551 48.704 112.029 44.7841C113.507 40.8641 115.179 37.1045 117.042 33.5058C118.771 30.2781 120.605 27.2575 122.54 24.4434C122.368 24.3658 122.195 24.2862 122.022 24.2105C122.196 24.2859 122.37 24.3637 122.543 24.4402C122.764 24.1179 122.987 23.797 123.211 23.4801C125.396 20.3313 127.678 17.6312 130.056 15.3821C130.57 14.8684 131.181 14.6112 131.888 14.6112ZM19.1422 102.238C17.7286 103.266 16.3794 104.359 15.0943 105.516C13.8734 106.737 12.8125 108.055 11.9129 109.468C11.0776 110.882 10.563 112.456 10.3701 114.191C11.3339 115.155 12.2659 115.606 13.1655 115.542C14.065 115.477 14.9016 115.027 15.6727 114.191C16.5077 113.42 17.2788 112.36 17.9853 111.011C18.6921 109.726 19.3673 108.343 20.0098 106.865C20.6523 105.452 21.2311 104.07 21.7451 102.72C22.259 101.371 22.7089 100.246 23.0944 99.3467C21.8737 100.246 20.5556 101.21 19.1422 102.238ZM107.18 79.7535C105.759 81.0658 104.276 82.2968 102.727 83.4399C100.092 85.432 97.3924 87.0398 94.6292 88.2608C91.8661 89.4817 89.2309 90.0917 86.7247 90.0918C84.2184 90.0918 81.9043 89.3854 79.7836 87.9716C77.663 86.6221 76.2491 84.6295 75.5421 81.9949C74.6426 82.7659 73.6454 83.5365 72.5532 84.3075C71.461 85.0143 70.3045 85.6581 69.0837 86.2363C67.9272 86.8146 66.7057 87.2318 65.4207 87.4889C64.1356 87.7459 62.8818 87.7458 61.6609 87.4889C59.0261 87.039 57.0013 86.0434 55.5874 84.5011C54.5467 83.3657 53.7849 82.0731 53.3014 80.6243C52.4298 81.2258 51.5517 81.8126 50.6655 82.3798C47.5166 84.3719 44.4949 86.1715 41.6031 87.7781C39.1343 89.1808 37.1059 90.4619 35.5189 91.6198C52.1222 106.997 78.5638 103.809 97.8169 95.6326C103.334 93.2822 108.582 90.4214 113.431 87.0912C111.87 86.3744 110.503 85.3187 109.33 83.9226C108.369 82.7778 107.652 81.3877 107.18 79.7535ZM132.197 30.3457C131.066 32.081 129.933 33.9694 128.802 36.012C126.489 40.1247 124.432 44.4954 122.633 49.1223C120.834 53.7492 119.484 58.4091 118.584 63.1003C117.684 67.7913 117.524 72.1296 118.102 76.1138C118.488 77.5918 119.227 78.3632 120.319 78.4276C121.476 78.4275 122.794 78.0093 124.272 77.1739C125.375 76.5022 126.515 75.6693 127.69 74.6752C132.619 69.2558 136.645 63.1592 138.867 56.2102C140.299 51.6384 140.827 46.6508 139.95 41.4943L139.934 41.4485C138.959 37.1811 135.832 33.3552 132.197 30.3457ZM80.362 57.2203C79.2697 57.156 77.9842 57.3805 76.5065 57.8944C75.0931 58.4084 73.9356 59.0513 73.036 59.8222C71.0969 61.419 69.4109 63.4728 67.9779 65.9807C67.8669 66.2881 67.7196 66.5823 67.5345 66.8601C67.4627 66.9759 67.3876 67.0906 67.3144 67.2056C65.854 70.0234 65.0296 72.993 64.8423 76.1138C66.5771 75.5996 68.2483 74.6678 69.8546 73.3185C71.461 71.9048 72.9391 70.2977 74.2885 68.4986C75.7022 66.6351 76.9559 64.7388 78.0483 62.8111C79.1407 60.819 80.0411 58.9867 80.748 57.316C80.6837 57.2519 80.5545 57.2203 80.362 57.2203ZM26.2758 52.8821C24.4124 53.0749 22.6124 53.814 20.8775 55.099C19.1425 56.3842 17.5355 57.9273 16.0576 59.7265C14.6441 61.5255 13.4552 63.4537 12.4913 65.5097C11.5917 67.5659 11.0446 69.4947 10.8517 71.294C10.5304 73.6718 10.7883 75.118 11.6237 75.6322C12.5234 76.0818 13.6806 75.9216 15.0943 75.1505C16.5722 74.315 18.1792 73.0289 19.9141 71.294C21.7132 69.559 23.3843 67.6951 24.9265 65.7032C26.5329 63.7111 27.8505 61.75 28.8787 59.8222C29.9709 57.8946 30.5497 56.2874 30.614 55.0023C30.0358 54.5526 29.4254 54.1026 28.783 53.653C28.2047 53.139 27.368 52.8821 26.2758 52.8821Z" fill="#F4F4F4"/>
<path fill-rule="evenodd" clip-rule="evenodd" d="M250.637 22.8059C251.922 22.1634 253.24 22.0983 254.589 22.6124C256.388 23.1908 257.481 24.284 257.866 25.8905C258.252 27.497 258.091 29.0714 257.384 30.6136C258.284 30.4851 259.216 30.3887 260.18 30.3244C261.144 30.2602 262.108 30.2287 263.072 30.2287C264.55 30.2288 265.771 30.7424 266.735 31.7705C267.763 32.7344 268.278 33.9556 268.278 35.4335C268.278 36.9116 267.763 38.1651 266.735 39.1933C265.771 40.1572 264.55 40.6393 263.072 40.6394C261.401 40.6394 259.698 40.7683 257.963 41.0254C256.228 41.2824 254.428 41.6031 252.565 41.9887C251.986 44.4308 251.182 47.227 250.154 50.3759C249.19 53.5248 248.227 56.7708 247.263 60.1124C246.363 63.3897 245.592 66.6349 244.949 69.8479C244.371 73.061 244.146 75.9213 244.274 78.4276L244.563 78.8135C245.72 78.8135 247.134 78.2673 248.805 77.175C250.476 76.0182 252.115 74.6683 253.721 73.126C255.392 71.5194 256.935 69.9127 258.349 68.3061C259.676 66.7381 260.661 65.4801 261.309 64.5346C261.678 63.3785 262.055 62.257 262.444 61.1725C263.665 57.7022 265.111 53.9743 266.782 49.9899C267.039 49.3474 267.457 48.7687 268.035 48.2547C268.614 47.7407 269.256 47.3548 269.963 47.0978C270.67 46.7766 271.378 46.6161 272.084 46.6161C272.855 46.552 273.595 46.6484 274.301 46.9053C275.586 47.4195 276.582 48.3514 277.289 49.7007C277.996 50.9859 278.092 52.3035 277.578 53.653C276.872 55.6451 276.069 57.67 275.169 59.7265C274.334 61.7186 273.497 63.7435 272.662 65.8C271.826 67.8562 271.056 69.9454 270.349 72.0659C269.707 74.1865 269.192 76.3394 268.806 78.5243C269.77 78.9741 271.184 78.8452 273.048 78.1383C274.911 77.3672 276.871 76.1785 278.928 74.5721C280.984 72.9655 282.945 71.0045 284.809 68.691C286.737 66.3776 288.215 63.839 289.243 61.0758C289.377 60.7407 289.547 60.4323 289.751 60.1496C290.424 58.4146 291.227 56.7306 292.159 55.099C294.023 51.9502 296.305 49.2188 299.004 46.9053C301.703 44.5919 304.756 43.1455 308.162 42.5671C309.961 42.3102 311.728 42.4715 313.463 43.0499C315.262 43.5639 316.837 44.4309 318.186 45.6517C319.536 46.8727 320.565 48.3831 321.272 50.1824C321.979 51.9174 322.203 53.8137 321.946 55.8699C321.561 58.826 320.565 61.4295 318.958 63.6787C317.352 65.8637 315.713 67.7921 314.042 69.463C313.014 70.4911 311.792 71.0046 310.379 71.0047C308.965 71.0047 307.744 70.491 306.716 69.463C305.688 68.4348 305.173 67.2136 305.173 65.8C305.173 64.3862 305.687 63.1641 306.716 62.1359C306.844 62.0069 307.102 61.6858 307.487 61.1725C307.936 60.5942 308.419 59.9516 308.933 59.2448C309.511 58.4737 310.025 57.6697 310.474 56.8343C310.924 55.999 311.246 55.2599 311.439 54.6174C311.696 53.9748 311.696 53.4926 311.439 53.1713C311.246 52.7858 310.731 52.6569 309.896 52.7853C308.739 52.9781 307.647 53.4289 306.619 54.1357C305.655 54.8425 304.723 55.678 303.824 56.6419C302.988 57.6058 302.217 58.6665 301.51 59.8232C300.803 60.9155 300.192 61.9755 299.678 63.0035C299.099 64.096 298.586 65.382 298.136 66.8601C297.75 68.2738 297.525 69.7202 297.461 71.1983C297.461 72.6119 297.686 73.9935 298.136 75.343C298.65 76.6282 299.549 77.7528 300.835 78.7168C301.799 79.4236 302.827 79.9708 303.919 80.3564C305.076 80.6777 306.202 80.7416 307.294 80.5488C309.415 80.2917 311.632 79.7131 313.945 78.8135C316.258 77.8495 318.54 76.66 320.789 75.2462C323.039 73.7681 325.16 72.065 327.152 70.1371C329.208 68.2092 331.008 66.0564 332.55 63.6787C333.321 62.5222 334.414 61.8156 335.827 61.5585C337.241 61.2372 338.527 61.4615 339.684 62.2326C340.905 63.068 341.644 64.1928 341.901 65.6064C342.222 66.9559 341.965 68.242 341.13 69.463C339.331 72.0978 337.145 74.7327 334.575 77.3675C332.004 79.938 329.177 82.2521 326.092 84.3086C323.072 86.3008 319.857 87.9074 316.451 89.1285C313.11 90.4136 309.703 91.0562 306.233 91.0562C303.984 91.0562 301.798 90.703 299.678 89.9961C297.557 89.3535 295.63 88.3567 293.895 87.0072C292.159 85.6577 290.713 83.987 289.556 81.9949C289.102 81.188 288.714 80.3308 288.389 79.4249C286.869 80.9812 285.29 82.385 283.652 83.6334C280.953 85.6899 278.157 87.2965 275.265 88.4533C272.437 89.61 269.706 90.1885 267.071 90.1886C265.593 90.1886 264.372 89.8993 263.408 89.3209C262.38 88.8069 261.544 88.2607 260.902 87.6824C259.541 86.2636 258.671 84.4528 258.288 82.2511C257.102 83.2665 255.902 84.2109 254.686 85.0795C252.886 86.3005 251.086 87.2961 249.286 88.0673C247.551 88.8384 245.945 89.2241 244.467 89.2242C242.41 89.2241 240.579 88.678 238.973 87.5856C237.43 86.4932 236.113 85.0153 235.02 83.1517C234.663 81.9671 234.387 80.7857 234.193 79.6089C232.285 81.3009 230.252 82.8686 228.092 84.3086C225.072 86.3007 221.858 87.9075 218.452 89.1285C215.111 90.4137 211.704 91.0562 208.234 91.0562C205.985 91.0562 203.799 90.7029 201.679 89.9961C199.558 89.3535 197.63 88.3568 195.895 87.0072C194.159 85.6577 192.713 83.9871 191.556 81.9949C191.129 81.2356 190.759 80.4323 190.446 79.5855C188.969 80.9618 187.424 82.2488 185.809 83.441C183.175 85.433 180.476 87.0399 177.712 88.2608C174.949 89.4819 172.313 90.0918 169.807 90.0918C167.301 90.0917 164.987 89.3853 162.867 87.9716C160.746 86.6221 159.332 84.6296 158.625 81.9949C157.726 82.766 156.729 83.5375 155.636 84.3086C154.544 85.0154 153.387 85.658 152.166 86.2363C151.009 86.8146 149.788 87.2318 148.503 87.4889C147.218 87.7459 145.965 87.7458 144.744 87.4889C142.109 87.039 140.084 86.0434 138.671 84.5011C137.831 83.5849 137.173 82.5664 136.696 81.4462C138.457 79.3196 140.071 77.0631 141.512 74.6752C144.122 70.3476 146.161 65.5863 147.46 60.374L147.461 60.3772C147.604 59.801 147.741 59.2196 147.866 58.6323C147.922 58.3198 147.972 58.0053 148.016 57.6913C148.29 55.8206 148.309 53.8945 148.086 51.99C151.163 49.947 154.515 48.5088 158.143 47.6762C162.063 46.7766 166.048 46.8731 170.096 47.9654C170.803 47.3871 171.639 46.9049 172.603 46.5194C173.631 46.134 174.788 45.941 176.073 45.9409C177.872 45.941 179.351 46.4555 180.508 47.4838C181.729 48.4477 182.339 49.6688 182.339 51.1468C182.339 52.3035 181.985 53.686 181.279 55.2925C180.572 56.8347 179.704 58.5057 178.676 60.3049C177.648 62.1042 176.555 63.9364 175.399 65.8C174.306 67.6635 173.309 69.4632 172.41 71.1983C171.574 72.8689 170.964 74.4435 170.579 75.9214C170.193 77.3352 170.225 78.4923 170.674 79.392C171.767 79.3919 173.182 79.0062 174.917 78.2351C176.652 77.3997 178.419 76.275 180.219 74.8613C182.082 73.4475 183.818 71.7758 185.424 69.8479C187.095 67.9201 188.38 65.831 189.28 63.5819C189.66 62.5854 190.32 61.8869 191.261 61.4862C192.023 59.2758 192.989 57.1464 194.159 55.099C196.023 51.9502 198.305 49.2188 201.004 46.9053C203.703 44.5919 206.756 43.1455 210.162 42.5671C211.961 42.3101 213.728 42.4715 215.463 43.0499C217.263 43.564 218.838 44.4307 220.187 45.6517C221.537 46.8727 222.565 48.3832 223.272 50.1824C223.979 51.9174 224.204 53.8137 223.947 55.8699C223.562 58.826 222.565 61.4294 220.958 63.6787C219.352 65.8637 217.713 67.7921 216.042 69.463C215.014 70.491 213.792 71.0047 212.379 71.0047C210.965 71.0047 209.744 70.4911 208.716 69.463C207.688 68.4348 207.173 67.2136 207.173 65.8C207.173 64.3862 207.687 63.1641 208.716 62.1359C208.844 62.0071 209.102 61.6859 209.487 61.1725C209.936 60.5943 210.419 59.9515 210.933 59.2448C211.511 58.4737 212.026 57.6697 212.475 56.8343C212.925 55.9991 213.246 55.2599 213.439 54.6174C213.696 53.9748 213.696 53.4926 213.439 53.1713C213.246 52.7859 212.732 52.6569 211.897 52.7853C210.74 52.9781 209.647 53.4289 208.619 54.1357C207.655 54.8425 206.723 55.6781 205.824 56.6419C204.988 57.6057 204.217 58.6666 203.51 59.8232C202.803 60.9153 202.193 61.9756 201.679 63.0035C201.1 64.096 200.586 65.382 200.136 66.8601C199.75 68.2738 199.526 69.7203 199.462 71.1983C199.462 72.6119 199.686 73.9936 200.136 75.343C200.65 76.6283 201.55 77.7528 202.836 78.7168C203.8 79.4236 204.828 79.9708 205.92 80.3564C207.077 80.6776 208.202 80.7416 209.294 80.5488C211.415 80.2917 213.633 79.7132 215.946 78.8135C218.259 77.8496 220.541 76.6599 222.79 75.2462C225.039 73.7682 227.16 72.0649 229.152 70.1371C231.208 68.2092 233.008 66.0564 234.55 63.6787C234.924 63.1178 235.375 62.6628 235.9 62.3134C236.687 59.3083 237.582 56.3569 238.587 53.4605C239.679 50.2474 240.514 47.0339 241.093 43.8207C240.45 43.885 239.775 43.9489 239.068 44.0132C238.426 44.0774 237.783 44.11 237.141 44.11C235.663 44.1099 234.441 43.6278 233.478 42.6639C232.449 41.6356 231.935 40.3822 231.935 38.9041C231.935 37.4261 232.449 36.205 233.478 35.2411C234.441 34.213 235.663 33.6983 237.141 33.6982C238.426 33.6982 239.743 33.6343 241.093 33.5058C242.442 33.313 243.76 33.0876 245.045 32.8306C245.752 31.2885 246.33 30.0033 246.78 28.9751C247.294 27.8827 247.713 26.8544 248.034 25.8905C248.484 24.4768 249.352 23.4486 250.637 22.8059ZM163.445 57.2203C162.353 57.156 161.067 57.3803 159.589 57.8944C158.175 58.4085 157.019 59.0522 156.119 59.8232C153.934 61.6226 152.07 64.0007 150.527 66.9568C148.985 69.8485 148.117 72.9009 147.924 76.1138C149.659 75.5997 151.331 74.668 152.938 73.3185C154.544 71.9047 156.022 70.2979 157.372 68.4986C158.785 66.6349 160.039 64.739 161.131 62.8111C162.224 60.8189 163.123 58.9868 163.83 57.316C163.766 57.2521 163.637 57.2203 163.445 57.2203Z" fill="#F4F4F4"/>
<path d="M276.326 27.4323C277.482 27.1112 278.768 27.176 280.181 27.6258L280.663 27.915C281.948 28.5577 282.72 29.5219 282.977 30.8072C283.298 32.0922 283.298 33.4416 282.977 34.8551C282.591 36.7187 281.659 38.1651 280.181 39.1933C278.768 40.2215 277.321 40.7361 275.843 40.7361C274.365 40.7361 273.113 40.2537 272.084 39.2901C271.12 38.2618 270.638 37.0084 270.638 35.5303C270.638 34.2451 270.863 33.0239 271.312 31.8673C271.827 30.7106 272.502 29.7463 273.337 28.9751C274.172 28.204 275.169 27.6893 276.326 27.4323Z" fill="#F4F4F4"/>
<path d="M113.117 1.08085C113.671 -0.360236 115.71 -0.360328 116.264 1.08085L118.526 6.95764C118.702 7.4168 119.07 7.77619 119.534 7.94118L125.455 10.0486C126.949 10.5807 126.949 12.6947 125.455 13.2268L119.534 15.3342C119.07 15.4992 118.702 15.8587 118.526 16.3178L116.264 22.1945C115.71 23.6358 113.671 23.6358 113.117 22.1945L110.856 16.3178C110.679 15.8587 110.31 15.4992 109.847 15.3342L103.926 13.2268C102.431 12.6947 102.431 10.5806 103.926 10.0486L109.847 7.94118C110.31 7.77616 110.679 7.41673 110.856 6.95764L113.117 1.08085Z" fill="#F4F4F4"/>
</svg>
