<svg width="350" height="127" viewBox="0 0 350 127" fill="none" xmlns="http://www.w3.org/2000/svg">
<path fill-rule="evenodd" clip-rule="evenodd" d="M93.2729 3.83367C93.9166 3.83367 94.5604 3.88727 95.1504 3.88727C108.4 4.58466 114.515 14.4549 113.925 24.2178C113.442 31.6204 109.151 38.9696 101.319 42.4027C96.1696 44.602 89.3569 45.1921 82.0616 44.8166C76 44.4947 69.6165 43.4755 63.5549 42.1881L63.3403 42.1345C62.7503 42.1345 62.2139 42.4563 61.892 42.9927C60.3901 45.4602 59.5852 48.0353 59.4243 50.3419C59.2098 54.204 60.712 57.3152 63.5013 58.0126C64.0913 58.1735 64.7887 58.2808 65.486 58.2808C72.835 58.71 83.8854 53.0239 90.9126 46.4259C91.7172 45.6749 92.6827 45.353 93.7555 45.4602C97.6178 45.6212 102.338 50.6637 102.07 54.6333C102.016 55.9206 101.373 57.1544 99.9782 58.0126C91.6101 63.2697 88.9278 85.6923 77.9848 98.6737C75.8174 101.244 73.2244 103.526 70.3268 105.372C89.1875 127.869 122.883 124.33 146.765 113.903C156.632 109.604 165.738 103.89 173.542 96.9624C182.94 88.5416 191.059 78.6869 194.835 66.7574C196.509 61.3577 197.158 55.4813 196.199 49.3788L196.18 49.3242C195.427 45.8701 193.495 42.6387 190.987 39.7877C179.782 49.401 170.666 69.2835 170.411 75.8756C170.357 76.9484 170.518 77.6457 171.001 77.9139C171.216 78.0748 171.537 78.1285 171.806 78.1286C175.024 78.1284 180.764 69.8676 185.323 63.8061C185.592 63.4306 186.021 63.2161 186.503 63.2161C187.684 63.2161 189.186 64.3424 189.132 65.5762C189.132 65.898 189.025 66.1664 188.81 66.4882C182.641 75.661 176.204 88.1597 168.855 93.7385C166.817 95.2941 164.349 95.9916 161.935 95.9916C156.41 95.9916 150.992 92.1292 151.207 85.5849L151.26 85.1557C151.265 85.0996 151.27 85.0434 151.274 84.9871C146.629 91.0519 141.252 96.0988 135.758 96.0988C134.631 96.0988 133.558 95.8843 132.432 95.4552C128.355 93.8459 127.068 90.7346 127.068 87.3552C127.068 83.3857 128.838 79.0942 129.964 76.4657C130.018 76.3584 130.072 76.2511 130.072 76.0903C130.072 75.5002 129.267 74.91 128.516 74.91C128.141 74.91 127.819 75.071 127.604 75.4464C123.849 82.1518 118.324 95.4552 108.185 95.4552C106.737 95.4552 105.181 95.187 103.519 94.5969C98.4226 92.7194 96.3305 88.3742 96.3305 83.01C96.3305 69.1166 110.599 48.4108 124.922 46.3723C125.405 46.3186 125.888 46.2649 126.424 46.2649C131.091 46.2649 135.221 49.5372 135.221 54.6333C135.221 54.9551 135.221 55.3307 135.168 55.7061V55.8133C135.168 56.296 135.704 56.5643 136.241 56.5643C136.67 56.5643 137.045 56.4569 137.206 56.1351C138.011 54.5795 138.655 50.7709 140.264 48.8398C141.444 47.4451 143 46.9087 144.77 46.9087C149.651 46.9087 155.659 51.4682 155.659 55.3305C155.659 56.1351 155.337 56.9935 154.694 57.6908C151.046 61.6604 144.341 72.0669 144.341 76.5729C144.341 77.3775 144.555 77.9677 145.038 78.3432C145.413 78.6113 145.789 78.7186 146.218 78.7186C148.872 78.7186 152.551 73.8461 155.844 68.983C157.458 65.0484 159.364 60.9008 161.345 56.6179C166.119 46.1678 171.41 35.3039 175.393 28.8079C175.029 28.6454 174.663 28.4866 174.296 28.3313C174.413 28.3809 174.531 28.4309 174.648 28.4809C174.898 28.5881 175.147 28.6968 175.394 28.8061C176.379 27.2002 177.284 25.861 178.082 24.8615C179.959 22.5549 182.32 21.5893 184.68 21.5893C186.239 21.5893 187.818 21.9892 189.287 22.6803V22.6643C190.038 23.0177 190.76 23.4472 191.436 23.9383H191.413C194.293 26.0219 196.34 29.2234 196.213 32.4252C196.159 34.5172 195.086 36.6629 192.672 38.4331C192.286 38.7223 191.902 39.0248 191.52 39.3394C194.532 42.3345 196.691 45.5341 197.789 48.7822C207.493 74.5541 185.726 106.571 149.172 120.295C116.42 132.59 82.9099 126.029 69.3115 105.995C64.324 108.928 58.5133 110.583 52.4508 110.26C51.8608 110.207 51.217 110.153 50.5733 110.099C39.0939 108.758 30.2429 99.4246 30.9938 87.677C31.0474 86.8724 31.1011 86.0139 31.262 85.1557C32.4958 78.5577 36.841 73.6226 42.1515 71.6915C42.366 71.6378 42.527 71.6379 42.7415 71.6379C43.0634 71.6379 43.439 71.7989 43.7072 72.0671C44.029 72.3889 44.1898 72.7644 44.1362 73.1935C44.1362 73.3544 44.0826 73.5155 44.029 73.6763C43.8144 74.4273 43.6534 75.1784 43.5998 75.8756C43.278 81.0789 48.0523 85.424 54.7039 85.7995C62.2675 86.175 72.3522 81.4007 80.2913 66.7564C80.3986 66.5419 80.4523 66.3271 80.4523 66.1126C80.5059 65.6835 80.2913 65.2008 79.9159 64.8789C79.7013 64.6644 79.3795 64.5571 79.0576 64.5571C78.6822 64.5035 78.3066 64.6108 78.0384 64.8253C71.2259 70.8868 63.8767 73.3008 57.3324 72.9253C53.6311 72.7644 50.1443 71.6378 47.1939 69.8676C41.347 66.2735 37.8602 58.4954 38.3965 50.1272C38.5575 47.2306 39.2011 44.2801 40.3812 41.437C40.4885 41.2761 40.4886 41.0615 40.5422 40.9006C40.5422 40.5788 40.4885 40.3106 40.3276 40.0424C40.0058 39.6132 39.6303 39.3986 39.2012 39.3449H38.7897C28.2308 39.3936 23.1054 45.881 22.7328 51.6291C22.5719 54.3648 23.484 56.9934 25.4687 58.6026C25.7906 58.9245 26.0051 59.3001 26.0051 59.7829C26.0051 60.212 25.8442 60.5875 25.4687 60.9093C23.0012 63.2159 19.0851 64.2889 15.1692 64.0743C11.5216 63.9133 7.82018 62.5723 5.24537 60.0511C1.22221 56.1352 -0.279701 51.1463 0.0421263 46.2113C0.417627 39.9352 3.7435 33.7663 8.67853 30.0113C13.9355 25.9881 20.8018 23.3596 30.7256 23.896C35.6607 24.1642 41.347 25.1834 47.945 27.2218C48.1058 27.329 48.2667 27.3292 48.4276 27.3292C48.8567 27.3828 49.2322 27.2217 49.5005 26.9536C62.9111 10.8072 79.8086 4.04827 93.2729 3.83367ZM126.692 55.1159C122.347 55.1162 112.906 68.5803 112.906 74.0518C112.906 75.0173 113.228 75.7684 113.979 76.0903C114.193 76.1975 114.408 76.251 114.676 76.2511C119.182 76.2511 128.248 61.124 128.248 56.6716C128.248 56.1888 128.141 55.8669 127.926 55.6523C127.604 55.2768 127.175 55.1159 126.692 55.1159ZM98.9054 14.884C93.5411 14.6158 81.1496 19.2291 71.9231 29.4211C71.7086 29.6893 71.5475 30.0113 71.4939 30.3867C71.4939 30.5476 71.5477 30.7622 71.6013 30.9767C71.8159 31.5131 72.2987 31.8887 72.8887 31.996C73.747 32.0496 74.5517 32.157 75.3563 32.2106C92.2535 33.0689 101.587 23.0376 101.909 17.8879C101.963 16.8151 101.641 15.9568 100.944 15.474C100.515 15.0986 99.8172 14.9376 98.9054 14.884Z" fill="#F4F4F4"/>
<path fill-rule="evenodd" clip-rule="evenodd" d="M295.495 45.6212C299.089 45.6213 303.058 48.8934 303.38 53.3994C303.38 54.7404 302.897 56.0815 301.717 57.3152C296.46 61.553 283.05 68.4193 283.05 75.1782C283.05 75.6073 283.103 76.0902 283.211 76.5193C283.586 77.9139 284.766 78.7722 285.893 78.8796C291.069 79.4969 297.758 71.5799 300.714 67.1872C305.068 58.3032 311.288 50.3618 313.733 47.7131C315.021 46.3185 316.576 45.7285 318.132 45.7284C322.101 45.7284 326.178 49.4834 326.178 53.0238C326.178 54.1502 325.749 55.1696 324.891 56.1351C320.546 60.8021 312.446 70.7258 312.446 75.0172C312.446 75.6072 312.607 76.0902 312.982 76.4657C313.411 76.8411 313.841 77.0556 314.27 77.0557C319.312 77.0556 327.788 56.1351 336.639 47.6595C337.658 46.694 338.999 46.2649 340.34 46.2649C344.685 46.2649 349.727 50.3953 349.727 54.6867C349.727 55.8131 349.406 56.9934 348.547 58.0662C336.21 76.251 337.711 96.2597 328.378 109.563C323.818 116.054 317.595 120.023 310.139 120.023C308.745 120.023 307.296 119.862 305.848 119.594C299.089 118.253 292.545 111.333 292.544 103.77C292.544 102.751 292.652 101.731 292.92 100.712C293.51 98.4055 295.066 97.3863 296.675 97.3863C297.801 97.3863 299.035 97.9227 299.893 98.9955C301.985 101.517 304.131 102.482 306.277 102.482H306.438C314.484 102.214 323.443 88.2133 328.86 75.9829C328.968 75.7147 329.021 75.4464 329.021 75.2318C329.021 74.5881 328.539 74.159 327.949 74.159C327.573 74.159 327.144 74.3737 326.876 74.8028C321.619 82.7418 318.829 88.2133 314.162 91.0564C312.499 92.0755 310.622 92.5048 308.691 92.5048C303.415 92.5048 298.013 88.9667 296.85 82.8613C294.322 86.4955 291.45 90.0978 288.414 92.9339C285.41 95.7232 281.869 97.118 278.758 97.118C274.145 97.118 270.39 94.0602 270.39 87.7842C270.39 87.3015 270.39 86.8187 270.444 86.3359V86.0677C270.444 85.1558 269.961 84.6193 269.317 84.6193C268.781 84.6193 268.137 84.8876 267.762 85.6921C266.85 87.7842 265.079 92.3976 263.631 95.5088C262.88 97.0643 261.378 97.7081 259.715 97.7081C256.068 97.2252 252.044 94.5967 252.044 91.5928C252.044 90.8955 252.205 90.2518 252.634 89.5545C257.033 82.581 266.903 75.7146 267.923 70.9404C268.083 70.1358 268.191 69.4384 268.191 68.7947C268.191 67.0782 267.601 66.0054 266.581 66.0054C265.562 66.0055 264.06 67.132 262.29 69.9212C262.233 70.0119 262.167 70.0906 262.092 70.1583C256.583 79.2874 246.945 96.0988 236.917 96.0988C235.791 96.0988 234.718 95.8843 233.591 95.4552C229.515 93.8459 228.227 90.7344 228.227 87.355C228.227 83.3855 229.997 79.0942 231.124 76.4657C231.177 76.3584 231.231 76.2509 231.231 76.0901C231.231 75.5 230.426 74.91 229.675 74.91C229.3 74.9101 228.978 75.071 228.764 75.4464C225.009 82.1518 219.483 95.4552 209.345 95.4552C207.897 95.4551 206.341 95.1868 204.678 94.5967C201.549 93.4437 199.552 91.36 198.477 88.6813C201.832 82.955 204.358 76.6092 205.785 69.6255C205.85 69.2531 205.907 68.8796 205.956 68.5056C206.303 66.021 206.276 63.4617 205.895 60.953C211.305 53.4542 218.686 47.4247 226.081 46.3721C226.564 46.3184 227.047 46.2649 227.583 46.2649C232.25 46.2649 236.381 49.537 236.381 54.6331C236.381 54.9549 236.381 55.3305 236.327 55.7059V55.8133C236.327 56.2959 236.864 56.5641 237.4 56.5641C237.829 56.5641 238.205 56.4569 238.366 56.1351C239.17 54.5795 239.814 50.771 241.423 48.8398C242.603 47.4451 244.159 46.9085 245.929 46.9085C250.811 46.9085 256.818 51.4682 256.818 55.3305C256.818 56.1351 256.497 56.9935 255.853 57.6908C252.205 61.6605 245.5 72.067 245.5 76.5729C245.5 77.3774 245.715 77.9677 246.197 78.3432C246.573 78.6113 246.948 78.7186 247.377 78.7186C250.81 78.7186 255.96 70.5649 259.769 64.8251C259.819 64.7365 259.882 64.6598 259.955 64.5944C262.208 60.3528 264.322 55.3766 266.152 50.9317C267.708 47.1769 270.98 45.6213 274.252 45.6212C278.544 45.6212 282.781 48.3569 282.781 52.4874C282.781 52.8092 282.728 53.1848 282.674 53.5066C282.46 55.0623 280.85 58.9245 280.689 60.8019V61.0166C280.689 61.6065 281.119 61.9821 281.655 61.9822C281.923 61.9822 282.191 61.8747 282.46 61.6066C285.303 59.1927 288.253 51.8974 291.042 48.0887C292.276 46.3186 293.886 45.6213 295.495 45.6212ZM227.851 55.1159C223.506 55.1164 214.065 68.5803 214.065 74.0518C214.065 75.0172 214.387 75.7682 215.138 76.0901C215.353 76.1973 215.568 76.251 215.836 76.2511C220.342 76.2509 229.407 61.124 229.407 56.6716C229.407 56.1888 229.3 55.8669 229.085 55.6523C228.763 55.2768 228.334 55.1159 227.851 55.1159Z" fill="#F4F4F4"/>
<path d="M164.738 1.34124C165.4 -0.447086 167.929 -0.447076 168.591 1.34124L171.156 8.27352C171.364 8.83577 171.808 9.27901 172.37 9.48706L179.302 12.0522C181.09 12.714 181.09 15.2432 179.302 15.905L172.37 18.4704C171.808 18.6784 171.364 19.1217 171.156 19.6839L168.591 26.6162C167.929 28.4044 165.4 28.4045 164.738 26.6162L162.173 19.6839C161.965 19.1217 161.522 18.6784 160.96 18.4704L154.027 15.905C152.239 15.2433 152.239 12.714 154.027 12.0522L160.96 9.48706C161.522 9.279 161.965 8.83574 162.173 8.27352L164.738 1.34124Z" fill="#F4F4F4"/>
<path d="M195.199 9.32844H202.266V0.49476H208.178V23.9383H202.266V14.6628H195.199V22.6691C195.128 22.6016 195.058 22.5346 194.986 22.4687C193.392 20.9908 191.43 19.7561 189.287 18.9962V0.49476H195.199V9.32844Z" fill="#F4F4F4"/>
<path fill-rule="evenodd" clip-rule="evenodd" d="M232.807 22.8509L232.094 23.9383H227.133L225.978 19.759H217.552L216.397 23.9383H211.436L210.723 22.8509L217.348 0.49476H226.182L232.807 22.8509ZM219.115 14.4249H224.415L221.969 5.82892H221.561L219.115 14.4249Z" fill="#F4F4F4"/>
<path d="M252.432 2.53326V5.82892H241.287C241.038 5.82895 240.914 5.95362 240.914 6.20275V18.2303C240.914 18.4793 241.038 18.6039 241.287 18.6039H252.432V21.8996L249.781 23.9383H240.982C236.995 23.9382 235.002 21.9448 235.002 17.9585V6.47455C235.002 2.48807 236.995 0.494804 240.982 0.49476H249.781L252.432 2.53326Z" fill="#F4F4F4"/>
<path d="M262.008 8.37714L269.075 0.49476H274.647L275.191 1.64991L267.58 10.1438L276.074 22.7829L275.53 23.9383H270.094L263.775 14.4249L262.008 16.2595V23.9383H256.096V0.49476H262.008V8.37714Z" fill="#F4F4F4"/>
<path d="M304.124 5.82892H297.329V23.9383H291.417V5.82892H284.622V0.49476H304.124V5.82892Z" fill="#F4F4F4"/>
<path d="M312.825 9.32844H319.892V0.49476H325.804V23.9383H319.892V14.6628H312.825V23.9383H306.913V0.49476H312.825V9.32844Z" fill="#F4F4F4"/>
<path d="M346.832 5.82892H336.333V9.32844H345.813V14.6628H336.333V18.6039H346.832V23.9383H330.421V0.49476H346.832V5.82892Z" fill="#F4F4F4"/>
</svg>
