<svg width="145" height="135" viewBox="0 0 145 135" fill="none" xmlns="http://www.w3.org/2000/svg">
<path d="M25.5848 60.1542C24.9645 60.1645 24.3443 60.1748 23.724 60.1851C23.5303 54.2877 24.1308 48.3296 25.8516 42.6007C28.1312 35.4036 32.4708 26.5087 41.8944 25.6265C48.4016 25.3396 53.3604 30.1071 56.4202 34.7425C57.0063 35.6365 58.1779 36.048 59.0633 35.7251C61.3255 34.9889 63.6191 34.349 65.9353 33.8046C68.4289 33.2185 70.9505 32.7433 73.4906 32.3843C74.1654 32.2894 74.793 31.7779 75.0533 31.0961C77.5911 24.9209 82.1792 17.5612 90.6691 16.9544C101.909 17.1743 107.085 27.4897 110.02 35.5003C110.173 35.9409 110.523 36.3102 110.941 36.4823C121.6 40.9184 131.673 49.7736 134.31 61.9204C135.183 65.7773 135.29 69.7989 134.69 73.6765C129.907 98.1861 106.376 111.984 84.5352 116.844C59.8002 122.408 24.7157 116.761 17.1307 88.1666C16.2864 84.1595 16.3016 79.9948 17.0848 76.0201C18.0855 70.8997 20.2965 66.1232 23.1808 61.8981C23.5261 61.4001 23.7209 60.7938 23.724 60.1851C24.3443 60.1748 24.9645 60.1645 25.5848 60.1542C25.6165 61.1414 25.3394 62.1329 24.8065 62.9668C22.1865 67.1084 20.2685 71.6899 19.4966 76.4533C18.8909 80.1535 19.0016 83.9435 19.8739 87.5522C27.186 113.018 60.0635 118.127 83.551 112.45C104.268 107.676 125.915 93.9096 129.785 72.9243C130.295 69.6187 130.205 66.2498 129.479 63.0024C127.319 52.8629 118.81 45.0317 109.054 40.8527C107.402 40.1404 106.102 38.71 105.541 37.0166C103.095 29.5582 97.9116 21.2703 90.8375 21.3604C85.4889 21.4752 81.1598 27.0118 78.8173 32.6477C78.0207 34.5863 76.154 36.0857 74.0103 36.339C71.5836 36.6327 69.168 37.036 66.7731 37.5449C64.5479 38.0177 62.3415 38.5808 60.1623 39.2352C57.5925 40.0435 54.7618 38.82 53.4368 36.6701C50.7896 32.4078 46.7058 28.6262 42.0142 28.7595C35.1698 28.992 30.4743 36.5006 28.1856 43.3468C26.3849 48.7057 25.5987 54.4309 25.5848 60.1542ZM23.724 60.1851L25.5848 60.1542L23.724 60.1851V60.1851Z" fill="#F7F0FB"/>
<path d="M59.3301 59.4037C66.6313 59.4037 72.5507 65.3223 72.5508 72.6235C72.5508 79.9248 66.6314 85.8442 59.3301 85.8442C55.4973 85.8441 52.0464 84.2118 49.6318 81.6059C55.3061 81.4565 59.5845 77.5368 59.8711 72.0952C60.1306 67.1652 56.5521 62.6352 51.9258 61.6703C54.0382 60.2395 56.5865 59.4038 59.3301 59.4037Z" fill="#F7F0FB"/>
<path d="M51.1226 64.2801C51.2709 63.7963 51.9067 63.6873 52.2077 64.0941L52.8964 65.0251C52.9623 65.1141 53.0508 65.1837 53.1529 65.2267L54.3193 65.7177C54.7345 65.8925 54.8282 66.439 54.4949 66.7421L53.5585 67.5935C53.4766 67.668 53.4163 67.7632 53.3838 67.869L53.0444 68.9762C52.8961 69.46 52.2603 69.569 51.9594 69.1622L51.2706 68.2312C51.2048 68.1422 51.1162 68.0726 51.0142 68.0296L49.8477 67.5386C49.4325 67.3638 49.3389 66.8173 49.6721 66.5142L50.6085 65.6627C50.6904 65.5883 50.7508 65.4931 50.7832 65.3873L51.1226 64.2801Z" fill="#F7F0FB"/>
<path d="M100.577 53.0574C107.878 53.0574 113.797 58.9769 113.797 66.2781C113.797 73.5793 107.878 79.4979 100.577 79.4979C96.6108 79.4977 93.0534 77.7509 90.6304 74.9852C91.5009 75.1707 92.4153 75.2684 93.3589 75.2684C99.1999 75.2683 103.643 71.2988 103.935 65.7498C104.241 59.9327 99.2028 54.6735 93.4058 55.1697C95.4713 53.8335 97.9334 53.0575 100.577 53.0574Z" fill="#F7F0FB"/>
<path d="M96.1251 57.9355C96.2734 57.4517 96.9092 57.3427 97.2101 57.7495L97.8989 58.6805C97.9647 58.7695 98.0533 58.8391 98.1553 58.882L99.3218 59.3731C99.737 59.5479 99.8306 60.0944 99.4974 60.3975L98.561 61.2489C98.4791 61.3234 98.4187 61.4186 98.3863 61.5244L98.0469 62.6316C97.8986 63.1154 97.2628 63.2244 96.9618 62.8176L96.2731 61.8866C96.2072 61.7976 96.1187 61.728 96.0166 61.685L94.8501 61.1939C94.435 61.0192 94.3413 60.4727 94.6746 60.1696L95.611 59.3181C95.6929 59.2437 95.7532 59.1485 95.7857 59.0427L96.1251 57.9355Z" fill="#F7F0FB"/>
</svg>
