<svg width="51" height="46" viewBox="0 0 51 46" fill="none" xmlns="http://www.w3.org/2000/svg">
<path fill-rule="evenodd" clip-rule="evenodd" d="M39.4235 0.5C39.6955 0.5 39.9676 0.522685 40.217 0.522685C45.8173 0.817437 48.402 4.98925 48.1526 9.11572C47.9485 12.2446 46.1347 15.3508 42.8244 16.8019C40.6478 17.7315 37.7683 17.9808 34.6848 17.8221C32.1228 17.6861 29.4247 17.2553 26.8627 16.7112L26.772 16.6885C26.5226 16.6885 26.2958 16.8246 26.1598 17.0513C25.5249 18.0943 25.1848 19.1826 25.1168 20.1575C25.0261 21.7899 25.661 23.105 26.84 23.3997C27.0894 23.4677 27.3841 23.5131 27.6789 23.5131C30.7851 23.6945 35.4557 21.2911 38.4259 18.5023C38.766 18.1849 39.1741 18.0489 39.6275 18.0943C41.26 18.1623 43.2552 20.2935 43.1418 21.9713C43.1192 22.5155 42.8471 23.037 42.2576 23.3997C38.7206 25.6217 37.5869 35.099 32.9617 40.5859C30.3996 43.624 26.4318 45.7099 22.1693 45.4832C21.9199 45.4605 21.6478 45.4379 21.3758 45.4152C16.5238 44.8484 12.7828 40.9033 13.1002 35.9379C13.1228 35.5978 13.1455 35.235 13.2135 34.8723C13.735 32.0835 15.5715 29.9976 17.8161 29.1813C17.9068 29.1587 17.9748 29.1587 18.0655 29.1587C18.2015 29.1587 18.3603 29.2267 18.4736 29.34C18.6097 29.4761 18.6777 29.6348 18.655 29.8162C18.655 29.8842 18.6323 29.9522 18.6096 30.0202C18.519 30.3376 18.4509 30.6551 18.4283 30.9498C18.2922 33.1491 20.3102 34.9856 23.1216 35.1443C26.3185 35.303 30.581 33.2851 33.9366 27.0954C33.982 27.0047 34.0046 26.914 34.0046 26.8234C34.0273 26.642 33.9366 26.4379 33.7779 26.3019C33.6872 26.2112 33.5512 26.1658 33.4152 26.1658C33.2565 26.1432 33.0977 26.1885 32.9843 26.2792C30.1049 28.8412 26.9987 29.8615 24.2326 29.7028C22.6681 29.6348 21.1944 29.1587 19.9474 28.4105C17.476 26.8914 16.0023 23.6038 16.229 20.0668C16.2971 18.8425 16.5691 17.5955 17.0679 16.3938C17.1133 16.3258 17.1133 16.2351 17.1359 16.167C17.1359 16.031 17.1133 15.9176 17.0452 15.8043C16.9092 15.6229 16.7505 15.5322 16.5691 15.5095H16.5011C11.9665 15.4869 9.7672 18.2529 9.60848 20.7016C9.54047 21.8579 9.92592 22.9689 10.7648 23.6491C10.9009 23.7852 10.9916 23.9439 10.9916 24.1479C10.9916 24.3293 10.9235 24.488 10.7648 24.6241C9.72186 25.599 8.06673 26.0525 6.41161 25.9618C4.86985 25.8938 3.3054 25.3269 2.2171 24.2613C0.516622 22.6062 -0.118231 20.4976 0.0178073 18.4116C0.176522 15.7589 1.58227 13.1515 3.66818 11.5644C5.89013 9.86393 8.79229 8.75299 12.9868 8.97971C15.0727 9.09308 17.476 9.52386 20.2648 10.3854C20.3328 10.4308 20.4008 10.4308 20.4689 10.4308C20.6502 10.4534 20.8089 10.3854 20.9223 10.2721C26.5906 3.44749 33.7325 0.590695 39.4235 0.5ZM41.8041 5.17065C39.5368 5.05728 34.2994 7.00715 30.3996 11.315C30.3089 11.4284 30.2409 11.5644 30.2182 11.7231C30.2182 11.7912 30.2409 11.8818 30.2636 11.9725C30.3543 12.1993 30.5583 12.358 30.8077 12.4033C31.1705 12.426 31.5106 12.4714 31.8507 12.494C38.9927 12.8568 42.9378 8.61691 43.0738 6.4403C43.0965 5.98685 42.9605 5.62408 42.6657 5.42003C42.4843 5.26132 42.1896 5.19332 41.8041 5.17065Z" fill="white"/>
<path d="M43.5289 34.4447C43.8023 33.7058 44.8473 33.7058 45.1207 34.4447L46.1805 37.3087C46.2665 37.541 46.4496 37.7242 46.6819 37.8102L49.546 38.87C50.2848 39.1434 50.2848 40.1884 49.546 40.4618L46.6819 41.5216C46.4496 41.6075 46.2665 41.7907 46.1805 42.023L45.1207 44.8871C44.8473 45.6259 43.8023 45.6259 43.5289 44.8871L42.4691 42.023C42.3831 41.7907 42.2 41.6075 41.9677 41.5216L39.1036 40.4618C38.3648 40.1884 38.3648 39.1434 39.1036 38.87L41.9677 37.8102C42.2 37.7242 42.3831 37.541 42.4691 37.3087L43.5289 34.4447Z" fill="white"/>
</svg>
