<svg width="182" height="203" viewBox="0 0 182 203" fill="none" xmlns="http://www.w3.org/2000/svg">
<circle cx="164.356" cy="170.491" r="16.2999" fill="#C4B8E9" stroke="#674DB3" stroke-width="1.4997"/>
<path d="M109.75 1.09363C117.199 -0.68261 123.493 4.71213 127.248 11.8837C131.02 19.0883 132.47 28.4766 130.037 35.4423L129.723 36.3436L128.922 35.8241L104.748 20.1698C103.376 19.4915 102.312 18.1045 101.644 16.4677C100.96 14.7939 100.65 12.7745 100.862 10.746C101.292 6.64932 103.865 2.49723 109.75 1.09363Z" fill="#C4B8E9" stroke="#674DB3" stroke-width="1.4997"/>
<path d="M47.4541 13.9979C53.0227 5.34779 59.654 2.86392 64.4375 4.8905C69.2193 6.91643 71.472 13.1625 68.8359 20.5214L68.7637 20.7225L68.5967 20.8553L46.7393 38.2343L46.3096 38.576L45.8535 38.2694C42.314 35.8824 38.5562 27.8198 47.4541 13.9979Z" fill="#C4B8E9" stroke="#674DB3" stroke-width="1.4997" stroke-linecap="round"/>
<path fill-rule="evenodd" clip-rule="evenodd" d="M35.5601 52.5253C41.8412 48.4616 48.564 10.8046 98.1412 16.7646C147.719 22.7247 153.378 82.6534 162.62 119.712C170.293 150.482 164.338 174.069 159.779 182.936L111.569 199.799C109.551 199.006 101.278 196.081 84.3297 190.72C67.3806 185.358 55.7929 191.512 52.1178 195.26C41.4103 177.829 15.8301 145.731 17.5719 145.008C20.8791 143.635 24.264 138.926 24.5689 138.392C-4.59008 111.406 -1.84525 89.7944 6.8453 83.0888C13.7978 77.7243 22.9504 80.8536 26.6578 83.0888C23.6866 79.4374 21.7749 74.6347 20.9508 71.9276C20.7455 71.2534 20.7667 70.5294 21.0279 69.8749C23.0939 64.7002 27.317 61.5728 29.2789 60.619C23.8054 56.4664 29.2791 56.589 35.5601 52.5253Z" fill="#C4B8E9"/>
<path fill-rule="evenodd" clip-rule="evenodd" d="M93.1506 33.7924C101.548 30.1937 112.119 36.0582 116.762 46.891C118.863 51.7941 119.39 56.8745 118.558 61.3012C114.157 60.3688 109.153 60.9393 104.482 63.2455C100.626 65.1488 97.5713 67.9502 95.5334 71.1537C91.7601 68.7026 88.4495 64.8212 86.3508 59.9242C81.7081 49.0913 84.7527 37.3915 93.1506 33.7924Z" fill="#343247"/>
<path fill-rule="evenodd" clip-rule="evenodd" d="M39.6152 51.6336C43.1488 41.5501 49.6575 34.6522 54.1523 36.2273C58.6472 37.8025 59.4261 47.2542 55.8926 57.3377C54.1714 62.2493 51.7418 66.4025 49.1855 69.1912C47.4797 65.8812 44.2491 63.0334 40.0488 61.5604C39.211 61.2665 38.3692 61.0389 37.5312 60.8758C37.7987 58.0177 38.4854 54.8578 39.6152 51.6336Z" fill="#343247"/>
<mask id="mask0_1290_9026" style="mask-type:alpha" maskUnits="userSpaceOnUse" x="0" y="16" width="167" height="184">
<path d="M21.0285 69.8743C23.0946 64.6993 27.3174 61.5718 29.2792 60.6183C23.8057 56.4656 29.2792 56.5884 35.5603 52.5247C41.8414 48.4609 48.5642 10.8037 98.1417 16.7639C147.719 22.724 153.378 82.6533 162.62 119.712C170.293 150.482 164.338 174.069 159.779 182.936L111.569 199.799C109.551 199.006 101.279 196.08 84.3296 190.719C67.3805 185.358 55.7929 191.512 52.1177 195.259C41.4102 177.828 14.8389 145.952 16.6453 145.41C21.8214 143.857 24.2644 138.926 24.5693 138.392C-4.58986 111.406 -1.84539 89.7936 6.84519 83.088C13.7977 77.7235 22.9506 80.8528 26.658 83.088C23.6867 79.4365 21.7754 74.6339 20.9513 71.9269C20.7461 71.2526 20.7671 70.5289 21.0285 69.8743Z" fill="#C4B8E9"/>
</mask>
<g mask="url(#mask0_1290_9026)">
<path d="M118.225 112.187C68.2182 130.9 36.0598 100.327 26.2315 82.7016C17.5252 72.8271 7.53742 77.4761 3.63184 81.0349C-13.7791 99.1507 10.0882 127.736 23.7455 139.485C26.3884 136.166 25.5189 136.903 27.2278 135.148C30.8449 137.358 36.2315 140.29 44.0727 142.852C56.2459 146.828 72.4248 150.059 78.9115 149.534C77.339 158.498 79.6539 163.1 83.6291 165.653C94.655 172.733 105.841 164.539 110.362 157.397C110.166 156.742 114.923 154.252 135.523 149.534C156.123 144.817 164.156 133.94 165.598 129.091C163.553 107.862 157.145 89.3194 154.197 82.7016C145.076 97.0117 126.415 108.321 118.225 112.187Z" fill="#343247"/>
<circle cx="8.62524" cy="92.733" r="23.5334" fill="#C4B8E9"/>
<circle cx="93.617" cy="167.432" r="21.3475" fill="#C4B8E9"/>
</g>
<path d="M29.0911 142.728C54.978 142.876 61.2002 162.388 59.5956 175.55C58.7142 182.78 56.2934 207.651 25.1968 199.935C-11.7979 190.756 -3.26755 142.542 29.0911 142.728Z" fill="#A895DE"/>
<path d="M79.0449 68.0449C71.8009 70.8511 62.6988 70.8515 56.9675 68.5037C56.1383 68.164 55.1418 68.9044 55.348 69.7764C58.3925 82.6514 63.6505 103.058 68.8527 103.058C73.9516 103.058 79.1865 85.3997 80.4706 69.063C80.5299 68.3081 79.751 67.7714 79.0449 68.0449Z" fill="#343247"/>
<mask id="mask1_1290_9026" style="mask-type:alpha" maskUnits="userSpaceOnUse" x="55" y="67" width="26" height="37">
<path d="M79.0412 68.0374C71.5685 70.8512 61.7664 70.3928 56.5318 69.4605C55.798 69.3298 55.1396 69.9833 55.3113 70.7087C58.3123 83.3881 63.541 103.059 68.8521 103.059C73.951 103.059 79.186 85.4001 80.47 69.0635C80.5293 68.3086 79.7498 67.7706 79.0412 68.0374Z" fill="#343247"/>
</mask>
<g mask="url(#mask1_1290_9026)">
<circle cx="73.574" cy="97.7113" r="15.336" transform="rotate(-0.892538 73.574 97.7113)" fill="#8065CF"/>
</g>
<path d="M97.8271 41.4672C99.5745 44.2091 102.89 45.5124 106.037 44.6947L114.402 42.5199C114.594 42.8076 114.781 43.1005 114.963 43.3988L107.778 48.4554C105.119 50.3266 103.969 53.6979 104.93 56.8041L106.634 62.3119C105.936 62.5737 105.243 62.8725 104.557 63.2084L101.491 58.3969C99.744 55.6546 96.4283 54.3506 93.2812 55.1683L85.3584 57.2269C85.2317 56.8188 85.1166 56.4103 85.0107 56.0023L91.54 51.4086C94.1992 49.5374 95.35 46.1652 94.3887 43.059L91.7402 34.5023C92.1403 34.2699 92.5555 34.0586 92.9844 33.8676L97.8271 41.4672Z" fill="white"/>
<path fill-rule="evenodd" clip-rule="evenodd" d="M52.4229 36.0196C52.6564 35.9998 52.8867 35.9977 53.1133 36.0138L50.5967 45.1202C49.7401 48.22 50.9559 51.5212 53.6182 53.3253L56.5469 55.3097C56.4331 55.6933 56.313 56.0784 56.1865 56.4649L52.3428 56.2911C49.2198 56.1493 46.3363 57.9605 45.1074 60.8351L43.9678 63.4991C43.5302 63.2097 43.0747 62.9366 42.6016 62.6827L43.3711 59.9024C44.1629 57.0375 43.1875 53.9752 40.8848 52.0958L39.7764 51.1905C39.9837 50.6184 40.1994 50.0566 40.4248 49.5069L41.7959 49.4923C44.7682 49.4599 47.441 47.6747 48.6094 44.9415L52.4229 36.0196Z" fill="white"/>
<path d="M51.4042 74.1311C40.0463 54.6708 52.5684 44.1654 59.5065 44.1654H65.1652L51.4042 74.1311Z" fill="#C4B8E9"/>
<path d="M73.9839 53.8024C70.1402 53.8399 66.2959 55.9347 64.7233 57.6335C64.6235 57.7413 64.4849 57.8061 64.3381 57.811C63.2615 57.847 63.107 57.989 57.6785 53.4462C54.0581 50.4164 60.0264 48.5367 64.0745 48.5367C74.4173 48.5368 75.5712 51.6815 74.757 53.3822C74.6198 53.6689 74.3018 53.7993 73.9839 53.8024Z" fill="#343247"/>
<ellipse cx="113.651" cy="77.9196" rx="14.9362" ry="9.54318" transform="rotate(-21.115 113.651 77.9196)" fill="#A895DE"/>
<ellipse cx="8.50338" cy="6.98609" rx="8.50338" ry="6.98609" transform="matrix(-0.932859 -0.360241 -0.360241 0.932859 47.8184 69.1946)" fill="#A895DE"/>
<mask id="mask2_1290_9026" style="mask-type:alpha" maskUnits="userSpaceOnUse" x="0" y="16" width="167" height="184">
<path d="M21.0285 69.8743C23.0946 64.6993 27.3174 61.5718 29.2792 60.6183C23.8057 56.4656 29.2792 56.5884 35.5603 52.5247C41.8414 48.4609 48.5642 10.8037 98.1417 16.7639C147.719 22.724 153.378 82.6533 162.62 119.712C170.293 150.482 164.338 174.069 159.779 182.936L111.569 199.799C109.551 199.006 101.279 196.08 84.3296 190.719C67.3805 185.358 55.7929 191.512 52.1177 195.259C41.4102 177.828 14.8389 145.952 16.6453 145.41C21.8214 143.857 24.2644 138.926 24.5693 138.392C-4.58986 111.406 -1.84539 89.7936 6.84519 83.088C13.7977 77.7235 22.9506 80.8528 26.658 83.088C23.6867 79.4365 21.7754 74.6339 20.9513 71.9269C20.7461 71.2526 20.7671 70.5289 21.0285 69.8743Z" fill="#C4B8E9"/>
</mask>
<g mask="url(#mask2_1290_9026)">
<path d="M118.225 112.187C68.2182 130.9 36.0598 100.327 26.2315 82.7016C17.5252 72.8271 7.53742 77.4761 3.63184 81.0349C-13.7791 99.1507 10.0882 127.736 23.7455 139.485C26.3884 136.166 25.5189 136.903 27.2278 135.148C30.8449 137.358 36.2315 140.29 44.0727 142.852C56.2459 146.828 72.4248 150.059 78.9115 149.534C77.339 158.498 79.6539 163.1 83.6291 165.653C94.655 172.733 105.841 164.539 110.362 157.397C110.166 156.742 114.923 154.252 135.523 149.534C156.123 144.817 164.156 133.94 165.598 129.091C163.553 107.862 157.145 89.3194 154.197 82.7016C145.076 97.0117 126.415 108.321 118.225 112.187Z" fill="#343247"/>
<circle cx="8.62524" cy="92.733" r="23.5334" fill="#C4B8E9"/>
<circle cx="93.617" cy="167.432" r="21.3475" fill="#C4B8E9"/>
</g>
<path d="M97.8271 41.4672C99.5745 44.2091 102.89 45.5124 106.037 44.6947L114.402 42.5199C114.594 42.8076 114.781 43.1005 114.963 43.3988L107.778 48.4554C105.119 50.3266 103.969 53.6979 104.93 56.8041L106.634 62.3119C105.936 62.5737 105.243 62.8725 104.557 63.2084L101.491 58.3969C99.744 55.6546 96.4283 54.3506 93.2812 55.1683L85.3584 57.2269C85.2317 56.8188 85.1166 56.4103 85.0107 56.0023L91.54 51.4086C94.1992 49.5374 95.35 46.1652 94.3887 43.059L91.7402 34.5023C92.1403 34.2699 92.5555 34.0586 92.9844 33.8676L97.8271 41.4672Z" fill="white"/>
<ellipse cx="113.651" cy="77.9196" rx="14.9362" ry="9.54318" transform="rotate(-21.115 113.651 77.9196)" fill="#A895DE"/>
<ellipse cx="8.50338" cy="6.98609" rx="8.50338" ry="6.98609" transform="matrix(-0.932859 -0.360241 -0.360241 0.932859 47.8184 69.1946)" fill="#A895DE"/>
<path d="M58.1576 25.5073C49.4406 30.8107 43.2228 40.9907 39.5043 46.9646C35.7858 52.9386 34.5667 53.1824 28.9585 55.9256C24.4719 58.1201 27.467 60.0183 29.5253 60.6931C27.0904 61.742 21.9057 65.2334 20.647 70.8076C19.0737 77.7754 39.5042 102.351 58.1578 111.87C75.0856 120.509 122.432 126.238 154.287 82.739" stroke="#674DB3" stroke-width="1.4997" stroke-linecap="round" stroke-linejoin="round"/>
<path d="M66.3682 20.746C73.8092 17.2094 92.0864 12.0375 105.667 19.6426" stroke="#674DB3" stroke-width="1.4997" stroke-linecap="round" stroke-linejoin="round"/>
<path d="M128.074 31.3553C135.731 37.5948 146.942 52.0083 158.908 99.6584C167.734 134.801 169.018 158.871 160.192 168.82" stroke="#674DB3" stroke-width="1.4997" stroke-linecap="round" stroke-linejoin="round"/>
<path d="M25.2855 82.1977C22.2298 80.5851 12.978 77.3597 4.74344 84.9824C-6.16086 95.0766 6.86685 123.194 24.5215 138.217" stroke="#674DB3" stroke-width="1.4997" stroke-linecap="round" stroke-linejoin="round"/>
<path d="M33.2946 123.488C31.4817 128.648 25.933 140.668 18.3467 145.243" stroke="#674DB3" stroke-width="1.4997" stroke-linecap="round" stroke-linejoin="round"/>
<path d="M93.0204 132.168C82.1751 140.264 65.4337 165.193 84.3137 176.161C91.8961 180.566 104.216 180.948 110.639 168.95" stroke="#674DB3" stroke-width="1.4997" stroke-linecap="round" stroke-linejoin="round"/>
<path d="M130.036 201.17C162.862 197.189 161.1 176.545 161.371 173.083C161.963 165.514 155.704 143.853 135.058 143.24C96.5942 142.097 95.1295 170.577 96.1969 179.909C96.9257 186.281 101.312 204.653 130.036 201.17Z" fill="#A895DE"/>
<path d="M161.363 167.352C162.464 176.239 163.386 196.103 132.014 200.802C126.826 201.667 112.56 201.71 96.997 194.966C77.543 186.536 61.8498 186.696 52.7713 195.613C42.618 205.585 10.0975 204.585 2.64514 181.672C-11.378 138.557 61.9446 122.883 59.9729 177.854" stroke="#674DB3" stroke-width="1.4997" stroke-linecap="round" stroke-linejoin="round"/>
<path d="M50.5869 197.356C52.3003 195.974 56.0079 192.401 57.3111 188.232" stroke="#674DB3" stroke-width="1.4997" stroke-linecap="round" stroke-linejoin="round"/>
<path d="M112.739 199.791C101.167 196.776 88.0384 179.175 101.264 157.587C115.256 134.747 156.772 137.898 161.404 167.692" stroke="#674DB3" stroke-width="1.4997" stroke-linecap="round" stroke-linejoin="round"/>
<path d="M27.8936 135.294C34.5613 139.947 53.8139 149.162 79.0266 149.277" stroke="#674DB3" stroke-width="1.4997" stroke-linecap="round" stroke-linejoin="round"/>
</svg>
