<svg width="109" height="135" viewBox="0 0 109 135" fill="none" xmlns="http://www.w3.org/2000/svg">
<path d="M30.0479 120.651C29.8903 121.372 30.0351 122.149 30.4246 122.802C30.8156 123.455 31.4194 123.931 32.1289 124.134C32.8384 124.336 33.6029 124.249 34.2795 123.9C34.9547 123.551 35.4871 122.967 35.7334 122.271C36.1761 121.012 36.6106 119.758 37.0599 118.554C39.7336 110.702 52.0701 106.163 56.4428 107.567C59.3739 107.354 60.5186 114.142 65.45 122.271C72.7469 134.779 95.4814 127.724 93.6817 111.319C93.4184 108.765 92.5495 106.444 91.455 104.509C90.4726 102.659 88.8136 101.325 86.7785 100.84C84.7472 100.353 82.5064 100.754 80.6135 101.917C78.7205 103.079 77.3487 104.896 76.8644 106.928C76.3764 108.962 76.8155 111.045 78.0209 112.758C78.3205 113.091 78.4547 113.291 78.5502 113.383C78.6732 113.505 78.8195 113.559 78.7507 113.915C78.6883 114.251 78.3372 114.736 77.9173 115.03C77.49 115.334 77.1109 115.46 76.8009 115.493C76.4914 115.522 76.0375 115.434 75.422 114.818C73.6926 112.935 72.1592 109.787 69.8989 106.192C67.9925 102.777 62.3104 99.2763 56.4429 99.6221C49.227 99.5089 44.7961 103.271 42.5108 107.545C40.0305 112.054 32.0138 112.203 30.9281 116.706C30.6146 118.028 30.3202 119.39 30.0479 120.651Z" fill="#F7F0FB"/>
<path d="M10.8781 100.633C4.87058 100.633 0.000133428 105.715 0.00013288 111.983C0.000168572 118.252 4.8706 123.334 10.8781 123.334C16.8854 123.334 21.755 118.252 21.755 111.983C21.755 105.715 16.8855 100.633 10.8781 100.633ZM7.24427 109.776C9.09595 109.777 10.089 112.524 10.089 114.341C10.0888 116.158 7.97803 115.721 6.12611 115.721C4.27406 115.721 3.07797 114.34 3.58607 113.066C4.19586 111.262 5.39239 109.776 7.24427 109.776ZM11.2462 107.569C12.0003 107.57 12.6122 109.067 12.6124 109.845C12.6124 110.623 12.0004 111.037 11.2462 111.037C10.4917 111.037 9.77457 110.189 9.77455 109.411C9.77482 108.633 10.4918 107.569 11.2462 107.569ZM3.41029 106.938C4.2485 106.939 5.04496 107.906 5.04506 108.613C5.04503 109.321 4.24854 110.092 3.41029 110.092C2.57205 110.092 1.89291 109.715 1.89271 109.008C1.89271 108.3 2.57193 106.939 3.41029 106.938ZM7.30677 105.993C8.08715 105.993 8.82912 106.961 8.82923 107.668C8.82921 108.375 8.0872 109.146 7.30677 109.146C6.52629 109.146 5.67594 108.277 5.67591 107.569C5.67613 106.862 6.52637 105.993 7.30677 105.993Z" fill="#F7F0FB"/>
<path fill-rule="evenodd" clip-rule="evenodd" d="M71.5181 80.1957C61.8845 76.367 42.3596 68.569 38.5054 69.8812C37.7186 70.1493 36.2682 71.277 34.398 73.0013C42.6953 73.8939 51.9226 75.5476 56.0972 77.7328C56.1669 77.707 56.2371 77.6829 56.3072 77.6596C57.5596 78.2586 58.7623 79.2516 58.5201 80.3597C59.1918 84.1955 60.5111 92.1015 60.4175 93.0424C60.2999 94.2169 58.8899 98.0918 53.4888 96.683C50.7648 93.583 49.8485 87.0935 49.731 84.2357C50.5341 82.7802 51.4031 81.5185 52.3257 80.4857C51.3609 81.541 50.4545 82.8459 49.6187 84.3607C49.7362 87.2183 50.6522 93.7089 53.3765 96.809C46.8397 93.9907 31.77 89.1997 23.7847 92.5814C23.7513 92.5243 23.7189 92.4633 23.6841 92.4027C22.8079 92.3978 21.5402 92.3275 20.2154 92.1478C19.7996 93.0858 19.1644 93.9105 18.315 94.5414C17.111 95.4356 15.6587 95.8037 14.1812 95.7015C11.206 99.5611 8.66494 103.188 7.07866 106.019C7.15404 106.004 7.22934 105.994 7.30425 105.994C8.08444 105.994 8.82643 106.961 8.82671 107.668C8.82618 108.375 8.0843 109.146 7.30425 109.147C6.79011 109.147 6.2468 108.768 5.93511 108.308C5.58153 109.146 5.3724 109.857 5.33452 110.415C5.86929 110.016 6.50245 109.777 7.24175 109.777C9.09316 109.778 10.0864 112.524 10.0865 114.341C10.086 115.581 9.10289 115.77 7.89018 115.766C18.1832 127.852 53.4311 129.535 57.6343 129.326C62.3339 129.091 76.8037 111.724 70.813 100.824C74.3372 92.9713 74.1023 81.5253 71.5181 80.1957ZM44.9859 121.127C47.1019 121.128 48.2376 124.164 48.2378 126.172C48.2373 128.18 45.8248 127.698 43.7085 127.698C41.5924 127.698 40.2246 126.173 40.8042 124.765C41.5011 122.771 42.8694 121.127 44.9859 121.127ZM50.1871 119.551C51.0251 119.552 51.7054 121.185 51.7056 122.034C51.7052 122.882 51.025 123.334 50.1871 123.334C49.3491 123.334 48.5529 122.409 48.5523 121.561C48.5525 120.712 49.3489 119.552 50.1871 119.551ZM41.3941 117.343C42.316 117.344 43.1927 118.505 43.1929 119.354C43.1922 120.202 42.3158 121.127 41.3941 121.127C40.4723 121.127 39.7246 120.675 39.7242 119.827C39.7244 118.978 40.4721 117.344 41.3941 117.343ZM46.2476 116.713C47.1058 116.714 47.9209 117.874 47.9214 118.723C47.921 119.572 47.1058 120.496 46.2476 120.496C45.3892 120.496 44.4542 119.454 44.4537 118.605C44.4542 117.756 45.3892 116.713 46.2476 116.713ZM11.2437 107.57C11.9975 107.571 12.6096 109.067 12.6099 109.845C12.6095 110.622 11.9975 111.037 11.2437 111.037C10.4894 111.037 9.77248 110.189 9.77202 109.412C9.77243 108.633 10.4894 107.57 11.2437 107.57ZM17.4468 91.5844C16.5294 92.7124 15.6324 93.8376 14.7681 94.9467C15.8743 94.9439 16.9542 94.6388 17.8775 93.9525C18.5889 93.4503 19.1203 92.7893 19.4888 92.0375C18.7912 91.9215 18.0948 91.7732 17.4468 91.5844Z" fill="#F7F0FB"/>
<path fill-rule="evenodd" clip-rule="evenodd" d="M46.2116 20.7056C43.1161 19.1803 36.2917 16.7402 33.7526 19.1802C30.579 22.2309 31.1658 28.6846 31.7536 31.3833C30.2899 37.5744 30.2897 38.3631 30.2897 44.0571C27.1552 51.3321 23.8726 68.2046 29.7028 71.396C30.563 71.8668 31.6321 72.3517 32.8678 72.8462C41.532 73.6932 51.6626 75.4124 56.0963 77.7329C56.1664 77.7069 56.2368 77.6822 56.3073 77.6587C57.2626 78.1156 58.1871 78.8026 58.4655 79.5942C63.332 80.4789 67.995 81.1222 71.7838 81.3696C84.3608 82.1908 87.0644 67.5242 88.2399 62.0093C90.8259 55.7906 94.9936 51.7522 94.0534 44.0552C96.1691 40.1441 99.6481 31.3599 96.6393 27.5112C92.8778 22.7005 90.8795 22.3485 81.5934 27.5112C77.2442 24.4605 64.0785 18.8282 46.2116 20.7056ZM46.7994 60.9321C48.0659 60.7398 50.9452 61.6532 52.2272 62.1343C54.149 63.6972 48.9505 64.0589 48.609 64.0591C48.2693 64.0586 45.2166 61.1728 46.7994 60.9321ZM65.0983 51.936C68.2178 52.2199 71.0542 55.0564 70.7711 57.6089C70.771 60.7417 68.231 62.7142 65.0983 62.7144C61.9654 62.7143 59.5822 60.5851 59.4254 57.6089C59.2612 54.4805 61.9785 51.6525 65.0983 51.936ZM39.319 48.6187C41.7606 48.8795 43.9804 51.4862 43.7594 53.8315C43.7593 56.7103 41.7712 58.5237 39.319 58.5239C36.8667 58.5238 35.0003 56.5665 34.8776 53.8315C34.7494 50.9571 36.8772 48.3583 39.319 48.6187ZM63.0241 53.231C62.9857 53.1075 62.8221 53.0794 62.7448 53.1831L62.1442 53.9956C62.1274 54.0181 62.1046 54.0364 62.0787 54.0474L61.1608 54.4341C61.0544 54.479 61.0307 54.6189 61.1158 54.6968L61.8522 55.3667C61.873 55.3857 61.8887 55.4111 61.8971 55.438L62.193 56.4038C62.2313 56.5276 62.3951 56.5548 62.4723 56.4507L63.0729 55.6392C63.0897 55.6167 63.1125 55.5984 63.1383 55.5874L64.0563 55.2007C64.1624 55.1557 64.1872 55.0158 64.1022 54.938L63.3649 54.2671C63.3441 54.2481 63.3282 54.2237 63.32 54.1968L63.0241 53.231ZM37.7174 49.8931C37.6811 49.7577 37.5047 49.7227 37.4323 49.8364L37.0084 50.5083C36.9941 50.531 36.9737 50.5501 36.9498 50.562L36.2438 50.9106C36.1514 50.9564 36.1329 51.0832 36.2067 51.1626L36.7731 51.7671C36.7922 51.7876 36.8069 51.8134 36.8141 51.8403L37.0231 52.6401C37.0589 52.7763 37.2347 52.8118 37.3073 52.6978L37.7311 52.0249C37.7455 52.0022 37.7667 51.983 37.7907 51.9712L38.4957 51.6226C38.5881 51.5766 38.607 51.4509 38.5328 51.3716L37.9664 50.7661C37.9474 50.7455 37.9325 50.7198 37.9254 50.6929L37.7174 49.8931ZM84.9088 30.48C83.3698 29.4221 88.5113 27.1189 90.2575 28.2095C93.4371 30.1963 92.7145 38.142 91.1246 38.1431C89.6792 37.0077 87.7996 32.4667 84.9088 30.48ZM34.1471 29.5962C33.4243 31.865 31.5458 13.7034 39.9293 25.1968C38.2429 25.9063 34.7256 27.78 34.1471 29.5962Z" fill="#F7F0FB"/>
<path fill-rule="evenodd" clip-rule="evenodd" d="M74.8707 1.54694C48.0777 -4.09982 22.2292 5.65215 16.2476 31.7979L15.9742 33.0342C12.1593 51.0399 16.1604 64.1083 28.022 72.4522C29.777 72.5636 31.676 72.7213 33.6383 72.9229C28.3429 70.1146 24.4034 66.6171 21.7135 62.4756C16.9453 55.1341 15.7676 45.2524 18.7164 32.3624C21.5707 19.8861 29.1858 11.4566 39.314 6.81744C49.5136 2.14581 62.3813 1.27709 75.5816 4.29694C88.5066 7.25385 97.0307 14.3962 101.684 23.8194C106.374 33.3171 107.248 45.3818 104.304 58.2491C102.873 64.5066 100.333 69.1451 97.0299 72.545C93.7232 75.9479 89.5311 78.2343 84.6099 79.5977C77.1912 81.653 68.2329 81.579 58.5504 80.1241C58.5473 80.2019 58.5374 80.2804 58.5201 80.3594C58.6399 81.0438 58.7779 81.8584 58.9273 82.7393C81.7679 86.0174 101.526 81.7526 106.774 58.8135C112.85 32.2528 103.39 8.06087 76.1461 1.82819L74.8707 1.54694ZM52.3336 80.4766C52.057 80.7786 51.7867 81.1023 51.5201 81.4444C51.525 81.4454 51.5299 81.4463 51.5347 81.4473C51.7968 81.1051 52.062 80.7802 52.3336 80.4766Z" fill="#F7F0FB"/>
<path d="M21.9438 71.3003C19.9356 71.0386 17.3249 71.5836 15.1992 72.4771C14.1156 72.9326 13.1106 73.4978 12.3441 74.1364C11.6004 74.7559 10.9631 75.5441 10.8609 76.4645C10.8276 76.7644 10.8527 77.0493 10.9283 77.3195C11.1337 79.2976 11.5039 82.0257 12.0278 84.5251C12.3218 85.9275 12.6681 87.2785 13.0679 88.3918C13.4522 89.4617 13.9356 90.462 14.5788 91.0087C15.6933 91.956 17.5464 92.4806 19.253 92.7816C21.0035 93.0903 22.7824 93.1927 23.8965 93.1927L24.0563 93.1927L24.2038 93.1305C27.9604 91.5394 33.5167 91.8425 39.0794 92.9657C44.5997 94.0805 49.949 95.9644 53.1763 97.3559L53.2314 97.3796L53.2896 97.3947C56.2033 98.1547 58.1915 97.5116 59.4621 96.3663C60.6795 95.2689 61.1273 93.8087 61.2011 93.0701C61.2216 92.8658 61.202 92.565 61.1747 92.2631C61.1449 91.935 61.0972 91.5228 61.0361 91.0518C60.9138 90.1084 60.7354 88.9043 60.5339 87.615C60.1402 85.0956 59.655 82.2321 59.3192 80.3102C59.4357 79.4737 59.0363 78.7561 58.5526 78.2328C58.0378 77.6758 57.3347 77.2273 56.6608 76.9035C54.9255 75.9777 52.3867 75.1674 49.4794 74.4711C46.5474 73.7688 43.1861 73.1701 39.7866 72.6883C33.0277 71.7304 26.0594 71.2268 21.9438 71.3003ZM58.0479 82.2106C58.342 83.9317 58.6844 85.991 58.9762 87.8582C59.177 89.1425 59.3528 90.3311 59.4726 91.2544C59.5325 91.7166 59.5776 92.1063 59.6047 92.4054C59.6182 92.5551 59.6269 92.6766 59.6308 92.7699C59.6328 92.8164 59.6335 92.8525 59.6333 92.8792C59.6332 92.8994 59.6326 92.91 59.6324 92.9131C59.5888 93.3489 59.2736 94.4138 58.4066 95.1953C57.6192 95.9051 56.2668 96.4799 53.9261 95.9284C52.7733 94.5165 51.9487 92.3626 51.3973 90.1284C50.9123 88.1632 50.6582 86.2171 50.5579 84.829C53.3707 84.2767 55.3642 83.6587 56.7233 83.0025C57.2333 82.7563 57.6774 82.493 58.0479 82.2106ZM20.5681 81.0224C23.8914 80.7576 29.1205 81.2804 34.4911 82.0927C39.9136 82.9129 45.384 84.012 48.9766 84.8213C49.0766 86.2998 49.3445 88.3898 49.8667 90.5059C50.2387 92.0133 50.7508 93.5789 51.4487 94.9551C48.1907 93.7085 43.8507 92.3208 39.3916 91.4204C34.073 90.3464 28.4223 89.9306 24.2457 91.4231C23.5583 90.1812 22.6737 88.3945 21.9422 86.5065C21.187 84.5571 20.6309 82.5887 20.5681 81.0224ZM12.7496 79.2913C12.8156 79.328 12.8825 79.3648 12.9512 79.4C14.2441 80.0636 16.2096 80.6081 18.9901 80.9981C19.0482 82.8714 19.6976 85.0766 20.4723 87.0761C21.1193 88.746 21.8797 90.3355 22.5346 91.5725C21.6332 91.5194 20.572 91.4131 19.5271 91.2288C17.8381 90.931 16.3641 90.4572 15.5998 89.8076C15.3036 89.5557 14.9324 88.919 14.5517 87.8588C14.1865 86.842 13.8575 85.5698 13.5707 84.2018C13.2297 82.5747 12.9548 80.8408 12.7496 79.2913ZM22.2391 72.8721C26.2765 72.8264 33.0016 73.3192 39.5653 74.2494C42.9326 74.7266 46.2426 75.3168 49.1123 76.0041C51.1853 76.5006 53.0005 77.0421 54.4341 77.6157C52.5041 78.7744 50.7968 80.7654 49.3343 83.2858C45.7114 82.4694 40.198 81.3613 34.7266 80.5337C29.4237 79.7317 24.0673 79.1783 20.5194 79.4456C20.4918 78.5991 20.5362 77.5092 20.7353 76.41C20.9852 75.0299 21.4596 73.7419 22.2391 72.8721ZM56.255 78.4665C56.7126 78.7132 57.1168 79.0019 57.3949 79.3027C57.7327 79.6683 57.7928 79.9405 57.749 80.1406C57.6894 80.4123 57.3565 80.9465 56.0379 81.5831C55.0097 82.0795 53.4899 82.5837 51.3215 83.0601C52.8488 80.7141 54.5237 79.1485 56.255 78.4665ZM20.3347 72.8269C19.7351 73.8456 19.3843 75.0232 19.1841 76.1292C18.9712 77.305 18.9171 78.4653 18.9414 79.3982C16.3858 79.0227 14.7021 78.5268 13.6711 77.9975C12.8887 77.5959 12.5845 77.2374 12.4771 76.967C12.4634 76.8313 12.4506 76.6996 12.4386 76.5722C12.4999 76.2639 12.7625 75.8397 13.353 75.3477C13.9642 74.8385 14.8208 74.3462 15.8101 73.9304C17.2694 73.317 18.9153 72.9115 20.3347 72.8269Z" fill="#F7F0FB"/>
<path fill-rule="evenodd" clip-rule="evenodd" d="M19.0249 84.0691C16.3956 80.5289 11.8162 79.4771 8.79643 81.7195C5.77668 83.9623 5.46003 88.6507 8.08939 92.1911C10.7189 95.7316 15.2981 96.7836 18.3179 94.5408C21.3377 92.2979 21.6544 87.6096 19.0249 84.0691Z" fill="#F7F0FB"/>
<path d="M45.2428 112.299C39.2355 112.299 34.3659 117.381 34.3659 123.65C34.3659 129.918 39.2355 135 45.2428 135C51.2503 135 56.1207 129.918 56.1207 123.65C56.1207 117.381 51.2503 112.299 45.2428 112.299ZM44.9869 121.127C47.1033 121.127 48.2387 124.163 48.2389 126.172C48.2389 128.181 45.8262 127.697 43.7096 127.697C41.5932 127.697 40.2251 126.173 40.8053 124.765C41.5022 122.77 42.8703 121.127 44.9869 121.127ZM50.1881 119.551C51.0264 119.551 51.7066 121.184 51.7067 122.033C51.7067 122.882 51.0265 123.334 50.1881 123.334C49.3499 123.334 48.5535 122.409 48.5534 121.561C48.5534 120.712 49.3499 119.551 50.1881 119.551ZM41.3952 117.343C42.3173 117.343 43.1939 118.505 43.194 119.354C43.1938 120.202 42.3172 121.127 41.3952 121.127C40.473 121.127 39.7252 120.675 39.7252 119.826C39.7253 118.977 40.4731 117.343 41.3952 117.343ZM46.2487 116.713C47.1071 116.713 47.9222 117.874 47.9225 118.723C47.9225 119.572 47.1072 120.496 46.2487 120.496C45.39 120.496 44.4547 119.454 44.4547 118.605C44.4551 117.756 45.3902 116.713 46.2487 116.713Z" fill="#F7F0FB"/>
<path d="M98.7591 52.3534C98.7591 54.7912 99.8178 56.7675 101.124 56.7675C102.43 56.7675 103.488 54.7912 103.488 52.3534C103.488 49.9155 102.43 49.3581 101.124 49.3581C99.8178 49.3581 98.7591 49.9155 98.7591 52.3534Z" fill="#F7F0FB"/>
<path d="M30.8585 14.2232C29.6985 15.5875 29.3371 17.2338 30.4259 17.7818C31.5146 18.3299 34.2532 17.2967 34.8012 16.208C35.3493 15.1192 34.911 13.7923 33.8222 13.2442C32.7335 12.6961 31.4066 13.1344 30.8585 14.2232Z" fill="#F7F0FB"/>
<path d="M40.9763 12.1089C41.3886 13.6209 45.4679 13.8255 50.0879 12.5658C54.7078 11.3062 58.1188 9.0593 57.7066 7.54729C57.2943 6.03529 54.2077 4.87679 49.5878 6.13644C44.9679 7.39609 40.5641 10.5969 40.9763 12.1089Z" fill="#F7F0FB"/>
<ellipse cx="0.945871" cy="1.26118" rx="0.945871" ry="1.26118" transform="matrix(-1 -8.74228e-08 -8.74228e-08 1 100.755 59.6053)" fill="#F7F0FB"/>
<path fill-rule="evenodd" clip-rule="evenodd" d="M64.9753 82.6306C60.8239 81.4646 56.5719 81.6471 55.2663 86.3923C54.2935 89.9281 54.8078 92.6909 56.1354 94.865C59.5013 100.376 69.4546 101.169 71.4381 95.0232C72.102 92.9661 71.8791 90.6743 71.2692 88.5925C70.4062 85.6472 67.93 83.4606 64.9753 82.6306Z" fill="#F7F0FB"/>
<path fill-rule="evenodd" clip-rule="evenodd" d="M70.3327 84.2369C64.8999 82.1682 56.7835 80.5944 55.2253 86.2662C54.206 89.9764 55.4459 93.2307 57.526 95.9635C62.0462 101.902 71.7852 105.036 76.9137 99.6149C80.3374 95.9956 77.6642 90.7573 74.3786 87.0133C73.2833 85.7653 71.8844 84.8278 70.3327 84.2369Z" fill="#F7F0FB"/>
</svg>
