<svg width="24" height="24" viewBox="0 0 24 24" fill="none" xmlns="http://www.w3.org/2000/svg">
<path d="M21.6 3.60003C21.6 3.18413 21.3847 2.79789 21.0309 2.57924C20.6771 2.3606 20.2354 2.34072 19.8634 2.52671L10.5167 7.20003H6.00002C4.0118 7.20003 2.40002 8.8118 2.40002 10.8C2.40002 12.7883 4.0118 14.4 6.00002 14.4H6.33512L8.46161 20.7795C8.62495 21.2695 9.08352 21.6 9.60003 21.6H10.8C11.4628 21.6 12 21.0628 12 20.4V15.1417L19.8634 19.0733C20.2354 19.2593 20.6771 19.2395 21.0309 19.0208C21.3847 18.8022 21.6 18.4159 21.6 18V3.60003Z" fill="#E0BEF6"/>
</svg>
