<svg width="480" height="394" viewBox="0 0 480 394" fill="none" xmlns="http://www.w3.org/2000/svg">
<path d="M330.232 52.6193C346.946 52.4974 357.685 67.0598 362.15 84.1546C366.636 101.328 365.111 122.006 356.519 135.626L355.408 137.388L353.959 135.892L310.243 90.7465C307.65 88.6313 306.066 85.1522 305.446 81.3361C304.813 77.4411 305.145 72.9948 306.592 68.7852C309.516 60.2834 317.026 52.7158 330.232 52.6193Z" fill="#C4B8E9" stroke="#674DB3" stroke-width="3.27327"/>
<path d="M191.408 49.4879C207.496 33.8243 222.817 31.7962 231.995 38.4538C241.171 45.1092 242.897 59.4975 233.679 73.8542L233.427 74.2461L233.006 74.4466L177.993 100.681L176.909 101.197L176.091 100.32C169.735 93.5066 165.701 74.5164 191.408 49.4879Z" fill="#C4B8E9" stroke="#674DB3" stroke-width="3.27327" stroke-linecap="round"/>
<path fill-rule="evenodd" clip-rule="evenodd" d="M147.209 125.587C162.562 120.026 195.341 43.2395 297.853 80.2459C400.366 117.253 382.99 247.484 384.456 330.832C385.674 400.039 361.434 447.279 347.386 463.9L236.581 476.102C232.679 473.426 216.521 463.144 183.106 443.423C149.691 423.703 122.027 431.104 112.371 437.27C98.1544 394.945 59.5063 314.131 63.5638 313.445C71.2714 312.148 80.7825 303.795 81.6929 302.809C32.9235 231.106 49.3664 186.49 71.1398 176.494C88.5586 168.497 106.489 179.644 113.277 186.217C108.749 176.994 107.041 165.842 106.617 159.68C106.511 158.145 106.912 156.616 107.789 155.352C114.723 145.361 125.238 140.782 129.878 139.717C120.276 128.199 131.857 131.147 147.209 125.587Z" fill="#C4B8E9"/>
<path fill-rule="evenodd" clip-rule="evenodd" d="M278.88 114.014C298.506 110.481 318.111 128.14 322.668 153.458C324.731 164.917 323.357 175.981 319.415 184.988C310.512 180.844 299.59 179.6 288.522 182.212C279.389 184.368 271.518 188.828 265.612 194.64C258.79 187.575 253.656 177.696 251.595 166.252C247.038 140.934 259.254 117.547 278.88 114.014Z" fill="#343247"/>
<path fill-rule="evenodd" clip-rule="evenodd" d="M156.267 125.68C168.731 105.969 185.958 94.4948 194.744 100.051C203.53 105.607 200.549 126.09 188.085 145.8C182.014 155.402 174.81 163.047 168.005 167.723C166.002 159.845 160.529 152.201 152.318 147.006C150.679 145.969 148.998 145.072 147.295 144.314C149.266 138.366 152.281 131.983 156.267 125.68Z" fill="#343247"/>
<mask id="mask0_1379_33894" style="mask-type:alpha" maskUnits="userSpaceOnUse" x="49" y="70" width="336" height="407">
<path d="M107.787 155.354C114.721 145.363 125.236 140.784 129.877 139.719C120.274 128.201 131.854 131.148 147.207 125.588C162.56 120.029 195.338 43.2411 297.851 80.2481C400.364 117.255 382.988 247.486 384.454 330.834C385.672 400.041 361.432 447.282 347.384 463.902L236.579 476.104C232.677 473.428 216.519 463.146 183.104 443.425C149.689 423.705 122.025 431.106 112.37 437.272C98.1527 394.946 57.2868 314.113 61.3944 313.847C73.1646 313.085 80.7803 303.797 81.6907 302.812C32.9212 231.108 49.3646 186.492 71.1381 176.496C88.5569 168.499 106.487 179.646 113.275 186.219C108.748 176.995 107.04 165.844 106.616 159.682C106.51 158.147 106.91 156.618 107.787 155.354Z" fill="#C4B8E9"/>
</mask>
<g mask="url(#mask0_1379_33894)">
<path d="M293.732 293.038C178.197 308.294 124.809 227.492 112.557 185.184C98.8871 159.91 75.3643 164.896 65.3116 170.547C19.3924 200.53 56.1226 273.038 79.4024 304.726C86.652 298.964 84.441 300.105 88.9367 297.212C95.5444 303.688 105.561 312.567 120.98 321.863C144.918 336.294 177.741 351.104 191.793 353.173C184.05 371.464 186.714 382.388 193.916 389.768C213.891 410.236 241.702 398.3 254.822 385.33C254.725 383.84 266.064 380.879 312.191 380.956C358.317 381.033 380.739 361.844 386.184 352.239C392.255 306.087 387.727 263.507 384.705 247.985C358.284 273.943 313.047 288.836 293.732 293.038Z" fill="#343247"/>
<circle cx="70.1874" cy="197.878" r="51.3646" transform="rotate(12.9943 70.1874 197.878)" fill="#C4B8E9"/>
<circle cx="214.284" cy="398.458" r="46.5935" transform="rotate(12.9943 214.284 398.458)" fill="#C4B8E9"/>
</g>
<path d="M89.1719 314.262C144.154 327.283 147.81 371.833 137.939 399.037C132.516 413.981 115.162 465.686 52.8142 434.016C-21.3588 396.338 20.4448 297.987 89.1719 314.262Z" fill="#A895DE"/>
<path d="M232.068 179.934C215.285 182.347 195.927 177.881 184.89 170.075C183.293 168.945 180.811 170.031 180.821 171.987C180.977 200.862 182.145 246.842 193.208 249.395C204.052 251.898 223.852 216.912 234.6 182.799C235.097 181.223 233.704 179.699 232.068 179.934Z" fill="#343247"/>
<mask id="mask1_1379_33894" style="mask-type:alpha" maskUnits="userSpaceOnUse" x="180" y="171" width="55" height="79">
<path d="M232.066 179.915C214.793 182.231 194.171 176.446 183.496 171.894C182 171.256 180.279 172.323 180.288 173.95C180.448 202.388 181.914 246.788 193.209 249.395C204.053 251.897 223.853 216.912 234.601 182.798C235.098 181.222 233.704 179.695 232.066 179.915Z" fill="#343247"/>
</mask>
<g mask="url(#mask1_1379_33894)">
<circle cx="205.87" cy="240.341" r="33.4727" transform="rotate(12.1018 205.87 240.341)" fill="#8065CF"/>
</g>
<path fill-rule="evenodd" clip-rule="evenodd" d="M285.059 132.63C287.429 139.319 293.841 143.719 300.935 143.525L319.794 143.007C320.06 143.712 320.312 144.426 320.553 145.149L302.793 152.376C296.219 155.05 292.118 161.657 292.638 168.735L293.56 181.284C291.948 181.499 290.326 181.793 288.702 182.171L284.544 170.434C282.174 163.745 275.762 159.345 268.668 159.54L250.807 160.029C250.738 159.099 250.693 158.174 250.668 157.255L266.81 150.688C273.384 148.014 277.485 141.407 276.965 134.329L275.533 114.834C276.498 114.536 277.483 114.286 278.49 114.09L285.059 132.63Z" fill="white"/>
<path fill-rule="evenodd" clip-rule="evenodd" d="M191.165 98.7611C191.671 98.8334 192.161 98.9422 192.635 99.0874L182.814 117.219C179.471 123.391 180.436 131.007 185.212 136.151L190.47 141.813C190.04 142.573 189.596 143.333 189.138 144.092L181.045 141.834C174.473 139.999 167.452 142.436 163.428 147.946L159.7 153.05C158.911 152.22 158.075 151.417 157.194 150.645L160.192 145.111C163.282 139.406 162.71 132.415 158.735 127.288L156.82 124.816C157.541 123.702 158.278 122.615 159.026 121.557L161.951 122.199C168.288 123.589 174.848 121.104 178.675 115.864L191.165 98.7611Z" fill="white"/>
<path d="M170.301 179.315C155.696 132.354 187.483 116.157 202.239 119.563L214.273 122.34L170.301 179.315Z" fill="#C4B8E9"/>
<path d="M228.296 147.164C220.103 145.357 210.899 147.925 206.721 150.766C206.456 150.947 206.129 151.017 205.814 150.955C203.507 150.503 203.109 150.729 193.793 138.404C187.581 130.184 201.196 129.115 209.805 131.102C231.802 136.178 232.712 143.432 230.146 146.649C229.714 147.192 228.973 147.313 228.296 147.164Z" fill="#343247"/>
<ellipse cx="300.818" cy="217.919" rx="32.6001" ry="20.8292" transform="rotate(-8.12068 300.818 217.919)" fill="#A895DE"/>
<ellipse cx="18.5597" cy="15.248" rx="18.5597" ry="15.248" transform="matrix(-0.827969 -0.560774 -0.560774 0.827969 165.095 167.053)" fill="#A895DE"/>
<path d="M208.521 79.2197C187.38 86.2205 169.16 104.819 158.32 115.699C147.48 126.579 144.768 126.499 131.494 129.581C120.876 132.046 126.314 137.553 130.36 139.998C124.667 141.034 111.927 145.915 106.514 157.152C99.7486 171.199 131.138 233.49 166.137 262.89C197.898 289.57 295.78 324.99 384.874 248.114" stroke="#674DB3" stroke-width="3.27327" stroke-linecap="round" stroke-linejoin="round"/>
<path d="M228.319 73.1228C245.879 69.2533 287.288 67.224 312.438 90.0629" stroke="#674DB3" stroke-width="3.27327" stroke-linecap="round" stroke-linejoin="round"/>
<path d="M354.349 125.971C367.571 142.999 384.339 179.154 386.404 286.366C387.926 365.436 378.844 417.257 355.191 434.085" stroke="#674DB3" stroke-width="3.27327" stroke-linecap="round" stroke-linejoin="round"/>
<path d="M110.797 183.651C105.09 178.722 86.9966 167.322 65.743 179.492C37.5985 195.608 51.5058 261.8 81.6794 302.415" stroke="#674DB3" stroke-width="3.27327" stroke-linecap="round" stroke-linejoin="round"/>
<path d="M107.554 275.408C101.166 285.492 83.4664 308.333 65.0875 314.338" stroke="#674DB3" stroke-width="3.27327" stroke-linecap="round" stroke-linejoin="round"/>
<path d="M230.313 323.181C203.275 335.076 155.436 379.877 190.206 412.468C204.17 425.557 230.183 432.417 249.732 410.053" stroke="#674DB3" stroke-width="3.27327" stroke-linecap="round" stroke-linejoin="round"/>
<path d="M275.174 488.095C346.94 495.739 353.323 450.97 355.598 443.739C360.572 427.932 357.892 378.795 314.284 367.358C233.043 346.05 215.951 405.9 213.641 426.271C212.064 440.18 212.375 481.405 275.174 488.095Z" fill="#A895DE"/>
<path d="M358.391 431.548C356.373 450.988 348.584 493.685 279.558 488.283C268.101 487.576 237.739 480.667 207.95 458.686C170.714 431.21 137.26 423.849 113.577 438.356C87.0897 454.581 18.4178 436.496 13.8136 384.109C5.14983 285.532 168.78 288.183 137.608 404.122" stroke="#674DB3" stroke-width="3.27327" stroke-linecap="round" stroke-linejoin="round"/>
<path d="M239.062 476.672C215.931 464.582 196.649 420.705 235.371 381.284C276.337 339.577 363.085 366.652 358.314 432.289" stroke="#674DB3" stroke-width="3.27327" stroke-linecap="round" stroke-linejoin="round"/>
<path d="M90.2741 297.865C102.171 311.033 138.594 340.08 192.158 352.699" stroke="#674DB3" stroke-width="3.27327" stroke-linecap="round" stroke-linejoin="round"/>
</svg>
