<svg width="552" height="414" viewBox="0 0 552 414" fill="none" xmlns="http://www.w3.org/2000/svg">
<path fill-rule="evenodd" clip-rule="evenodd" d="M453.607 182.61C458.319 207.742 449.958 246.465 411.227 266.214C370.096 287.187 337.05 263.839 320.251 243.065C314.938 236.495 308.191 231.116 300.904 226.839C275.439 211.892 250.018 175.517 285.051 120.839C295.387 104.706 273.281 77.744 259.582 72.2655C187.913 43.6042 134.973 141.563 111.041 175.304C104.726 184.206 98.7135 179.704 97.0396 168.918C92.5479 139.977 83.1424 122.817 70.2119 102.924C47.1612 161.303 -7.49396 168.412 16.655 91.5696C-12.8634 140.543 -43.5759 85.788 -5.0282 13.2773C-43.9767 71.5307 -53.668 -16.0125 5.3373 -84.1476C9.08402 -126.685 27.6856 -169.066 70.4505 -202.503C131.034 -249.872 192.357 -249.889 253.056 -209.109C344.891 -147.411 327.254 -12.8497 338.68 27.102C346.633 54.9064 356.585 64.2464 364.952 68.1397C374.272 72.4766 385.571 73.2298 395.772 74.5011C451.371 81.4299 458.149 119.719 452.314 150.121C450.277 160.733 451.616 171.989 453.607 182.61Z" fill="#FDF499"/>
<path d="M382.027 183.457C394.679 182.212 396.822 172.217 396.312 167.375C395.801 162.533 393.676 154.368 403.426 143.798C414.477 131.816 429.112 104.455 356.594 117.149C348.605 118.547 340.956 121.794 334.483 126.681C287.219 162.358 298.53 179.183 323.966 178.739C343.677 178.395 337.867 189.815 350.756 194.15C363.644 198.485 366.212 185.013 382.027 183.457Z" fill="#FFC362"/>
<ellipse cx="377.827" cy="168.234" rx="2.73319" ry="4.29495" transform="rotate(113.129 377.827 168.234)" fill="#5D4D34"/>
<ellipse cx="357.212" cy="176.819" rx="2.73319" ry="4.29495" transform="rotate(-150.839 357.212 176.819)" fill="#5D4D34"/>
<ellipse cx="419.315" cy="177.553" rx="6.6534" ry="10.0133" transform="rotate(163.581 419.315 177.553)" fill="#343247"/>
<ellipse cx="6.6534" cy="10.0133" rx="6.6534" ry="10.0133" transform="matrix(0.819982 -0.572389 -0.572389 -0.819982 337.917 227.394)" fill="#343247"/>
<ellipse cx="422.764" cy="150.807" rx="16.3787" ry="10.9855" transform="rotate(162.557 422.764 150.807)" fill="#F6DD53"/>
<ellipse cx="313.711" cy="198.378" rx="16.3787" ry="10.9855" transform="rotate(145.996 313.711 198.378)" fill="#F6DD53"/>
<path d="M401.787 115.279C381.229 116.557 335.17 128.757 302.583 161.926C304.347 153.475 313.568 141.574 334.008 126.113C340.551 121.164 348.293 117.908 356.384 116.546C379.444 112.665 393.58 112.851 401.787 115.279Z" fill="#E09E41"/>
<path d="M6.43088 -87.4196C14.0182 -181.865 110.442 -273.601 227.378 -223.971C322.484 -183.607 330.777 -88.2913 335.884 13.5171C337.705 49.8235 356.597 69.9402 382.063 72.5787C452.296 79.8555 458.073 119.087 452.609 144.846C449.409 159.934 452.472 168.712 453.29 178.312C457.926 232.66 434.308 252.383 420.581 260.505C401.578 272.018 361.164 289.368 330.023 252.222C320.791 241.209 313.939 231.65 298.851 224.975C274.628 214.258 253.114 183.307 276.919 133.941C285.887 115.344 297.209 101.947 272.419 81.2649C241.433 55.4124 199.083 62.3201 166.771 100.686C134.46 139.052 113.374 184.222 100.8 179.591C91.8431 176.292 105.138 151.991 71.552 104.878" stroke="#C7A51F" stroke-width="4.26718" stroke-linecap="round"/>
<path d="M80.7941 57.4391C82.0526 67.8973 79.943 95.8183 57.1272 124.834C13.2481 180.635 5.61604 127.197 16.2916 92.4753C5.06014 118.318 -49.768 126.432 -5.30003 13.6365C-13.7082 37.0759 -63.7852 55.8572 -18.1727 -49.8981C-5.08164 -80.2505 27.9766 -119.077 43.1927 -74.8754" stroke="#C7A51F" stroke-width="4.26718" stroke-linecap="round" stroke-linejoin="round"/>
</svg>
