<svg width="559" height="456" viewBox="0 0 559 456" fill="none" xmlns="http://www.w3.org/2000/svg">
<path d="M206.154 430.214C235.191 438.971 253.135 427.764 258.478 421.065L254.651 453.819C242.9 466.48 200.23 476.387 174.772 469.523C149.313 462.659 143.554 444.088 149.127 435.775C154.18 428.236 169.858 419.268 206.154 430.214Z" fill="#F6C7C7"/>
<path d="M258.479 421.066C253.137 427.765 235.192 438.973 206.155 430.215C169.859 419.269 152.994 427.565 149.128 435.776C143.719 447.264 149.315 462.66 174.773 469.524C200.231 476.389 240.461 467.547 252.212 454.886" stroke="#BE7B7B" stroke-width="3.28002" stroke-linecap="round"/>
<path d="M263.861 301.84C281.472 305.13 285.842 319.071 285.585 331.22C310.564 321.605 366.597 299.485 390.919 286.868C393.672 285.44 395.041 283.053 393.714 273.196C390.172 246.864 434.848 227.994 445.422 272.696C455.455 315.113 431.513 343.196 416.37 352.162C433.303 415.202 439.44 446.479 441.155 460.255C441.863 465.938 439.836 471.41 435.369 474.994C421.083 486.458 395.91 495.261 388 493.024C379.274 490.556 372.215 467.99 367.091 454.017C366.618 452.728 365.084 452.21 363.872 452.856C353.027 458.63 335.997 462.229 328.283 462.845C327.381 462.917 326.579 463.516 326.275 464.369C313.64 499.843 304.98 503.386 296.434 505.342C270.537 511.268 255.399 508.855 247.48 504.832C242.043 502.07 241.774 495.377 243.558 489.545C256.223 448.143 257.948 407.687 257.116 391.747C192.688 398.14 233.541 296.174 263.861 301.84Z" fill="#FCF0F0"/>
<path d="M127.533 156.821C142.162 142.43 169.426 144.798 174.679 147.7L182.074 202.668C239.755 249.683 130.645 379.722 48.5229 314.921C12.7266 286.674 26.6843 233.01 79.4184 208.179C116.956 190.504 109.247 174.811 127.533 156.821Z" fill="#F6C7C7"/>
<path d="M390.274 76.1071C366.405 56.7755 338.085 64.0621 336.417 77.4269L459.607 233.789C543.208 175.029 492.887 142.787 444.116 124.19C419.328 114.737 427.693 106.413 390.274 76.1071Z" fill="#F6C7C7"/>
<path d="M423.102 148.271C392.1 82.9709 315.133 52.4252 247.282 79.9351L227.296 88.0384C159.195 115.65 125.408 192.055 149.157 260.735C150.649 265.05 150.07 269.793 148.046 273.886C141.595 286.938 140.539 302.585 146.44 317.139C157.397 344.163 187.42 353.919 213.08 351.623C256.754 347.714 396.322 291.325 438.018 260.422C457.661 245.864 477.272 214.471 466.315 187.447C460.2 172.363 447.905 161.642 433.536 157.016C429.043 155.57 425.126 152.535 423.102 148.271Z" fill="#FCEDED"/>
<mask id="mask0_1379_33965" style="mask-type:alpha" maskUnits="userSpaceOnUse" x="141" y="69" width="329" height="283">
<path d="M426.17 155.215C397.468 85.1676 317.495 51.4677 247.282 79.9351L227.296 88.0384C156.924 116.571 123.193 197.205 151.725 267.578C142.142 281.679 139.553 300.153 146.44 317.139C157.397 344.163 187.42 353.919 213.08 351.623C256.754 347.714 396.322 291.325 438.018 260.422C457.661 245.864 477.272 214.471 466.315 187.447C459.177 169.84 443.619 158.177 426.17 155.215Z" fill="#FCEDED"/>
</mask>
<g mask="url(#mask0_1379_33965)">
<ellipse cx="317.256" cy="279.111" rx="107.016" ry="81.9131" transform="rotate(-22.0699 317.256 279.111)" fill="#F6C7C7"/>
</g>
<path d="M212.802 169.811L205.647 177.5" stroke="#343247" stroke-width="11.4801" stroke-linecap="round"/>
<circle cx="238.252" cy="198.837" r="24.2423" transform="rotate(-30.3903 238.252 198.837)" fill="#343247"/>
<circle cx="243.26" cy="202.24" r="9.80307" transform="rotate(-30.3903 243.26 202.24)" fill="white"/>
<circle cx="226.7" cy="197.3" r="4.91601" transform="rotate(-30.3903 226.7 197.3)" fill="white"/>
<circle cx="235.27" cy="188.611" r="3.49956" transform="rotate(-30.3903 235.27 188.611)" fill="white"/>
<path d="M316.853 127.66L327.342 128.196" stroke="#343247" stroke-width="11.4801" stroke-linecap="round"/>
<circle cx="318.793" cy="166.235" r="24.2423" transform="rotate(20.7424 318.793 166.235)" fill="#343247"/>
<circle cx="321.594" cy="155" r="4.91601" transform="rotate(20.7424 321.594 155)" fill="white"/>
<circle cx="330.905" cy="162.268" r="3.49956" transform="rotate(20.7424 330.905 162.268)" fill="white"/>
<circle cx="309.65" cy="162.774" r="3.49956" transform="rotate(20.7424 309.65 162.774)" fill="white"/>
<circle cx="321.07" cy="174.224" r="9.80306" transform="rotate(20.7424 321.07 174.224)" fill="white"/>
<path fill-rule="evenodd" clip-rule="evenodd" d="M269.68 210.693C274.048 203.641 291.945 195.284 301.751 197.03C304.298 197.483 305.518 200.122 304.987 202.653C303.88 207.931 301.085 215.357 295.291 220.691C295.509 221.244 295.719 221.803 295.915 222.369C299.798 231.257 308.045 238.343 315.76 240.933C319.941 242.337 323.537 242.284 326.097 241.011C328.507 239.813 330.641 237.208 331.324 231.979C331.539 230.332 333.048 229.171 334.694 229.386C336.34 229.601 337.501 231.111 337.286 232.757C336.717 237.118 335.239 240.616 332.99 243.161C336.768 263.295 337.221 277.18 335.189 286.124C334.143 290.726 332.376 294.307 329.781 296.69C327.107 299.145 323.843 300.06 320.439 299.825C313.961 299.378 306.804 294.779 300.336 288.817C294.079 283.049 287.988 275.558 283.105 267.807C278.457 268.746 273.358 267.207 268.123 263.258C266.797 262.258 266.533 260.372 267.533 259.047C268.533 257.721 270.418 257.458 271.744 258.458C276.643 262.153 280.267 262.532 282.819 261.673C285.502 260.77 287.978 258.182 289.813 253.939C293.205 246.096 293.635 234.273 290.294 224.518C290.009 223.852 289.744 223.178 289.5 222.495C284.666 222.595 277.422 221.538 270.882 215.713C269.413 214.404 268.644 212.366 269.68 210.693Z" fill="#343247"/>
<path d="M319.525 263.854C325.298 262.986 330.947 263.646 336.065 265.528C336.702 274.197 336.358 280.98 335.189 286.127C334.143 290.728 332.375 294.31 329.781 296.692C327.107 299.147 323.843 300.063 320.438 299.828C313.961 299.38 306.804 294.781 300.336 288.819C298.27 286.914 296.223 284.82 294.231 282.592C298.868 272.884 308.085 265.575 319.525 263.854Z" fill="#EC8686"/>
<ellipse cx="376.178" cy="175.546" rx="20.9942" ry="13.4138" transform="rotate(-22.0699 376.178 175.546)" fill="#F6C7C7"/>
<ellipse cx="202.84" cy="245.827" rx="20.9942" ry="13.4138" transform="rotate(-22.0699 202.84 245.827)" fill="#F6C7C7"/>
<path d="M445.42 272.696C455.453 315.113 431.511 343.196 416.368 352.163L390.917 286.868C393.67 285.44 395.039 283.054 393.713 273.196C390.171 246.864 434.846 227.994 445.42 272.696Z" fill="#FCF0F0"/>
<path d="M263.731 301.858C281.342 305.149 285.711 319.09 285.455 331.238C285.11 344.225 278.933 374.511 256.986 391.766C192.557 398.159 233.41 296.192 263.731 301.858Z" fill="#FCF0F0"/>
<path d="M160.161 145.744C151.054 143.018 129.048 143.934 113.244 176.295C109.41 184.557 98.8594 198.387 82.386 207.042C50.5595 223.764 24.1459 246.512 28.9176 281.984C34.033 320.012 88.369 353.494 146.54 317.673" stroke="#BE7B7B" stroke-width="3.28002" stroke-linecap="round"/>
<path d="M337.071 74.9007C342.16 66.8261 358.616 54.904 383.729 71.8131C415.121 92.9496 421.165 116.433 439.421 122.329C457.677 128.225 502.233 144.138 503.745 172.74C505.177 199.836 487.309 217.059 464.381 229.102" stroke="#BE7B7B" stroke-width="3.28002" stroke-linecap="round"/>
<path fill-rule="evenodd" clip-rule="evenodd" d="M383.289 98.4835C383.742 97.6996 384.745 97.432 385.529 97.8856C395.077 103.41 403.513 112.291 410.343 121.432C417.184 130.589 422.489 140.11 425.752 147.032C426.734 149.116 428.458 150.83 430.548 151.809C447.507 159.755 458.443 169.324 464.803 179.574C471.173 189.841 472.879 200.674 471.573 210.989C469.001 231.316 454.746 249.656 441.431 258.219C444.622 263.588 447.012 270.631 448.216 279.579C453.765 320.831 432.783 343.681 418.457 352.42C427.01 379.68 437.376 435.301 442.116 463.306C442.6 466.164 442.022 469.218 440.062 471.574C432.439 480.737 420.643 486.945 409.935 490.515C404.562 492.306 399.403 493.452 395.09 493.973C390.869 494.483 387.188 494.428 384.943 493.58C383.803 493.149 382.768 492.266 381.848 491.237C380.906 490.185 379.968 488.851 379.048 487.339C377.207 484.314 375.342 480.418 373.578 476.257C370.385 468.723 367.458 460.162 365.539 453.94C354.519 460.771 343.941 463.141 335.736 463.751C332.893 463.962 330.336 463.961 328.146 463.864C328.134 463.956 328.118 464.048 328.091 464.14C324.382 476.501 320.301 485.331 316.676 491.365C313.125 497.276 309.926 500.638 307.845 501.918L307.846 501.919C292.151 512.365 270.997 511.706 253.993 509.268C250.382 508.75 247.614 507.608 245.562 506.002C243.501 504.389 242.248 502.373 241.576 500.255C240.262 496.115 241.176 491.641 242.361 488.786C254.152 457.934 255.71 412.616 254.973 392.058C242.543 393.5 233.897 389.875 228.604 382.932C222.646 375.118 221.31 363.545 222.929 351.772C215.204 352.731 203.623 353.513 191.638 351.797C178.913 349.974 165.551 345.309 155.938 334.857C133.623 310.593 140.396 285.37 147.456 272.246C148.731 269.877 149.01 267.121 148.119 264.682C137.693 236.139 139.195 208.761 141.368 197.636C141.541 196.747 142.403 196.167 143.292 196.341C144.181 196.514 144.761 197.376 144.588 198.265C142.508 208.911 141.013 235.67 151.2 263.557C152.444 266.962 152.018 270.691 150.345 273.8C143.661 286.225 137.336 309.784 158.352 332.636C167.255 342.316 179.774 346.784 192.102 348.549C204.19 350.28 215.921 349.385 223.473 348.394C225.56 337.059 230.285 325.515 236.589 316.566C243.312 307.023 252.113 300.058 261.719 300.05C269.11 300.044 274.58 302.265 278.44 306.039C282.267 309.782 284.344 314.888 285.298 320.366C285.841 323.486 286.026 326.771 285.951 330.073C302.107 324.83 340.55 312.43 366.032 297.771C366.817 297.32 367.819 297.59 368.271 298.375C368.722 299.16 368.451 300.162 367.667 300.614C341.378 315.736 301.665 328.417 286.133 333.462C286.017 333.5 285.898 333.523 285.781 333.535C285.25 340.615 283.663 347.528 281.946 352.785C281.664 353.646 280.738 354.115 279.878 353.834C279.017 353.553 278.546 352.627 278.828 351.766C281.544 343.453 283.837 331.095 282.067 320.929C281.185 315.867 279.321 311.488 276.147 308.384C273.005 305.312 268.412 303.325 261.722 303.33C253.725 303.336 245.781 309.215 239.271 318.455C232.81 327.627 228.04 339.747 226.297 351.394C224.545 363.097 225.895 373.969 231.213 380.944C236.399 387.747 245.747 391.31 261.208 387.608C262.088 387.397 262.974 387.94 263.185 388.821C263.396 389.701 262.852 390.586 261.972 390.797C260.693 391.103 259.447 391.363 258.235 391.578C259.007 412.104 257.523 458.299 245.424 489.957L245.415 489.982L245.405 490.006C244.388 492.434 243.698 496.096 244.703 499.263C245.194 500.81 246.09 502.25 247.585 503.42C249.089 504.597 251.282 505.566 254.458 506.022C271.389 508.449 291.433 508.903 306.029 499.189L306.059 499.168L306.092 499.149C307.478 498.315 310.366 495.498 313.864 489.676C317.285 483.982 321.208 475.546 324.817 463.628C324.751 463.622 324.684 463.617 324.619 463.611C323.243 463.472 322.132 463.316 321.34 463.2C320.936 463.141 320.64 463.097 320.42 463.069C320.323 463.056 320.259 463.049 320.221 463.046C319.387 463.076 318.652 462.47 318.538 461.626C318.417 460.729 319.047 459.903 319.944 459.782C320.169 459.752 320.379 459.769 320.462 459.775C320.582 459.784 320.714 459.799 320.841 459.816C321.096 459.849 321.434 459.9 321.813 459.955C322.587 460.068 323.642 460.216 324.947 460.347C327.557 460.609 331.176 460.8 335.492 460.48C344.119 459.839 355.543 457.152 367.276 448.86C368.015 448.338 369.039 448.513 369.561 449.252C370.084 449.992 369.908 451.015 369.168 451.538C368.912 451.72 368.653 451.895 368.397 452.072C370.28 458.274 373.303 467.203 376.599 474.977C378.336 479.075 380.129 482.805 381.851 485.634C382.712 487.05 383.532 488.201 384.292 489.049C385.072 489.921 385.684 490.354 386.103 490.512C387.548 491.058 390.534 491.22 394.697 490.717C398.768 490.225 403.711 489.131 408.897 487.403C419.307 483.932 430.462 477.985 437.54 469.477C438.787 467.979 439.235 465.937 438.883 463.853C434.173 436.029 423.966 381.297 415.533 354.063C414.593 354.544 413.7 354.956 412.863 355.299C412.025 355.642 411.066 355.242 410.723 354.403C410.38 353.565 410.782 352.607 411.62 352.264C423.931 347.219 451.068 325.383 444.965 280.016C443.192 266.836 438.813 258.409 433.523 253.476C428.256 248.564 421.945 246.98 415.964 247.725C403.973 249.22 393.715 259.886 395.511 271.833L395.606 272.403L395.61 272.424L395.613 272.446C395.944 274.587 396.554 279.054 395.619 283.741C394.673 288.484 392.119 293.541 386.104 296.585C385.296 296.993 384.31 296.67 383.901 295.862C383.492 295.054 383.815 294.067 384.623 293.658C389.51 291.185 391.597 287.137 392.402 283.1C393.213 279.037 392.699 275.077 392.378 272.99C389.738 258.478 402.033 246.157 415.558 244.471C422.43 243.614 429.729 245.453 435.76 251.077C437.128 252.353 438.422 253.817 439.628 255.478C452.264 247.367 465.885 229.813 468.319 210.578C469.54 200.93 467.95 190.866 462.016 181.303C456.073 171.725 445.699 162.53 429.156 154.779C426.378 153.478 424.094 151.209 422.785 148.43C419.6 141.674 414.404 132.348 407.715 123.396C401.014 114.427 392.893 105.935 383.887 100.724C383.103 100.27 382.835 99.2674 383.289 98.4835ZM222.525 87.2626C254.563 71.1671 295.664 62.9522 341.722 74.7331C342.599 74.9575 343.129 75.8505 342.905 76.7279C342.68 77.6053 341.787 78.1348 340.91 77.9107C295.711 66.3497 255.419 74.4082 223.997 90.194C192.53 106.003 170.051 129.512 160.47 148.69C160.065 149.5 159.08 149.829 158.27 149.424C157.46 149.019 157.131 148.034 157.535 147.224C167.483 127.315 190.532 103.335 222.525 87.2626Z" fill="#BE7B7B"/>
</svg>
