<svg width="177" height="64" viewBox="0 0 177 64" fill="none" xmlns="http://www.w3.org/2000/svg">
<path fill-rule="evenodd" clip-rule="evenodd" d="M47.1863 1.93943C47.5119 1.93943 47.8376 1.96655 48.1361 1.96655C54.839 2.31935 57.9327 7.31266 57.6342 12.2517C57.3899 15.9966 55.2189 19.7145 51.2569 21.4513C48.6517 22.5639 45.2052 22.8624 41.5145 22.6725C38.448 22.5096 35.2186 21.994 32.1521 21.3427L32.0435 21.3156C31.745 21.3156 31.4737 21.4784 31.3109 21.7498C30.551 22.9981 30.1439 24.3008 30.0624 25.4677C29.9539 27.4215 30.7139 28.9955 32.125 29.3483C32.4235 29.4297 32.7763 29.484 33.129 29.484C36.8468 29.7011 42.4372 26.8245 45.9922 23.4866C46.3992 23.1067 46.8877 22.9438 47.4304 22.9981C49.3843 23.0795 51.7724 25.6305 51.6367 27.6387C51.6096 28.2899 51.284 28.9141 50.5785 29.3483C46.3451 32.0078 44.9881 43.3513 39.4521 49.9185C38.3556 51.2187 37.0438 52.373 35.5779 53.3074C45.1195 64.6884 62.1661 62.898 74.2476 57.6229C79.2395 55.448 83.8458 52.5575 87.7942 49.0528C92.5486 44.7927 96.6558 39.8073 98.5661 33.7722C99.4129 31.0405 99.7414 28.0677 99.2561 24.9805L99.2463 24.9528C98.8657 23.2054 97.888 21.5707 96.6191 20.1284C90.9507 24.9917 86.3392 35.0502 86.2099 38.3851C86.1828 38.9278 86.2643 39.2806 86.5085 39.4163C86.617 39.4976 86.7799 39.5248 86.9156 39.5248C88.5438 39.5247 91.4475 35.3457 93.7542 32.2792C93.8898 32.0892 94.1069 31.9807 94.3511 31.9807C94.9482 31.9807 95.708 32.5505 95.6809 33.1746C95.6809 33.3374 95.6266 33.4732 95.5181 33.636C92.3973 38.2765 89.1408 44.5995 85.423 47.4218C84.3918 48.2088 83.1434 48.5616 81.9222 48.5616C79.1271 48.5616 76.3862 46.6077 76.4947 43.2969L76.5219 43.0798C76.524 43.0514 76.5265 43.023 76.5288 42.9945C74.1788 46.0626 71.4586 48.6159 68.6791 48.6159C68.1093 48.6159 67.5665 48.5073 66.9966 48.2903C64.9342 47.4762 64.2829 45.9021 64.2829 44.1925C64.2829 42.1844 65.1783 40.0133 65.7482 38.6836C65.7754 38.6293 65.8025 38.575 65.8026 38.4937C65.8026 38.1951 65.3955 37.8966 65.0155 37.8966C64.8256 37.8966 64.6628 37.978 64.5543 38.1679C62.6546 41.5602 59.8594 48.2903 54.7304 48.2903C53.9977 48.2903 53.2107 48.1546 52.3695 47.8561C49.7915 46.9063 48.7331 44.708 48.7331 41.9943C48.7331 34.9657 55.9517 24.4907 63.1974 23.4595C63.4416 23.4323 63.6858 23.4052 63.9572 23.4051C66.3181 23.4051 68.4077 25.0606 68.4077 27.6387C68.4077 27.8015 68.4078 27.9915 68.3806 28.1814V28.2357C68.3807 28.4798 68.652 28.6156 68.9234 28.6156C69.1404 28.6156 69.3304 28.5612 69.4118 28.3985C69.8188 27.6115 70.1446 25.6847 70.9587 24.7078C71.5557 24.0022 72.3427 23.7309 73.2382 23.7309C75.7077 23.7309 78.7471 26.0375 78.7471 27.9914C78.7471 28.3984 78.5843 28.8327 78.2587 29.1855C76.4133 31.1937 73.0211 36.4583 73.0211 38.7378C73.0211 39.1448 73.1297 39.4434 73.3739 39.6334C73.5639 39.7691 73.7538 39.8233 73.9709 39.8233C75.3135 39.8233 77.1749 37.3584 78.8407 34.8981C79.6573 32.9076 80.6213 30.8094 81.6237 28.6427C84.0386 23.356 86.7152 17.86 88.7305 14.5738C88.5464 14.4916 88.3613 14.4112 88.1753 14.3326C88.2347 14.3578 88.2941 14.383 88.3534 14.4084C88.48 14.4626 88.6059 14.5176 88.7311 14.5729C89.2294 13.7604 89.6871 13.0829 90.0906 12.5773C91.0404 11.4104 92.2345 10.9219 93.4285 10.9219C94.2174 10.9219 95.0162 11.1242 95.7592 11.4738V11.4658C96.1391 11.6445 96.5043 11.8618 96.8462 12.1102H96.8349C98.2919 13.1643 99.3272 14.784 99.2631 16.4037C99.2359 17.4621 98.6931 18.5476 97.4719 19.4431C97.2766 19.5894 97.0823 19.7424 96.8891 19.9016C98.4125 21.4168 99.5049 23.0354 100.06 24.6787C104.97 37.7165 93.9581 53.9139 75.4652 60.8565C58.8964 67.0766 41.9437 63.7573 35.0643 53.6223C32.5412 55.1061 29.6016 55.9433 26.5346 55.7802C26.2361 55.753 25.9104 55.7259 25.5848 55.6987C19.7774 55.0203 15.2997 50.2984 15.6796 44.3553C15.7067 43.9483 15.7339 43.514 15.8153 43.0798C16.4394 39.7419 18.6376 37.2453 21.3242 36.2683C21.4327 36.2412 21.5142 36.2412 21.6227 36.2412C21.7855 36.2412 21.9755 36.3227 22.1112 36.4583C22.274 36.6212 22.3554 36.8111 22.3283 37.0282C22.3283 37.1096 22.3012 37.1911 22.274 37.2725C22.1655 37.6524 22.084 38.0323 22.0569 38.3851C21.8941 41.0174 24.3094 43.2155 27.6744 43.4055C31.5008 43.5955 36.6026 41.1802 40.6189 33.7717C40.6732 33.6632 40.7004 33.5545 40.7004 33.446C40.7275 33.2289 40.619 32.9847 40.429 32.8219C40.3205 32.7134 40.1577 32.6591 39.9948 32.6591C39.8049 32.632 39.6149 32.6862 39.4792 32.7948C36.0328 35.8613 32.3149 37.0825 29.0042 36.8925C27.1317 36.8111 25.3677 36.2412 23.8752 35.3456C20.9172 33.5274 19.1533 29.5925 19.4246 25.3591C19.506 23.8937 19.8316 22.401 20.4286 20.9628C20.4829 20.8814 20.483 20.7728 20.5101 20.6914C20.5101 20.5286 20.4829 20.3929 20.4015 20.2572C20.2387 20.0401 20.0488 19.9315 19.8317 19.9044H19.6235C14.2818 19.929 11.6889 23.211 11.5004 26.1189C11.419 27.5029 11.8804 28.8326 12.8845 29.6468C13.0473 29.8096 13.1559 29.9996 13.1559 30.2438C13.1558 30.4609 13.0744 30.6509 12.8845 30.8137C11.6362 31.9806 9.65505 32.5234 7.67404 32.4148C5.82871 32.3334 3.95619 31.655 2.65361 30.3795C0.618309 28.3985 -0.141499 25.8747 0.0213115 23.378C0.211275 20.203 1.89382 17.0822 4.39042 15.1826C7.04988 13.1473 10.5235 11.8175 15.5439 12.0889C18.0405 12.2246 20.9172 12.7401 24.2551 13.7713C24.3365 13.8256 24.4179 13.8257 24.4993 13.8257C24.7163 13.8528 24.9063 13.7713 25.042 13.6357C31.8264 5.4673 40.3748 2.048 47.1863 1.93943ZM64.0929 27.8828C61.8947 27.883 57.1186 34.6944 57.1186 37.4624C57.1186 37.9508 57.2814 38.3308 57.6613 38.4937C57.7698 38.5479 57.8784 38.575 58.014 38.575C60.2936 38.575 64.8798 30.9223 64.8799 28.6698C64.8799 28.4256 64.8256 28.2628 64.7171 28.1542C64.5542 27.9642 64.3371 27.8828 64.0929 27.8828ZM50.0357 7.52973C47.3219 7.39407 41.0531 9.72789 36.3855 14.884C36.277 15.0196 36.1955 15.1825 36.1684 15.3725C36.1684 15.4539 36.1956 15.5624 36.2227 15.671C36.3313 15.9423 36.5755 16.1323 36.874 16.1866C37.3082 16.2137 37.7153 16.268 38.1223 16.2952C46.6706 16.7294 51.3925 11.6546 51.5554 9.04941C51.5825 8.50668 51.4196 8.07245 51.0669 7.82822C50.8498 7.63829 50.497 7.55687 50.0357 7.52973Z" fill="#F4F4F4"/>
<path fill-rule="evenodd" clip-rule="evenodd" d="M149.489 23.0795C151.307 23.0796 153.316 24.7349 153.478 27.0145C153.478 27.6929 153.234 28.3713 152.637 28.9954C149.978 31.1393 143.193 34.613 143.193 38.0323C143.193 38.2493 143.221 38.4936 143.275 38.7107C143.465 39.4162 144.062 39.8505 144.632 39.9048C147.25 40.2171 150.634 36.2119 152.13 33.9897C154.332 29.4953 157.479 25.4777 158.716 24.1378C159.367 23.4323 160.154 23.1338 160.941 23.1338C162.949 23.1338 165.012 25.0334 165.012 26.8244C165.012 27.3943 164.795 27.91 164.361 28.3985C162.162 30.7594 158.065 35.7798 158.065 37.9508C158.065 38.2493 158.146 38.4936 158.336 38.6836C158.553 38.8735 158.77 38.982 158.987 38.9821C161.538 38.982 165.826 28.3985 170.304 24.1107C170.819 23.6222 171.498 23.4052 172.176 23.4051C174.374 23.4051 176.925 25.4947 176.925 27.6657C176.925 28.2356 176.762 28.8327 176.328 29.3754C170.087 38.575 170.846 48.6973 166.124 55.4274C163.818 58.7109 160.67 60.7192 156.898 60.7192C156.192 60.7191 155.459 60.6378 154.727 60.5021C151.307 59.8236 147.997 56.3229 147.997 52.4966C147.997 51.981 148.051 51.4653 148.187 50.9497C148.485 49.7828 149.272 49.2672 150.086 49.2672C150.656 49.2672 151.28 49.5386 151.715 50.0813C152.773 51.3567 153.858 51.8452 154.944 51.8452H155.025C159.096 51.7095 163.628 44.6266 166.369 38.4393C166.423 38.3037 166.45 38.1679 166.45 38.0594C166.45 37.7337 166.206 37.5166 165.907 37.5166C165.718 37.5167 165.5 37.6253 165.365 37.8423C162.705 41.8586 161.294 44.6267 158.933 46.0649C158.092 46.5805 157.142 46.7977 156.165 46.7977C153.496 46.7977 150.763 45.0078 150.175 41.9191C148.896 43.7576 147.443 45.58 145.907 47.0147C144.387 48.4258 142.596 49.1315 141.022 49.1315C138.689 49.1315 136.789 47.5846 136.789 44.4096C136.789 44.1654 136.789 43.9211 136.816 43.6769V43.5412C136.816 43.0799 136.572 42.8084 136.246 42.8084C135.975 42.8085 135.649 42.9442 135.459 43.3512C134.998 44.4096 134.102 46.7434 133.37 48.3174C132.99 49.1043 132.23 49.43 131.389 49.43C129.543 49.1857 127.508 47.856 127.508 46.3363C127.508 45.9836 127.589 45.6579 127.806 45.3051C130.032 41.7773 135.025 38.3036 135.541 35.8884C135.622 35.4813 135.676 35.1285 135.676 34.8029C135.676 33.9345 135.378 33.3918 134.862 33.3918C134.347 33.3918 133.587 33.9617 132.691 35.3727C132.662 35.4186 132.629 35.4584 132.591 35.4927C129.804 40.1111 124.928 48.6159 119.855 48.6159C119.285 48.6159 118.742 48.5073 118.173 48.2903C116.11 47.4761 115.459 45.9021 115.459 44.1924C115.459 42.1843 116.354 40.0133 116.924 38.6836C116.951 38.6293 116.979 38.5749 116.979 38.4936C116.979 38.1951 116.571 37.8966 116.192 37.8966C116.002 37.8966 115.839 37.978 115.73 38.1679C113.831 41.5602 111.035 48.2903 105.906 48.2903C105.174 48.2902 104.387 48.1545 103.546 47.856C101.962 47.2727 100.952 46.2185 100.409 44.8634C102.106 41.9665 103.384 38.7562 104.106 35.2231C104.138 35.0348 104.167 34.8458 104.192 34.6566C104.368 33.3997 104.354 32.1049 104.161 30.8358C106.898 27.0422 110.632 23.9919 114.373 23.4594C114.618 23.4322 114.862 23.4052 115.133 23.4051C117.494 23.4051 119.584 25.0605 119.584 27.6386C119.584 27.8014 119.584 27.9914 119.557 28.1813V28.2357C119.557 28.4798 119.828 28.6155 120.099 28.6155C120.316 28.6155 120.506 28.5612 120.588 28.3985C120.995 27.6115 121.321 25.6848 122.135 24.7078C122.732 24.0022 123.519 23.7308 124.414 23.7308C126.884 23.7308 129.923 26.0375 129.923 27.9914C129.923 28.3984 129.76 28.8327 129.435 29.1855C127.589 31.1937 124.197 36.4583 124.197 38.7378C124.197 39.1448 124.306 39.4434 124.55 39.6334C124.74 39.769 124.93 39.8233 125.147 39.8233C126.884 39.8233 129.489 35.6984 131.416 32.7947C131.441 32.7498 131.473 32.7111 131.51 32.678C132.65 30.5322 133.719 28.0147 134.645 25.7661C135.432 23.8665 137.087 23.0796 138.743 23.0795C140.914 23.0795 143.058 24.4635 143.058 26.5531C143.058 26.7159 143.031 26.9059 143.003 27.0687C142.895 27.8557 142.081 29.8096 141.999 30.7594V30.8679C141.999 31.1664 142.216 31.3564 142.488 31.3565C142.623 31.3565 142.759 31.3021 142.895 31.1664C144.333 29.9453 145.826 26.2546 147.237 24.3278C147.861 23.4323 148.675 23.0796 149.489 23.0795ZM115.269 27.8828C113.071 27.8831 108.295 34.6944 108.295 37.4624C108.295 37.9508 108.457 38.3307 108.837 38.4936C108.946 38.5478 109.054 38.575 109.19 38.575C111.47 38.5749 116.056 30.9223 116.056 28.6698C116.056 28.4256 116.002 28.2628 115.893 28.1542C115.73 27.9643 115.513 27.8828 115.269 27.8828Z" fill="#F4F4F4"/>
<path d="M83.3402 0.678528C83.675 -0.226179 84.9545 -0.226173 85.2893 0.678528L86.587 4.18553C86.6923 4.46997 86.9166 4.6942 87.201 4.79945L90.708 6.09715C91.6127 6.43193 91.6127 7.71147 90.708 8.04627L87.201 9.34407C86.9166 9.44932 86.6923 9.67355 86.587 9.95799L85.2893 13.465C84.9545 14.3696 83.675 14.3697 83.3402 13.465L82.0425 9.95799C81.9373 9.67356 81.713 9.44933 81.4286 9.34407L77.9216 8.04627C77.0169 7.71149 77.0169 6.43192 77.9216 6.09715L81.4286 4.79945C81.713 4.6942 81.9372 4.46995 82.0425 4.18553L83.3402 0.678528Z" fill="#F4F4F4"/>
<path d="M98.75 4.71921H102.325V0.250296H105.316V12.1102H102.325V7.41783H98.75V11.4682C98.7144 11.434 98.6786 11.4002 98.6426 11.3668C97.8357 10.6191 96.8437 9.99448 95.7592 9.6101V0.250296H98.75V4.71921Z" fill="#F4F4F4"/>
<path fill-rule="evenodd" clip-rule="evenodd" d="M117.776 11.5601L117.415 12.1102H114.905L114.321 9.99599H110.058L109.474 12.1102H106.965L106.604 11.5601L109.955 0.250296H114.424L117.776 11.5601ZM110.849 7.29747H113.53L112.293 2.94882H112.087L110.849 7.29747Z" fill="#F4F4F4"/>
<path d="M127.704 1.28156V2.94882H122.066C121.94 2.94884 121.877 3.0119 121.877 3.13794V9.2226C121.877 9.34857 121.94 9.4116 122.066 9.41161H127.704V11.0789L126.363 12.1102H121.911C119.895 12.1102 118.886 11.1018 118.886 9.08509V3.27544C118.886 1.2587 119.895 0.250319 121.911 0.250296H126.363L127.704 1.28156Z" fill="#F4F4F4"/>
<path d="M132.548 4.23795L136.124 0.250296H138.942L139.217 0.834679L135.367 5.13171L139.664 11.5258L139.389 12.1102H136.639L133.442 7.29747L132.548 8.22561V12.1102H129.558V0.250296H132.548V4.23795Z" fill="#F4F4F4"/>
<path d="M153.855 2.94882H150.417V12.1102H147.427V2.94882H143.989V0.250296H153.855V2.94882Z" fill="#F4F4F4"/>
<path d="M158.256 4.71921H161.832V0.250296H164.822V12.1102H161.832V7.41783H158.256V12.1102H155.266V0.250296H158.256V4.71921Z" fill="#F4F4F4"/>
<path d="M175.46 2.94882H170.149V4.71921H174.945V7.41783H170.149V9.41161H175.46V12.1102H167.158V0.250296H175.46V2.94882Z" fill="#F4F4F4"/>
</svg>
