<?xml version="1.0" encoding="UTF-8"?><svg id="a" xmlns="http://www.w3.org/2000/svg" viewBox="0 0 387.365 157.521"><path d="m320.392,98.059c0-4.147,3.368-7.512,7.512-7.512s7.511,3.366,7.511,7.512-3.362,7.511-7.511,7.511-7.512-3.364-7.512-7.511" fill="#86bc25" stroke-width="0"/><path d="m95.013,77.667c0,8.668-2.332,15.35-6.993,20.038-4.661,4.692-11.213,7.037-19.657,7.037h-16.412v-51.95h17.558c8.143,0,14.43,2.134,18.861,6.396,4.428,4.265,6.644,10.422,6.644,18.479m-14.227.495c0-4.759-.919-8.289-2.759-10.589-1.84-2.297-4.63-3.446-8.381-3.446h-3.989v29.102h3.053c4.165,0,7.218-1.236,9.16-3.714,1.943-2.474,2.915-6.26,2.915-11.353" stroke-width="0"/><rect x="140.471" y="52.574" width="13.059" height="52.168" stroke-width="0"/><path d="m196.386,85.283c0,6.336-1.661,11.28-4.992,14.824-3.327,3.546-7.987,5.318-13.976,5.318-5.745,0-10.314-1.812-13.709-5.439-3.397-3.625-5.095-8.525-5.095-14.704,0-6.317,1.664-11.226,4.994-14.726,3.329-3.499,8-5.249,14.012-5.249,3.716,0,7.002.81,9.851,2.43,2.851,1.619,5.049,3.939,6.597,6.961,1.547,3.017,2.319,6.548,2.319,10.585m-24.512,0c0,3.327.434,5.864,1.302,7.607.869,1.744,2.326,2.616,4.374,2.616,2.027,0,3.458-.872,4.293-2.616.835-1.743,1.251-4.28,1.251-7.607,0-3.309-.422-5.804-1.268-7.489-.847-1.689-2.293-2.534-4.343-2.534-2.004,0-3.438.841-4.308,2.516-.868,1.676-1.302,4.178-1.302,7.508" stroke-width="0"/><rect x="201.571" y="65.992" width="13.06" height="38.75" stroke-width="0"/><rect x="201.571" y="52.574" width="13.06" height="8.731" stroke-width="0"/><path d="m241.093,94.858c1.762,0,3.863-.447,6.313-1.336v9.75c-1.762.771-3.435,1.327-5.026,1.656-1.591.332-3.458.497-5.596.497-4.385,0-7.547-1.102-9.486-3.302-1.934-2.199-2.902-5.579-2.902-10.138v-15.974h-4.574v-10.019h4.574v-9.894l13.159-2.29v12.184h8.333v10.019h-8.333v15.083c0,2.508,1.181,3.763,3.538,3.763" stroke-width="0"/><path d="m271.32,94.858c1.762,0,3.862-.447,6.313-1.336v9.75c-1.759.771-3.435,1.327-5.026,1.656-1.594.332-3.455.497-5.596.497-4.385,0-7.547-1.102-9.483-3.302-1.937-2.199-2.905-5.579-2.905-10.138v-15.974h-4.577v-10.019h4.577v-10.044l13.159-2.14v12.184h8.336v10.019h-8.336v15.083c0,2.508,1.18,3.763,3.538,3.763" stroke-width="0"/><path d="m312.53,69.875c-3.103-3.044-7.508-4.566-13.206-4.566-5.989,0-10.598,1.749-13.829,5.25-3.227,3.499-4.842,8.521-4.842,15.065,0,6.338,1.744,11.225,5.226,14.655,3.486,3.431,8.379,5.148,14.681,5.148,3.027,0,5.632-.207,7.813-.617,2.169-.407,4.27-1.142,6.308-2.203l-2.007-8.731c-1.481.605-2.891,1.069-4.22,1.376-1.923.445-4.032.669-6.326.669-2.518,0-4.505-.615-5.962-1.847-1.456-1.231-2.232-2.932-2.321-5.098h23.345v-5.948c0-5.724-1.555-10.108-4.66-13.151m-18.417,10.688c.179-2.121.784-3.676,1.819-4.67,1.038-.991,2.322-1.487,3.857-1.487,1.672,0,3.003.559,3.99,1.678.994,1.116,1.511,2.609,1.552,4.479h-11.219Z" stroke-width="0"/><path d="m130.763,69.875c-3.105-3.044-7.509-4.566-13.209-4.566-5.989,0-10.598,1.749-13.825,5.25-3.229,3.499-4.844,8.521-4.844,15.065,0,6.338,1.742,11.225,5.228,14.655,3.484,3.431,8.377,5.148,14.678,5.148,3.027,0,5.632-.207,7.814-.617,2.168-.407,4.27-1.142,6.308-2.203l-2.007-8.731c-1.481.605-2.89,1.069-4.218,1.376-1.925.445-4.034.669-6.328.669-2.516,0-4.505-.615-5.962-1.847-1.458-1.231-2.232-2.932-2.321-5.098h23.344v-5.948c0-5.724-1.551-10.108-4.658-13.151m-18.419,10.688c.178-2.121.785-3.676,1.82-4.67,1.036-.991,2.32-1.487,3.858-1.487,1.669,0,3,.559,3.99,1.678.991,1.116,1.508,2.609,1.553,4.479h-11.221Z" stroke-width="0"/></svg>