<svg width="500" height="98" viewBox="0 0 500 98" fill="none" xmlns="http://www.w3.org/2000/svg">
<g clip-path="url(#clip0_769_763)">
<path d="M71.6561 80.6131V95.5414H0V0H69.7452V14.9283H17.7946V39.7691H63.8933V54.3392H17.7946V80.7325H71.6561V80.6131Z" fill="white"/>
<path d="M189.888 91.1229C184.395 88.2566 179.857 83.9573 176.752 78.7025C173.527 73.2089 171.855 66.9987 171.974 60.6691C171.855 54.3394 173.527 48.1293 176.752 42.6356C179.857 37.3808 184.395 33.0815 189.769 30.2152C195.621 27.1101 202.189 25.677 208.877 25.7965C214.968 25.677 221.059 27.1101 226.553 29.857C231.449 32.4844 235.51 36.5449 238.017 41.5608L225.717 48.7264C223.925 45.7407 221.417 43.3522 218.431 41.6802C210.43 37.6197 200.637 38.9334 193.949 45.1436C190.008 48.9652 188.097 54.22 188.097 60.6691C188.097 67.1181 190.008 72.3729 193.949 76.1945C200.517 82.4047 210.31 83.8379 218.431 79.6579C221.417 77.9859 224.045 75.478 225.717 72.4923L237.898 79.6579C235.39 84.6738 231.33 88.7344 226.314 91.4812C220.939 94.3474 214.849 95.7805 208.758 95.5417C202.309 95.6611 195.86 94.1086 189.888 91.1229Z" fill="white"/>
<path d="M301.672 74.6415L310.032 84.4345C306.927 88.1367 302.986 91.003 298.567 92.6749C286.982 96.9743 274.084 96.2577 262.978 91.003C257.484 88.2561 252.946 83.8374 249.721 78.5826C243.511 67.3565 243.511 53.8612 249.602 42.6351C252.468 37.3803 256.887 33.081 262.142 30.2147C273.248 24.3628 286.385 24.2434 297.611 29.8565C302.747 32.6033 307.046 36.6638 310.032 41.6797C313.137 47.1733 314.809 53.3835 314.57 59.7132L262.38 69.9839C263.933 73.8055 266.68 76.9106 270.143 78.9409C274.084 81.0905 278.503 82.1654 283.041 82.046C290.088 82.2848 296.775 79.538 301.672 74.6415ZM266.083 44.3071C262.5 48.1288 260.709 53.2641 260.709 59.7132V59.8326L299.164 52.4281C298.209 48.3676 295.82 44.9042 292.476 42.3963C289.013 39.7689 284.713 38.4552 280.295 38.5746C274.92 38.3358 269.785 40.366 266.083 44.3071Z" fill="white"/>
<path d="M335.947 89.6895C332.006 85.8678 329.976 80.3742 329.976 73.328V0H345.979V72.2532C345.979 79.0605 349.204 82.4045 355.533 82.4045C357.564 82.4045 359.474 82.0462 361.266 81.0908L361.982 93.8694C358.877 94.9443 355.653 95.5414 352.428 95.5414C345.382 95.5414 339.888 93.6306 335.947 89.6895Z" fill="white"/>
<path d="M438.296 26.5127V94.586H423.129V85.8678C420.501 89.0923 417.158 91.6003 413.336 93.1528C409.275 94.8248 404.857 95.6608 400.557 95.5414C394.347 95.6608 388.256 94.1083 382.763 91.242C377.627 88.3758 373.328 84.1958 370.581 79.0605C367.595 73.4474 366.043 67.1178 366.162 60.6688C366.043 54.3391 367.595 48.0095 370.581 42.3965C373.447 37.2611 377.627 33.0812 382.763 30.2149C388.256 27.2293 394.347 25.7962 400.557 25.9156C404.737 25.9156 408.917 26.6321 412.739 28.1847C416.441 29.7372 419.665 32.0063 422.412 34.992V26.7516L438.296 26.5127ZM416.799 76.0748C420.621 72.1337 422.532 66.9984 422.532 60.6688C422.532 54.3391 420.621 49.2038 416.799 45.2627C408.678 37.5 395.9 37.5 387.779 45.2627C384.076 49.2038 382.165 54.3391 382.165 60.6688C382.165 66.9984 384.076 72.1337 387.898 76.0748C396.019 83.8376 408.798 83.8376 416.799 76.0748Z" fill="white"/>
<path d="M498.726 25.9155V41.0827C497.532 40.8439 496.218 40.7244 495.024 40.7244C488.814 40.7244 483.917 42.5158 480.454 46.0987C476.99 49.6815 475.199 54.9362 475.199 61.7436V94.8248H459.196V26.7515H474.363V36.6639C479.021 29.4983 487.142 25.9155 498.726 25.9155Z" fill="white"/>
<path d="M141.043 83.9567L149.403 95.5411H167.436L149.761 72.4917L141.043 83.9567Z" fill="white"/>
<path d="M167.436 27.4683H149.403L140.924 38.4555L149.761 49.5622L167.436 27.4683Z" fill="white"/>
<path d="M96.7357 27.4683L123.248 60.6689L96.7357 95.5415H114.291L114.889 94.8249L140.804 60.6689L114.291 27.4683H96.7357Z" fill="white"/>
<path d="M123.248 60.6689L96.7357 27.4683H79.0605L105.573 60.6689L79.0605 95.5415H96.7357L123.248 60.6689Z" fill="white"/>
<path d="M123.248 60.6689L96.7357 27.4683H79.0605L105.573 60.6689L79.0605 95.5415H96.7357L123.248 60.6689Z" fill="url(#paint0_linear_769_763)"/>
</g>
<defs>
<linearGradient id="paint0_linear_769_763" x1="82.2913" y1="57.213" x2="117.427" y2="84.1079" gradientUnits="userSpaceOnUse">
<stop stop-color="#3AB4FF"/>
<stop offset="0.4" stop-color="#3AB4FF"/>
<stop offset="0.49" stop-color="#2CACFF"/>
<stop offset="0.68" stop-color="#149EFF"/>
<stop offset="0.85" stop-color="#0596FF"/>
<stop offset="1" stop-color="#0093FF"/>
</linearGradient>
<clipPath id="clip0_769_763">
<rect width="500" height="97.1338" fill="white"/>
</clipPath>
</defs>
</svg>
