<svg width="351" height="286" viewBox="0 0 351 286" fill="none" xmlns="http://www.w3.org/2000/svg">
<mask id="mask0_2274_711" style="mask-type:luminance" maskUnits="userSpaceOnUse" x="14" y="9" width="323" height="271">
<path d="M14.7822 9.69629H336.041V279.904H14.7822V9.69629Z" fill="white"/>
</mask>
<g mask="url(#mask0_2274_711)">
<path d="M29.0345 162.498C29.0345 160.863 28.8009 159.695 27.9831 158.877C28.1 159.928 27.2822 159.928 26.9318 160.396C27.9831 160.863 27.8663 162.265 29.0345 162.498ZM59.8754 225.582C66.4173 226.4 72.8425 230.021 78.3331 230.255C73.3098 228.035 66.8846 222.428 59.8754 225.582ZM86.0433 230.722C84.4078 231.657 80.9032 228.619 79.8518 231.773C81.9546 231.423 85.576 232.591 86.0433 230.722ZM84.5246 237.381C84.291 235.628 86.6274 236.446 86.6274 234.811C84.9919 234.694 84.8751 236.213 83.006 235.862C83.006 235.161 83.7069 235.161 83.4733 234.343C81.9546 234.46 81.02 234.928 81.3705 236.914C82.6555 236.797 83.9405 236.797 84.5246 237.381ZM127.515 254.32C129.267 252.801 134.524 254.787 136.276 253.268C133.823 251.399 128.099 252.918 125.529 251.166C125.763 252.801 126.463 253.736 127.515 254.32ZM137.328 256.89C134.641 254.554 141.884 256.189 142.468 255.839C139.314 253.853 132.772 254.67 128.099 255.371C130.786 256.306 135.225 259.81 137.328 256.89ZM143.519 257.357C149.01 256.189 156.72 257.24 163.029 256.89C161.86 255.605 158.005 257.124 157.421 255.371C154.267 257.941 148.543 255.371 144.103 255.839C144.103 255.254 143.403 255.488 143.636 256.306C142.935 256.306 142.818 257.24 143.519 257.357ZM215.832 18.3409C214.43 18.4578 212.327 17.8737 212.21 19.3923C213.846 19.5092 215.248 19.3923 215.832 18.3409ZM242.934 244.04C244.687 244.04 245.621 243.339 246.556 242.521C245.037 242.638 243.402 242.755 242.934 244.04ZM242.934 246.61C245.621 245.675 248.074 244.507 250.06 242.988C247.373 243.923 244.57 244.624 242.934 246.61ZM268.635 232.708C267.467 232.708 267.116 233.526 265.598 233.175C265.13 234.227 264.079 234.694 264.079 236.213C266.065 235.628 268.051 234.928 268.635 232.708ZM270.154 232.241C272.373 231.54 275.06 228.619 274.242 226.633C273.074 228.736 270.504 229.32 270.154 232.241ZM304.032 200.465C301.929 200.115 300.293 204.904 300.994 204.087C301.812 202.685 303.097 201.867 304.032 200.465ZM317.349 182.008C316.648 181.891 316.882 180.722 316.882 179.905C315.013 179.321 316.064 181.774 314.312 181.423C315.597 183.526 312.91 184.344 313.845 185.512C314.663 183.993 316.064 183.176 317.349 182.008ZM320.387 182.008C321.088 181.073 320.971 178.036 319.335 177.919C320.153 178.853 319.452 181.307 320.387 182.008ZM324.008 133.293C324.359 126.517 321.438 114.368 318.868 107.125C317.233 106.775 317.934 108.527 316.298 108.176C315.831 107.008 315.013 106.424 315.247 104.555C312.91 104.905 313.377 108.176 312.209 109.695C310.106 106.775 316.999 100.583 313.261 95.7934C313.611 100.116 308.821 102.335 306.135 99.4149C308.004 98.013 308.004 96.728 307.653 95.3261C311.158 96.0271 307.887 97.4289 308.705 98.9476H311.275C313.261 94.2747 310.106 90.5365 306.602 89.7187C309.99 86.6814 306.018 81.7749 304.499 78.9712C302.396 78.7375 301.812 80.0226 300.878 81.074C299.709 80.0226 298.191 79.3216 297.84 77.4525C299.476 77.5693 300.293 76.8684 300.41 75.3497C300.644 73.7142 299.008 73.9479 298.892 72.7796C297.022 72.4292 296.906 73.9479 295.27 73.831C295.387 70.2096 292.35 72.7796 291.649 69.7423C291.298 67.8732 293.635 68.5741 293.752 67.1722C291.882 64.9526 289.896 62.8498 287.56 60.9807C289.195 66.2377 285.34 69.8591 282.887 72.7796C280.668 68.9245 284.99 64.719 284.406 62.4994C281.252 69.8591 266.299 61.9153 273.074 56.892C274.71 58.0602 275.294 60.163 276.696 61.5648C278.798 61.6816 280.434 61.5648 281.368 60.5134C280.317 54.906 275.527 49.2986 269.57 51.7518C269.219 50.1163 267.7 49.5322 266.999 48.1304C267.233 46.8453 268.985 47.079 268.518 45.093C262.677 42.8734 258.705 38.7847 250.528 38.9015C250.294 37.0323 248.425 36.9155 247.49 35.8641C245.387 36.2146 244.92 38.0837 242.35 37.9669C242.233 35.3968 242.117 31.3081 238.729 30.8408C238.612 31.7754 238.378 32.5931 237.677 32.9436C236.86 31.7754 235.575 28.6212 234.056 29.9062C234.99 30.3735 236.042 31.0745 235.107 32.009C232.07 30.2567 228.916 27.3362 224.827 29.439C222.14 26.9857 218.285 23.0138 213.495 24.2988C215.832 25.3502 217.818 26.7521 219.103 28.9717C214.897 30.3735 213.963 24.6493 210.925 23.3643C209.29 23.2474 212.21 24.8829 210.458 24.8829C209.173 23.7147 207.537 23.0138 205.318 22.7801C205.551 25.7007 209.173 25.1166 210.458 26.8689C207.304 28.738 201.696 33.995 198.192 29.439C200.294 29.439 202.397 29.5558 203.799 28.9717C203.449 19.0419 193.986 21.0278 186.86 21.2615C185.458 21.9624 188.729 22.4297 187.911 24.2988C185.692 23.9484 184.991 25.2334 182.771 24.7661C181.72 23.7147 178.332 19.3923 177.164 23.2474C178.566 23.3643 180.669 22.7801 180.785 24.2988C178.215 27.6866 172.958 32.8268 167.468 29.9062C180.902 24.5325 157.187 16.8223 152.631 23.2474C146.206 21.6119 142.118 24.9998 137.795 26.8689C138.613 30.9576 134.991 29.9062 133.706 28.3876C133.59 30.1399 133.122 31.6586 132.188 32.4763C130.903 33.1772 127.982 34.2286 127.048 32.4763C127.515 30.8408 130.435 31.7754 130.085 29.439C123.076 24.7661 115.716 31.3081 111.16 34.1118C110.926 35.981 113.029 35.3968 112.679 37.1492C110.809 37.4996 107.422 36.3314 107.071 38.2006C109.524 39.0183 111.16 40.537 113.263 41.822C111.861 44.3921 109.174 41.2379 107.655 40.7706C96.9077 39.3688 92.118 46.378 86.6274 48.4808C87.9125 46.1444 91.0666 42.9902 91.3003 41.3547C88.6134 43.2239 84.1742 43.4575 85.1087 49.0649C82.5387 49.4154 79.6181 49.2986 77.3985 50.1163C81.6041 56.0742 75.4126 63.4339 70.7397 63.4339C72.9593 60.5134 75.9967 58.4106 75.4126 52.6864C70.6229 53.1537 68.2865 56.191 65.1323 58.2938C64.5482 59.9293 66.7678 58.6443 66.1837 60.3966C64.4314 60.8639 64.1977 62.8498 63.6136 64.4853C53.3334 67.7563 48.8942 77.102 41.8849 83.9945C42.5858 85.8636 40.2494 87.0318 41.4176 87.6159C47.4923 79.2048 52.3988 69.5086 63.4968 66.1208C62.7959 69.8591 56.6044 70.9105 56.3707 73.2469C57.7726 71.9619 61.394 73.5974 61.9781 73.2469C63.0295 75.3497 61.6277 78.8544 58.9408 78.8544C58.2399 78.3871 57.3053 78.0366 57.4221 76.7516C56.838 75.2329 60.4595 74.4151 57.8894 74.1815C50.8801 75.9338 47.3755 82.1253 43.5204 87.4991C40.483 91.8215 36.1606 96.728 36.8616 101.868C39.6653 99.4149 45.8568 99.999 45.6232 104.905C43.8708 104.438 43.9877 102.102 41.5344 102.335C36.8616 106.775 30.0859 111.681 29.7355 118.69C30.7869 116.004 32.4224 113.784 35.3429 113.083C36.1606 113.667 38.0298 114.602 36.8616 115.653C36.3943 115.653 36.2775 116.004 35.8102 116.12C34.4083 116.237 35.4597 114.134 33.7074 114.602C31.0205 117.639 27.399 122.662 29.0345 128.503C29.2682 125.583 30.3196 120.91 32.0719 121.377C30.5532 124.648 29.385 128.27 29.5018 133.176C31.2541 134.812 36.0438 133.41 36.1606 136.798C29.0345 134.695 25.2963 146.26 29.5018 152.218C31.2541 150.232 31.6046 146.727 32.5392 144.041C33.3569 149.648 30.3196 151.4 29.5018 155.372C33.7074 153.737 36.8616 155.84 37.6793 158.994C35.4597 158.293 37.0952 161.447 35.1092 161.097C33.941 160.746 34.7588 158.41 32.5392 158.994C31.8383 162.265 34.9924 161.681 35.5765 163.667C33.5906 168.573 34.7588 171.727 37.0952 175.466C39.6653 176.166 39.6653 174.18 41.7681 174.414C38.4971 183.643 44.9222 190.302 48.4269 195.909C49.4783 192.171 49.5951 187.498 53.567 186.68C54.6184 188.55 52.3988 190.769 51.4642 192.288C51.4642 201.75 56.2539 206.306 61.1604 210.746C60.6931 210.746 60.5763 211.68 61.1604 211.797C61.8613 211.446 61.2772 209.811 62.2118 209.694C67.3519 218.573 77.9826 224.647 86.277 228.619C79.735 225.348 69.6883 217.171 75.5294 208.059C78.2163 207.708 79.6181 208.76 80.2023 210.629C79.5013 211.68 79.3845 213.199 77.6322 213.199C76.1135 212.381 75.9967 211.563 77.1649 210.161C70.7397 215.185 79.5013 224.063 84.8751 225.582C88.1461 224.998 88.4966 220.559 92.0012 219.974C97.6086 218.923 102.866 223.83 98.66 229.203C98.0759 226.867 99.2441 221.493 95.6226 223.012C97.4918 224.18 92.7021 225.465 92.0012 224.063C92.118 222.895 93.6367 222.895 94.104 221.96C86.0433 225.465 94.104 235.628 100.295 233.759C101.581 235.161 101.697 237.848 104.384 237.848C105.903 237.147 105.786 234.811 108.006 234.811C109.174 246.96 125.062 244.507 132.071 250.698C134.174 247.544 139.314 254.203 141.767 250.698C135.108 247.778 130.319 242.988 128.449 235.278C129.384 235.044 128.8 233.292 130.552 233.759C130.786 248.946 149.01 255.488 165.482 252.684C164.664 249.063 162.328 250.815 159.874 251.633C159.758 250.932 159.057 250.815 158.823 250.114C159.173 248.712 160.342 248.128 160.926 247.077C158.823 245.558 158.472 242.287 157.888 239.367H161.51C161.977 240.885 163.613 241.47 163.029 244.04C170.038 254.437 192 251.516 205.084 251.75C205.435 250.465 207.187 250.465 208.122 249.647C208.706 250.348 210.107 250.465 210.692 251.166C210.808 249.764 212.21 249.647 213.262 249.063C214.664 249.063 214.43 250.698 215.832 250.582C216.766 248.479 219.453 251.166 219.453 248.479C219.103 247.311 215.598 246.843 214.78 248.012C215.364 248.128 215.949 248.128 215.832 249.063C213.028 248.596 210.341 248.012 210.224 244.974H214.313C215.248 244.04 214.897 241.82 216.883 241.937C217.818 243.222 216.416 243.923 217.35 245.558C227.747 248.596 237.327 242.404 245.504 238.899C238.612 240.769 235.691 235.862 232.654 232.241C233.238 230.722 235.107 230.605 237.327 230.722C235.925 233.175 239.663 235.044 237.327 235.395C242.117 238.432 248.191 235.278 252.747 233.876C252.63 232.007 253.098 230.839 254.266 230.255C255.434 231.423 258.238 233.409 260.457 231.773C258.588 231.306 256.836 230.605 256.836 228.152C258.939 228.035 259.64 229.086 261.976 228.619C263.962 227.801 264.079 225.231 266.649 224.998C268.635 225.582 266.299 227.685 267.7 228.619C273.658 224.18 280.901 221.026 285.107 214.717C280.434 216.119 274.359 212.381 278.915 209.577C281.602 209.46 280.434 212.147 281.018 213.199C282.186 212.848 284.756 213.783 285.107 212.732C283.471 212.732 282.303 212.031 282.069 210.629C281.836 207.825 283.588 207.007 286.158 207.007C287.56 208.643 286.275 210.979 285.107 211.68C291.298 211.914 292.466 205.255 296.438 205.021C296.088 202.451 297.723 201.4 298.541 198.83C296.906 196.727 294.102 199.063 294.452 195.208C300.293 196.61 307.069 195.559 308.821 191.12C306.602 189.835 304.499 192.521 301.111 191.587C299.242 188.55 298.424 178.503 306.251 181.891C303.214 182.008 300.293 184.578 302.163 188.082C304.966 188.666 304.032 185.512 305.784 185.045C306.135 186.914 306.952 188.316 308.821 188.666C313.377 187.381 311.392 179.554 315.48 177.919C315.247 174.414 315.48 171.377 317.583 170.209C317.934 168.456 315.48 169.508 316.064 167.638C318.751 164.952 320.036 160.629 322.723 157.942C321.088 156.891 321.555 155.255 319.686 156.891C321.555 153.386 324.943 148.48 323.307 142.989C322.49 144.625 323.074 145.793 323.307 147.662C321.555 150.115 318.284 151.284 317.116 154.321C314.896 146.611 325.176 144.274 323.775 137.382C322.49 139.485 321.088 141.587 319.102 142.989C318.518 142.171 317.116 142.171 316.532 141.471C317.466 141.587 317.7 141.003 317.583 139.952C314.078 140.77 313.027 134.578 310.457 137.849C311.625 138.316 313.728 137.966 313.494 139.952C312.092 139.134 309.522 139.485 309.406 137.382C309.873 135.513 310.574 133.76 313.027 133.76C314.896 134.344 313.845 137.732 316.064 137.849C315.948 135.513 315.948 133.293 317.583 132.709C319.102 132.709 320.504 132.943 320.153 134.812C319.803 137.615 317.349 133.293 317.583 135.863C319.803 136.798 320.971 136.214 322.723 135.396C322.723 132.826 322.957 130.022 321.672 128.737C318.985 128.387 317.233 130.139 316.532 127.686C318.518 125.816 316.415 122.429 317.583 120.56C321.789 122.545 323.424 127.335 324.008 133.293ZM51.9315 66.9386C51.1138 67.7563 49.3614 67.8732 49.5951 66.004C52.0483 64.9526 53.6838 66.004 55.2025 62.3826C52.8661 62.4994 53.8006 60.0461 55.2025 59.8125C56.838 59.2284 55.553 61.448 57.3053 60.8639C60.6931 59.1116 63.7305 55.0228 64.4314 52.1023C66.651 52.2191 67.0014 50.5836 68.5201 49.9995C69.5715 48.364 68.7538 47.3126 71.5575 46.9621C72.3752 43.5743 77.3985 37.9669 79.2677 35.6305C78.5668 38.0837 75.4126 41.0043 75.6462 42.7566C79.1509 38.3174 87.3283 34.2286 84.4078 25.3502C83.006 24.8829 81.6041 26.8689 80.7864 25.3502C81.4873 24.4156 81.9546 23.1306 83.8237 23.2474C90.833 27.453 82.305 37.0323 82.305 41.7052C87.4452 40.1865 90.9498 37.0323 94.5713 33.995C93.1694 33.0604 92.0012 32.1258 92.0012 29.9062C95.1554 28.5044 94.4544 33.5277 96.674 31.4249C96.2068 30.8408 94.8049 31.3081 95.1554 29.9062C96.9077 29.0885 97.375 32.1258 98.1927 30.3735C98.3095 28.9717 99.3609 23.9484 103.333 22.6633C103.216 24.2988 102.165 26.8689 103.333 28.2707C106.721 28.9717 105.085 24.5325 107.422 24.182C108.239 24.8829 107.772 26.8689 109.524 26.7521C115.015 24.2988 121.207 22.6633 121.323 14.9531H126.931C128.917 13.6681 129.384 10.8644 132.071 10.2803C133.473 10.9812 133.59 12.8503 135.692 12.8503C137.328 12.0326 138.146 10.5139 140.365 10.2803C146.206 14.369 156.019 8.52795 161.86 12.3831C155.201 10.9812 145.155 14.8363 139.314 11.3317C137.912 12.1494 136.977 13.4344 135.225 13.9017C133.005 13.9017 133.356 11.3317 131.136 11.3317C129.618 14.8363 126.23 16.355 121.907 16.9391C123.192 22.3129 115.833 23.4811 113.146 26.6352C121.674 26.5184 128.683 24.6493 131.136 18.4578C133.239 18.3409 132.538 20.7942 134.174 21.0278C136.393 14.369 147.141 22.897 152.631 16.355C159.991 17.8737 170.972 16.1213 179.267 15.8877C184.056 15.7709 188.963 16.4718 193.636 16.355C205.785 16.0045 216.766 13.6681 227.981 12.2662C225.528 13.5513 221.322 13.084 220.271 15.8877C223.308 16.2382 227.747 15.1868 229.967 16.355C226.229 17.7568 218.986 15.6541 216.649 18.4578C218.051 18.3409 219.22 18.3409 218.752 19.9764C224.944 23.2474 232.654 24.8829 241.883 25.1166C241.299 26.2848 238.612 25.3502 237.21 25.5839C242.817 29.9062 254.383 30.2567 263.845 29.2053C263.728 31.1913 261.742 31.1913 261.275 32.8268C263.612 33.8782 265.831 36.4482 263.845 39.0183H267.467C268.985 38.0837 267.7 34.4623 269.57 33.8782C272.607 35.1632 272.373 39.1351 270.621 41.5884C272.023 43.9248 275.06 43.2239 277.28 43.6912C277.747 45.6771 275.527 46.1444 276.812 47.3126C280.668 49.2986 288.378 52.2191 290.714 47.3126C290.948 45.5603 287.443 46.4949 289.195 44.7425C293.167 43.3407 291.298 48.5976 290.714 49.4154C287.794 53.2705 279.967 49.8827 276.812 48.364C280.551 55.2565 298.424 54.5555 298.892 45.3266C297.957 43.3407 293.051 45.4435 292.7 42.7566C297.607 37.4996 301.812 45.5603 300.41 49.8827C309.406 37.3828 291.065 25.9343 285.574 38.551C285.224 41.1211 286.041 42.5229 286.041 44.7425C283.238 43.3407 284.055 38.2006 281.368 36.5651C282.537 36.4482 283.588 35.981 283.939 35.0464C279.382 35.5137 271.672 30.6072 273.658 26.2848C282.42 33.2941 304.85 26.5184 303.915 43.2239C304.382 41.822 305.434 38.3174 306.485 39.1351C303.681 43.5743 303.915 48.1304 301.812 53.5041C298.658 53.7378 293.284 55.4901 296.205 58.6443C299.008 59.1116 298.424 56.0742 300.293 55.6069C301.929 56.0742 301.579 58.4106 303.331 58.6443C305.083 58.7611 305.317 56.0742 306.952 57.5929C306.485 62.6162 313.027 64.6022 309.99 68.9245C309.406 64.4853 300.41 57.4761 299.242 65.8872C300.06 67.289 302.046 64.719 302.864 66.3545C301.462 68.5741 303.331 71.261 303.915 73.0133C308.237 73.3638 308.004 78.1534 312.092 78.6207C314.312 78.5039 315.363 77.102 317.233 76.5179C316.648 79.2048 312.443 80.2562 309.522 79.088C309.406 83.9945 314.546 80.0226 316.181 81.1908C316.181 83.0599 315.714 84.4618 315.13 85.8636C316.999 86.5645 319.569 86.5645 320.27 88.4337C318.634 88.5505 317.934 86.5646 316.648 87.9664C317.817 91.471 315.831 92.2888 315.597 94.1579C317.233 94.742 315.948 92.5224 317.7 93.1065C317.934 98.013 319.569 103.737 322.84 107.008C322.373 114.718 327.98 120.56 327.98 129.555C326.228 129.438 327.513 126.284 325.877 125.933C326.929 128.62 325.761 133.527 328.447 134.695V144.975C327.279 149.765 328.097 156.54 323.775 158.293C324.359 163.55 321.321 168.456 321.204 173.129C321.088 177.335 323.775 180.138 323.307 183.877C322.256 184.694 319.919 183.526 318.634 182.825C311.859 186.33 309.055 193.69 305.317 200.232C309.873 200.699 309.756 194.157 313.027 195.091C312.677 201.867 306.251 203.386 303.331 207.942C301.695 210.395 303.097 212.615 300.293 214.601C300.177 212.848 299.476 211.68 299.826 209.461C292.583 214.017 289.663 224.414 292.7 235.161C294.452 236.563 296.322 237.731 298.308 238.783C299.709 239.133 299.359 237.731 300.41 237.731C300.994 235.161 297.607 234.694 298.892 233.058C299.593 231.89 302.98 233.409 302.98 231.54C301.929 229.904 299.593 232.708 298.308 231.072C304.265 230.021 308.354 227.101 309.639 221.376C311.392 227.568 305.083 230.138 303.448 234.694C302.63 234.694 301.695 234.694 300.878 234.694C301.695 237.03 301.579 239.717 299.359 240.301C295.737 240.068 295.037 237.147 291.649 236.68C291.298 228.386 288.845 221.96 293.167 216.119C286.859 219.858 280.668 237.03 289.079 245.325C278.798 240.885 286.041 223.479 288.611 219.157C276.696 228.269 263.378 240.418 248.658 248.362C252.63 243.806 258.939 241.586 263.028 237.03C262.911 236.096 262.677 235.278 261.976 234.928C255.901 240.652 249.476 246.026 239.897 248.245C241.766 247.311 240.715 246.61 241.416 245.208C238.846 245.325 236.392 245.558 234.289 247.311C233.939 247.194 233.822 246.96 233.939 246.726C234.289 246.61 234.523 246.493 234.874 246.259C234.406 246.142 234.056 246.376 233.939 246.726C228.565 249.063 219.103 250.815 214.313 255.021C214.78 256.773 216.299 257.474 218.402 257.591C216.766 259.81 213.495 257.357 212.21 256.072C211.977 254.086 213.495 253.969 213.729 252.451C197.724 252.684 185.225 256.423 178.332 265.768C176.93 264.483 180.201 263.549 180.435 262.147C179.15 262.848 178.098 264.016 176.346 264.25C177.047 263.198 181.603 259.694 181.019 262.147C183.122 260.862 184.173 258.409 186.626 257.474C182.07 253.853 174.01 258.525 166.65 257.007C165.832 261.68 156.837 264.834 151.814 265.184C150.645 261.096 160.225 263.315 160.575 258.993H165.248C157.772 254.67 148.192 260.044 139.547 259.46C139.898 257.941 141.884 258.058 142.585 256.89C138.029 258.993 135.342 258.993 130.319 258.993C128.917 256.656 125.879 255.839 125.178 252.801C122.842 252.801 120.389 252.801 118.052 252.801C119.104 251.633 122.258 252.568 124.244 252.334C122.725 249.764 117.351 250.582 115.015 250.815C104.267 251.633 93.2862 256.89 85.8097 258.993C93.2862 253.152 104.501 251.049 116.534 249.764C109.641 248.362 102.749 248.245 95.9731 248.712C85.8097 249.53 77.2817 256.423 69.3379 251.283C66.4173 251.516 63.7305 251.399 62.6791 249.764C64.665 246.259 61.5109 244.857 62.6791 241.586C70.9734 260.161 100.996 241.236 117.001 249.764C118.169 249.647 118.87 248.946 120.622 249.297C116.3 245.558 109.992 242.638 102.165 245.208C101.347 243.339 103.917 244.857 103.683 243.689C101.464 242.755 96.9077 241.703 93.9872 243.222C92.7021 241.937 95.8563 240.769 97.6086 240.652C90.1321 237.03 73.0762 241.119 80.6695 249.413C71.7911 245.091 84.7583 240.652 80.2023 233.993C68.9874 231.773 54.0343 232.474 54.0343 244.741C53.6838 246.142 56.4875 244.39 56.1371 245.792C51.6979 250.348 53.0997 240.885 53.567 239.6C56.6044 231.072 70.8566 231.423 81.2536 232.942C70.8566 228.269 58.123 224.53 43.2867 225.815C41.4176 225.815 40.9503 227.217 39.6653 227.918C38.2634 228.035 38.6139 226.166 36.6279 226.867C37.4457 223.245 40.0157 221.376 40.2494 217.171C44.3381 221.61 50.4128 224.063 58.2399 224.881C52.6324 214.367 30.0859 215.535 20.7402 208.993C19.4552 208.059 14.0814 203.152 17.7029 200.816C20.7402 217.988 58.9408 213.199 71.0902 223.362C70.2724 219.273 63.38 216.703 59.2912 214.133C58.9408 212.615 59.8754 212.264 59.7585 211.096C56.7212 208.292 51.8147 207.007 46.4409 208.059C47.6091 206.19 46.3241 204.671 49.011 203.97C46.3241 196.61 43.5204 185.629 32.0719 190.068C32.0719 189.367 32.0719 188.666 32.0719 187.965C33.5906 186.914 34.4083 189.367 36.1606 187.498C34.8756 185.512 36.0438 185.629 36.1606 181.891C35.5765 180.489 33.5906 180.372 32.5392 179.321C32.4224 177.685 33.8242 177.568 35.1092 177.218C29.5018 171.61 28.4504 161.564 21.7916 157.241C22.0253 155.606 24.3617 155.956 25.8804 155.723C26.114 153.854 24.0112 154.438 24.3617 152.685C25.6467 152.802 26.8149 152.802 27.399 152.218C26.4645 149.414 24.2449 147.896 23.3103 145.092C25.4131 145.092 25.0626 147.428 26.3477 148.129C24.2449 143.573 24.2449 136.798 19.2216 135.279C19.2216 133.41 20.7402 133.059 22.843 133.176C22.6094 132.709 23.1935 129.204 22.3757 126.985C15.9506 125.116 15.2496 135.045 17.2356 140.302C15.1328 140.886 16.301 138.2 15.1328 137.732C15.1328 135.513 15.1328 133.293 15.1328 131.073H15.6001C15.7169 127.686 17.4692 125.816 20.2729 124.882C19.572 122.545 20.9739 119.041 22.3757 117.172C22.7262 121.144 20.3898 123.013 22.3757 125.933C24.829 124.999 24.128 126.284 25.9972 126.985C27.399 125.349 24.9458 124.298 24.9458 122.312C25.8804 120.91 27.2822 119.859 27.5159 117.639C25.8804 109.578 34.8756 101.401 30.0859 93.5738C28.1 92.8729 26.3477 94.9757 25.4131 93.5738C27.1654 90.7701 31.4878 92.8729 33.1233 94.6252C25.9972 82.359 38.4971 70.2096 36.1606 56.6583C40.9503 69.3918 26.4645 80.7235 33.5906 92.5224C33.941 80.1394 43.2867 72.546 43.8708 58.6443C42.9363 56.4247 39.7821 56.191 39.198 53.5041C41.5344 52.6864 45.0391 52.4527 46.9082 52.4527C52.6324 42.5229 49.7119 28.6212 35.5765 31.4249C34.5251 31.6586 33.5906 32.009 32.7728 32.4763C33.1233 32.2427 33.3569 31.8922 33.5906 31.4249C29.2682 31.7754 23.5439 32.71 20.7402 30.3735C22.9598 32.8268 19.8057 35.0464 21.2075 37.4996C23.0767 33.995 27.7495 34.9296 31.0205 33.5277C25.5299 37.8501 23.8944 47.3126 21.2075 52.92C21.6748 45.9108 24.7122 41.3547 26.8149 35.9809C22.6094 34.8127 22.843 38.2006 20.6234 39.0183C18.6374 37.7333 19.2216 34.6959 20.1561 32.8268C19.8057 30.2567 16.0674 27.453 18.0533 25.7007C21.7916 35.0464 39.5485 27.1025 46.2073 31.8922C43.5204 29.5558 37.7961 25.3502 40.0157 21.6119C43.0531 31.8922 52.7493 33.995 52.282 46.2612C51.581 64.4853 33.2401 78.6207 34.7588 95.7934C37.212 87.8496 39.7821 77.2189 44.4549 73.2469C43.6372 75.1161 41.4176 78.3871 41.8849 79.9057C42.8195 78.3871 43.9877 74.532 45.5063 75.2329C45.6232 75.9338 43.754 77.102 45.0391 77.3357C47.6091 74.532 50.296 69.5086 51.9315 66.9386Z" fill="#DCAA7A"/>
</g>
<path d="M324.008 69.6253C325.41 69.5085 325.643 70.3262 325.527 71.7281C324.242 71.8449 323.891 71.0272 324.008 69.6253Z" fill="#DCAA7A"/>
<path d="M319.919 57.3589C322.256 57.1252 321.321 53.6206 324.592 54.3215C323.541 56.1907 323.541 57.1252 324.592 58.9944C323.074 57.5925 322.256 58.6439 319.452 58.5271C317.933 56.7748 317.933 54.5552 318.401 51.8683C315.13 54.0879 306.602 52.3356 308.121 47.1954C308.471 45.9104 312.092 43.3403 312.793 47.1954C311.742 48.8309 310.457 47.3123 309.172 48.2468C311.275 55.1393 320.854 50.5833 320.971 45.2095C319.803 37.3825 308.821 38.317 306.135 44.1581C306.018 38.0834 319.803 36.3311 322.022 43.1067C321.321 47.5459 317.583 53.0365 319.919 57.3589Z" fill="#DCAA7A"/>
<path d="M323.541 77.3359C325.176 79.4387 324.826 86.7985 322.022 87.6162C323.307 83.5275 320.036 80.1396 323.541 77.3359Z" fill="#DCAA7A"/>
<path d="M320.971 62.967C322.256 67.1725 323.541 71.3781 323.541 76.8687C320.971 76.5182 320.971 78.7378 318.4 79.4387C318.868 74.2986 315.597 73.0136 314.312 69.7426C313.144 70.093 313.027 71.4949 312.209 72.3127C313.611 69.3921 311.041 60.981 317.816 61.5651C313.027 62.967 313.26 67.9903 316.298 71.2613C318.634 69.2753 319.452 65.7707 320.971 62.967Z" fill="#DCAA7A"/>
<path d="M321.438 28.6211C322.372 28.9716 321.555 29.5557 321.438 30.1398C314.195 30.6071 311.274 35.3967 306.602 38.3173C309.522 33.0603 315.246 30.6071 321.438 28.6211Z" fill="#DCAA7A"/>
<path d="M320.971 82.9433C321.087 85.2797 319.802 86.2143 317.349 85.9806C318.167 84.8124 321.672 83.8779 318.401 82.9433C318.517 81.7751 320.62 82.7097 320.971 82.9433Z" fill="#DCAA7A"/>
<path d="M319.919 89.1348C321.905 89.1348 321.789 91.8216 319.452 91.2375C319.218 90.1862 319.803 89.8357 319.919 89.1348Z" fill="#DCAA7A"/>
<path d="M319.919 63.5508C320.62 65.8872 317.816 66.004 316.882 65.0695C317.115 63.7844 318.751 63.9012 319.919 63.5508Z" fill="#DCAA7A"/>
<path d="M290.13 14.8368C297.607 15.3041 307.77 12.9677 315.831 13.7854C315.597 17.5237 305.434 12.8508 302.513 15.8882C298.775 13.2013 294.92 16.4723 290.714 16.3555C288.495 16.2386 286.392 14.2527 284.055 14.2527C281.135 14.3695 279.149 17.4069 276.345 17.29C273.191 17.29 271.322 14.6031 268.635 13.2013C260.925 15.3041 254.5 18.5751 244.57 18.3414C252.63 16.4723 261.743 15.6545 267.7 11.6826C271.439 11.7994 271.556 15.1873 274.827 15.7714C278.798 16.4723 280.434 13.4349 284.055 13.2013C286.041 13.0845 288.027 14.6031 290.13 14.8368Z" fill="#DCAA7A"/>
<path d="M313.728 74.2986C313.962 72.6631 311.976 72.8967 313.261 71.7285C313.962 71.9622 314.546 72.5463 314.779 73.2472C314.662 76.0509 311.859 77.6864 309.639 76.8687C310.924 75.8173 313.027 75.7004 313.728 74.2986Z" fill="#DCAA7A"/>
<path d="M295.854 17.29C296.205 17.5237 296.672 17.8741 297.373 17.7573C294.219 24.1825 282.303 23.3647 272.724 23.9489C263.611 24.4161 251.929 24.0657 242.467 22.8975C250.411 22.1965 265.831 23.5984 277.396 22.8975C283.705 22.547 294.92 21.8461 295.854 17.29Z" fill="#DCAA7A"/>
<path d="M272.256 244.039C276.462 240.418 278.681 234.811 281.952 230.138C278.798 236.096 276.579 247.31 272.256 253.736C271.205 251.399 273.892 247.31 272.256 244.039Z" fill="#DCAA7A"/>
<path d="M265.013 248.129C270.504 237.965 279.032 230.723 286.041 221.961C281.018 230.723 271.906 239.718 265.013 248.129Z" fill="#DCAA7A"/>
<path d="M269.686 17.874C268.518 21.6123 261.859 21.2618 257.42 21.4955C252.163 21.7291 246.322 21.6123 242 21.0282C241.299 20.7946 239.313 21.6123 239.43 20.5609H242.467C252.163 20.2104 263.378 21.4955 269.686 17.874Z" fill="#DCAA7A"/>
<path d="M247.607 9.69629C247.724 10.8645 247.49 11.6823 247.14 12.2664C245.504 12.5 245.504 11.215 245.621 9.69629H247.607Z" fill="#DCAA7A"/>
<path d="M222.958 18.3413C230.317 18.6918 236.158 17.5235 243.518 17.874C238.962 19.6263 227.981 20.4441 222.958 18.3413Z" fill="#DCAA7A"/>
<path d="M246.088 12.7334C243.285 16.238 236.743 16.1212 231.252 16.8221C235.458 14.7194 241.883 14.953 246.088 12.7334Z" fill="#DCAA7A"/>
<path d="M241.415 22.43C239.546 23.5983 235.224 22.7805 233.238 22.43C234.99 21.3786 239.546 21.9628 241.415 22.43Z" fill="#DCAA7A"/>
<path d="M231.135 20.4437C232.187 19.2755 235.341 20.2101 237.327 19.9765C236.743 22.4297 233.004 20.0933 231.135 20.4437Z" fill="#DCAA7A"/>
<path d="M232.771 251.283C232.887 248.596 236.976 249.764 238.962 248.713C237.21 249.647 234.289 251.75 232.771 251.283Z" fill="#DCAA7A"/>
<path d="M234.757 246.609C234.406 246.726 234.173 246.843 233.822 247.077C233.939 246.726 234.29 246.493 234.757 246.609Z" fill="#DCAA7A"/>
<path d="M231.135 21.4951C231.486 23.4811 228.682 22.0792 227.514 22.5465C227.514 22.196 227.514 21.8456 227.514 21.4951H231.135Z" fill="#DCAA7A"/>
<path d="M211.159 254.32C208.823 255.605 206.019 256.423 202.981 256.89C204.734 255.021 207.888 254.554 211.159 254.32Z" fill="#DCAA7A"/>
<path d="M122.959 254.787C112.211 256.423 104.852 261.329 98.3096 267.053C103.683 260.161 110.809 255.021 122.959 254.787Z" fill="#DCAA7A"/>
<path d="M98.3096 258.876C102.165 255.255 108.94 254.437 115.249 253.269C109.758 255.255 104.034 257.124 98.3096 258.876Z" fill="#DCAA7A"/>
<path d="M99.3608 21.4951C98.7767 22.6633 96.0898 21.7288 94.688 21.9624C95.6226 20.3269 97.6085 21.2615 99.3608 21.4951Z" fill="#DCAA7A"/>
<path d="M97.842 258.876C98.3093 260.511 96.557 259.927 96.3234 260.979C95.7393 260.862 95.9729 259.927 95.272 259.927C95.7393 259.226 96.557 258.876 97.842 258.876Z" fill="#DCAA7A"/>
<path d="M92.7022 22.4297C89.1976 22.5466 88.7303 18.8083 84.992 18.341C80.436 17.7569 76.8145 20.3269 74.7118 23.9484C74.4781 21.7288 76.9314 18.6914 79.3846 17.7569C84.8752 15.6541 90.0153 19.0419 92.7022 22.4297Z" fill="#DCAA7A"/>
<path d="M77.8658 29.0889C80.4359 31.4253 79.0341 37.5 78.3331 30.6075C77.749 30.7244 77.3986 30.4907 77.2817 30.1403C74.7117 29.0889 73.5435 32.1262 72.1416 30.6075C72.9594 29.3225 74.8285 29.3225 77.8658 29.0889Z" fill="#DCAA7A"/>
<path d="M73.6603 24.5322C74.9453 25.2332 72.9593 26.7518 73.193 28.1537C71.7911 27.2191 73.4266 25.35 73.6603 24.5322Z" fill="#DCAA7A"/>
<path d="M70.6226 38.3174C70.2721 42.5229 65.2488 50.8173 60.3423 53.7378C63.6133 48.4808 67.8188 44.0416 70.6226 38.3174Z" fill="#DCAA7A"/>
<path d="M62.4452 42.5234C62.562 47.5468 56.3705 55.257 53.2163 60.5139C54.6182 54.9065 60.2256 48.9486 62.4452 42.5234Z" fill="#DCAA7A"/>
<path d="M65.4828 28.1543C63.8473 30.958 59.0576 30.3739 55.7866 30.2571C58.9408 29.4393 62.9127 29.4393 65.4828 28.1543Z" fill="#DCAA7A"/>
<path d="M58.8239 54.7891C61.1604 55.3732 59.8753 58.0601 57.7726 56.8918C57.4221 55.3732 58.8239 55.8405 58.8239 54.7891Z" fill="#DCAA7A"/>
<path d="M57.7725 11.2148C51.3473 13.084 47.4922 22.0792 52.6324 28.1539C46.4408 23.5979 49.3614 11.2148 57.7725 11.2148Z" fill="#DCAA7A"/>
<path d="M48.0761 71.1445C48.1929 72.5464 47.8424 73.3641 46.5574 73.2473C46.3237 72.8968 45.9733 72.4296 46.0901 71.7286C46.4406 71.2614 47.1415 71.1445 48.0761 71.1445Z" fill="#DCAA7A"/>
<path d="M30.67 58.8784C25.4131 55.9579 34.5251 50.5841 35.3429 56.3083C34.0578 55.8411 33.3569 54.9065 31.7214 54.7897C31.0205 54.9065 30.9037 55.7242 30.2027 55.8411C30.4364 56.8924 31.7214 57.827 30.67 58.8784Z" fill="#DCAA7A"/>
<path d="M28.0998 187.148C26.4644 206.306 47.2585 207.241 58.3566 215.302C45.5062 208.643 25.7634 206.19 27.0485 187.148C25.413 185.979 22.9597 185.746 21.9083 184.11C25.9971 169.741 17.5859 159.578 14.7822 148.714C14.7822 148.363 14.7822 148.013 14.7822 147.662C18.9878 157.942 26.5812 169.274 22.9597 184.11C24.5952 185.162 27.0485 185.395 28.0998 187.148Z" fill="#DCAA7A"/>
<path d="M280.901 232.825L279.382 235.979C279.85 234.811 280.317 233.76 280.901 232.825Z" fill="#DCAA7A"/>
<path d="M274.827 244.273C275.761 244.858 274.359 245.442 274.242 246.026C273.425 245.558 274.827 244.858 274.827 244.273Z" fill="#DCAA7A"/>
<path d="M274.126 245.909C274.242 245.442 275.644 244.858 274.71 244.157C274.827 244.858 273.425 245.559 274.126 245.909ZM273.658 244.507C274.126 245.091 274.827 243.339 275.644 243.339C275.761 245.325 273.191 246.493 274.476 247.895C274.242 248.012 274.009 248.129 273.892 248.479C273.425 247.077 273.308 245.442 273.074 243.923C273.425 243.69 274.126 243.69 274.242 243.105C275.06 243.573 273.658 244.04 273.658 244.507Z" fill="#DCAA7A"/>
<path d="M270.27 242.404C273.775 238.899 277.28 235.395 280.901 232.007V232.825C278.798 234.811 276.696 236.913 274.71 239.016C272.023 241.82 269.102 244.507 266.299 247.31C265.831 247.778 265.481 248.362 265.13 248.829C265.948 247.427 266.883 246.142 267.934 244.74C268.752 243.923 269.57 243.105 270.27 242.404Z" fill="#DCAA7A"/>
<path d="M263.845 249.297C265.013 247.661 266.415 246.143 267.934 244.624C266.999 245.909 266.065 247.311 265.13 248.713C264.663 249.18 264.196 249.647 263.495 249.764C263.611 249.647 263.728 249.531 263.845 249.297Z" fill="#DCAA7A"/>
<path d="M267.934 244.623C266.532 246.025 265.013 247.544 263.845 249.296C267.467 244.156 271.555 239.366 275.761 234.577C275.995 234.577 276.345 234.46 276.579 234.46C273.541 237.731 270.621 241.119 267.934 244.623Z" fill="#DCAA7A"/>
<path d="M262.56 253.035C262.56 251.983 264.079 252.451 263.728 251.049C264.546 251.75 263.611 253.152 262.56 253.035Z" fill="#DCAA7A"/>
<path d="M262.56 250.114C263.728 250.465 262.443 250.932 262.209 251.516C261.392 251.166 262.56 250.465 262.56 250.114Z" fill="#DCAA7A"/>
<path d="M259.523 266.703C258.004 266.236 258.705 263.549 257.887 262.381C259.055 262.147 258.939 265.535 259.523 266.703Z" fill="#DCAA7A"/>
<path d="M256.719 265.769C255.784 262.264 257.537 260.629 256.836 258.059C256.719 257.474 255.901 258.409 255.667 258.643C254.032 257.241 255.667 256.54 256.252 255.255C259.523 256.073 260.924 252.918 261.508 250.115C262.209 249.998 262.56 249.647 263.494 249.881C263.611 249.647 263.728 249.531 263.845 249.297C263.728 249.414 263.611 249.647 263.494 249.764C264.195 249.647 264.663 249.18 265.13 248.713C264.896 248.947 264.779 249.297 264.546 249.531V252.918C263.027 253.853 261.742 254.904 261.859 257.474C261.158 257.474 261.275 258.409 260.457 258.292C259.756 262.031 261.625 267.521 263.494 270.325C264.429 271.843 266.882 272.428 266.298 274.414C262.209 273.829 262.326 270.792 260.34 268.339C259.99 268.339 260.107 268.806 259.99 269.157C258.822 268.806 259.99 268.222 259.756 267.171C261.275 268.222 261.625 270.442 263.144 271.493C262.443 268.806 259.639 266.82 259.99 264.016C258.588 263.783 258.822 261.213 258.938 258.876C259.289 258.876 259.172 259.344 259.172 259.694C259.639 259.694 259.289 258.876 259.756 258.876C256.602 255.605 257.537 263.432 257.42 265.769C256.602 265.068 257.653 262.731 256.836 262.031C256.135 263.199 257.186 264.834 256.719 265.769ZM263.728 251.049C264.079 252.451 262.56 251.984 262.56 253.035C263.611 253.152 264.546 251.75 263.728 251.049ZM262.326 251.517C262.56 250.933 263.845 250.465 262.677 250.115C262.56 250.465 261.392 251.166 262.326 251.517Z" fill="#DCAA7A"/>
<path d="M252.046 262.615C251.462 262.031 252.747 260.979 253.448 260.862C253.214 261.68 252.397 261.914 252.046 262.615Z" fill="#DCAA7A"/>
<path d="M253.565 260.862C252.747 260.979 251.462 262.03 252.163 262.615C252.397 261.914 253.214 261.68 253.565 260.862ZM254.967 259.46C254.616 260.979 252.514 263.199 250.644 264.016C250.528 263.315 251.813 263.783 251.579 262.848C251.229 262.731 250.06 262.848 249.827 263.432C250.294 261.68 252.28 258.993 255.084 258.643C254.85 259.577 254.032 259.928 253.565 260.629C254.5 260.745 254.383 259.694 254.967 259.46Z" fill="#DCAA7A"/>
<path d="M254.967 262.614C255.901 265.067 254.149 267.17 254.616 270.091H255.785C256.485 269.623 255.901 267.871 256.135 266.936C256.836 266.703 257.537 266.119 258.121 266.703C257.771 267.871 256.485 268.105 256.953 270.091C255.084 270.675 253.799 271.96 252.046 272.661C252.046 270.207 252.28 267.871 252.981 266.119C250.411 266.235 250.995 269.506 248.892 270.091C249.593 267.637 251.696 266.586 252.747 264.366C253.098 264.6 253.331 264.95 253.331 265.535C254.383 264.6 253.682 261.796 254.85 260.979C254.967 263.432 253.565 267.053 253.915 270.675C252.981 270.441 254.032 268.105 253.682 266.703C252.63 267.404 253.214 269.74 253.098 271.259C255.317 271.259 253.915 264.834 254.967 262.614Z" fill="#DCAA7A"/>
<path d="M245.387 266.586C246.439 265.535 247.957 263.666 249.126 263.783C247.957 264.717 247.14 266.119 245.387 266.586Z" fill="#DCAA7A"/>
<path d="M249.71 264.601C250.177 265.068 248.658 266.002 247.958 266.353C248.425 266.937 249.943 266.236 249.943 265.535C250.878 266.119 249.476 266.703 249.359 267.287C246.556 267.054 244.57 270.091 240.948 270.091C241.532 269.04 242.817 268.689 243.869 268.105C243.752 268.339 243.518 268.573 243.518 268.923C245.621 267.404 248.074 266.353 249.71 264.601Z" fill="#DCAA7A"/>
<path d="M37.0952 223.83C36.6279 223.947 36.1606 224.064 35.6934 224.181C35.927 224.297 36.0438 224.414 36.2775 224.531C36.6279 224.414 36.9784 224.297 37.0952 223.83Z" fill="#DCAA7A"/>
<path d="M294.686 217.054C294.219 217.755 293.752 218.455 293.284 219.156L294.569 218.105C295.153 217.521 295.738 217.054 296.322 216.586L295.037 214.834C293.167 217.521 291.182 219.857 288.962 222.194C289.429 221.726 290.013 221.259 290.481 220.792C290.247 221.142 290.013 221.493 289.663 221.96L290.948 220.909C292.116 219.507 293.167 218.105 294.686 217.054Z" fill="#DCAA7A"/>
<path d="M28.4503 246.844C28.3335 246.961 28.3335 246.961 28.3335 246.961C28.4503 246.961 28.4503 246.961 28.4503 246.844Z" fill="#DCAA7A"/>
<path d="M294.92 214.834L293.868 213.315V213.432C293.751 213.432 293.751 213.432 293.635 213.432L290.364 215.301C290.247 215.885 290.247 216.47 290.013 217.054C290.597 216.586 291.064 216.236 291.532 216.002C291.064 216.703 290.48 217.287 289.779 217.871C289.429 218.806 288.962 219.741 288.378 220.675L287.793 221.727C290.13 219.39 292.466 216.937 294.92 214.834Z" fill="#DCAA7A"/>
<path d="M262.093 268.221C261.625 267.404 261.041 266.819 260.808 266.002C260.224 264.366 259.99 262.614 259.99 260.862C259.99 259.927 260.34 258.759 260.224 257.824C260.107 256.773 259.172 255.955 258.121 255.955C257.77 255.955 255.784 256.306 255.434 256.773C255.434 256.656 255.434 256.656 255.317 256.539C254.616 257.941 253.798 258.759 252.747 259.693C252.046 260.277 251.462 260.862 250.761 261.562C250.177 262.147 249.943 262.731 249.476 263.198C248.425 264.133 247.14 264.95 246.088 265.885C245.504 266.469 244.803 267.053 244.219 267.637C243.752 268.104 242.934 268.338 242.583 268.805C242.467 268.922 242.233 269.156 242.116 269.273C243.752 269.506 246.088 267.754 247.49 267.053C250.06 265.885 249.359 267.637 249.125 269.39C249.943 268.572 250.644 267.637 251.345 266.703C251.696 266.235 252.747 264.6 252.981 265.885C253.097 266.469 252.28 268.338 252.163 269.039C251.929 269.857 251.579 271.142 251.929 272.076C252.63 271.609 253.565 271.142 254.266 270.675C255.2 270.09 256.135 270.207 256.485 269.273C256.719 268.572 256.485 266.936 257.653 266.936C258.588 266.936 259.172 268.338 259.406 268.922C260.107 268.104 260.457 267.988 261.041 268.922C261.509 269.623 261.859 270.558 262.209 271.375C262.443 271.843 263.495 273.245 264.312 272.777C265.013 272.427 263.378 270.908 263.144 270.441C262.91 269.74 262.443 269.039 262.093 268.221Z" fill="#DCAA7A"/>
<path d="M284.522 226.75L284.406 226.399C283.354 226.633 282.069 228.035 281.368 228.736C280.317 229.554 279.733 230.722 278.915 231.54C277.864 232.474 276.812 233.409 275.878 234.46C273.892 236.563 272.139 239.016 270.387 241.236C269.452 242.521 268.167 243.806 267.817 245.324C268.868 244.507 269.686 243.338 270.737 242.404C271.906 241.353 273.074 240.301 274.125 239.133C275.293 237.848 276.462 236.796 277.63 235.628C278.564 234.694 279.499 233.409 280.667 232.825V233.058C281.018 231.773 281.952 230.605 282.653 229.437C282.887 228.969 284.405 226.516 284.522 226.75Z" fill="#DCAA7A"/>
<path d="M117.585 252.101C117.935 252.101 118.169 251.984 118.403 251.867C119.337 251.75 123.192 252.101 121.791 251.634C120.505 251.867 118.052 251.049 117.585 252.101Z" fill="#DCAA7A"/>
<path d="M91.1832 248.479C89.0805 248.596 83.8235 250.114 80.0852 250.698C74.9451 251.516 70.3891 250.815 66.7676 249.063C67.4685 248.829 68.2863 249.998 68.7536 249.063C68.5199 248.829 67.0012 248.479 66.7676 249.063C63.1461 247.311 60.3424 244.624 58.8238 241.119C58.3565 244.04 59.7583 245.091 60.4592 246.843C59.7583 247.077 59.4079 247.661 59.291 248.596C59.8751 249.998 61.6275 251.75 63.263 251.166C61.6275 250.815 60.4593 249.998 60.1088 248.245C60.1088 247.661 60.8097 247.661 61.5106 247.661C61.7443 246.96 60.5761 246.376 61.277 246.259C61.7443 246.843 62.9125 246.843 62.6789 248.245C63.8471 248.596 67.3517 249.53 65.4826 250.231C66.1835 250.231 66.6508 250.348 66.8844 250.815C66.4171 250.815 64.548 250.698 65.4826 251.049C66.1835 251.049 66.6508 251.283 66.8844 251.633C66.0667 252.451 62.9125 252.451 62.9125 253.035C63.3798 253.152 64.4312 252.684 64.3144 253.385C63.9639 253.853 62.0947 252.801 61.5106 253.619C61.8611 253.619 62.2116 253.736 62.0947 254.203C61.277 254.904 60.5761 253.619 60.1088 253.035C60.5761 252.801 61.3938 252.334 60.6929 251.633C58.9406 251.75 57.0714 251.283 55.5528 251.633C53.3332 252.1 49.9453 254.086 49.0108 255.839C46.6743 260.044 49.2444 267.988 52.8659 270.441C55.9032 272.427 61.8611 271.025 60.8097 267.17C59.992 267.053 59.4079 266.119 58.5901 266.82C59.0574 267.988 59.6415 267.988 59.1742 269.624C53.0995 272.194 48.0762 265.652 49.3612 259.226C50.2958 254.67 55.4359 251.049 59.992 252.568C58.5901 252.918 57.4219 253.736 56.4873 254.904C56.3705 255.021 56.3705 255.138 56.2537 255.255C54.9687 257.007 54.3845 259.343 55.0855 261.68C55.3191 261.212 55.7864 261.096 56.4873 261.096C56.1369 258.058 62.562 255.955 62.4452 260.044C63.6134 259.927 63.6134 260.979 65.0153 260.628C65.0153 259.927 65.9499 260.044 65.833 259.226C64.7816 258.876 65.4826 256.656 64.0807 255.605L63.9639 255.488C64.0807 254.67 64.7816 254.437 65.1321 253.853C65.0153 255.371 66.7676 253.619 66.8844 254.437C65.2489 254.787 67.5853 255.371 67.4685 256.189C67.4685 256.773 65.5994 257.007 66.6508 257.591C68.2863 256.189 70.8563 257.708 70.8563 258.759C72.0246 258.993 72.0246 258.058 73.0759 258.175C73.4264 258.993 73.5432 259.927 74.4778 260.161C75.5292 259.811 75.646 258.526 76.2301 257.591C74.1273 257.24 72.8423 256.306 71.09 255.605C70.8563 256.54 72.2582 255.955 71.9077 257.007C71.3236 256.89 71.3236 257.357 71.09 257.591C70.3891 256.89 69.104 256.656 68.5199 255.839C70.1554 255.255 70.0386 257.708 71.3236 256.423C69.4545 255.839 68.4031 254.086 68.7536 252.684C69.104 253.502 69.2208 254.67 70.1554 255.021C70.1554 254.086 69.4545 254.086 69.5713 253.035C70.2722 252.451 71.7909 252.918 72.375 253.385C78.8002 252.801 84.7581 249.647 92.001 249.063C94.9215 248.596 91.1832 248.479 91.1832 248.479Z" fill="#DCAA7A"/>
<path d="M35.6934 247.311C37.3289 247.428 37.913 246.961 39.0812 247.311C39.5485 246.143 36.0438 246.493 35.6934 247.311Z" fill="#DCAA7A"/>
<path d="M43.1699 248.246C42.1185 247.545 41.184 247.661 39.7821 246.844C40.1326 248.246 42.1185 248.129 43.1699 248.83C48.31 253.853 45.9736 266.236 36.9784 264.367C36.7447 263.199 37.6793 262.731 36.9784 262.147C32.656 264.016 37.4457 265.886 39.5485 265.652C45.3895 264.601 49.7119 253.152 43.1699 248.246Z" fill="#DCAA7A"/>
<path d="M37.0951 223.83C36.8614 224.297 36.6278 224.531 36.1605 224.531C36.0437 224.414 35.8101 224.297 35.5764 224.18C36.1605 224.063 36.6278 223.83 37.0951 223.83ZM33.3568 224.648H33.5905C33.4736 225.699 34.0577 227.568 35.1091 228.269V228.386C35.9269 230.372 40.7165 231.423 39.6652 227.802C37.9128 227.451 38.3801 229.087 36.8614 228.97C36.6278 228.736 36.3942 228.386 36.1605 228.152C36.1605 227.685 36.1605 227.334 36.1605 226.867C36.1605 226.517 36.511 225.816 36.6278 225.465C38.6138 224.18 43.1698 223.947 45.3894 223.947C54.2678 224.063 65.249 227.451 70.6228 228.503C59.6416 223.83 43.1698 224.648 36.6278 215.652C35.9269 216.353 36.9783 217.288 36.6278 218.456C35.226 219.274 34.6418 220.909 34.1746 222.662C29.7354 223.129 25.0625 225.115 22.7261 228.152C25.7634 225.699 30.0858 224.531 34.0577 223.129C33.8241 223.596 33.5905 224.063 33.3568 224.648Z" fill="#DCAA7A"/>
<path d="M33.0061 241.002C34.408 238.666 42.3518 234.81 42.3518 240.301C42.3518 241.586 42.0013 241.469 41.4172 242.521C45.0387 239.834 40.249 233.642 35.8098 236.212C35.1089 235.862 35.2257 234.577 34.1743 234.46C34.5248 237.965 30.5529 240.301 28.8005 237.497C27.866 231.656 32.422 229.787 33.707 226.983C30.6697 229.67 28.0996 231.656 28.2164 236.563C28.3333 240.184 29.3846 244.156 28.4501 246.843C28.4501 246.843 28.4501 246.726 28.5669 246.726C28.5669 246.726 28.5669 246.843 28.4501 246.843C28.3333 247.077 28.0996 247.31 27.9828 247.544C27.866 247.778 27.7491 248.011 27.6323 248.245C29.5015 247.077 32.422 246.493 34.5248 247.077C34.6416 246.726 34.5248 246.376 34.408 246.025C34.5248 243.922 33.3566 242.754 33.0061 241.002Z" fill="#DCAA7A"/>
<path d="M75.179 225.231C73.7771 224.998 72.3752 223.129 71.207 223.479C72.0248 224.414 74.1276 225.582 75.179 225.231Z" fill="#DCAA7A"/>
<path d="M162.211 264.017C161.977 264.367 160.341 265.068 161.51 265.769C161.51 265.418 161.626 264.951 162.211 265.068C161.86 265.418 161.86 266.236 161.86 267.171C163.145 267.638 161.977 265.652 163.262 266.119C163.379 268.105 161.276 267.755 160.108 268.456C159.173 267.171 161.276 265.652 160.108 264.367C159.757 269.974 156.603 272.545 153.683 275.465H153.916C156.019 273.946 158.94 273.245 159.056 269.624C161.51 269.04 163.496 268.222 164.547 266.236C162.911 266.236 163.496 264.25 162.211 264.017Z" fill="#DCAA7A"/>
<path d="M154.267 272.778C154.384 271.493 154.033 269.741 154.968 269.39C154.968 269.974 154.734 272.544 155.318 271.493C155.669 270.208 155.435 268.339 156.019 267.404C156.019 267.988 155.902 268.689 156.37 268.806C156.837 266.937 156.603 265.886 157.071 264.717C158.356 266.353 155.902 270.091 157.304 270.909C157.772 268.689 157.655 265.769 158.472 264.016C158.706 263.9 158.94 263.9 159.057 263.783C158.823 265.185 158.005 266.82 158.706 267.872C158.94 265.769 159.407 264.367 160.108 263.199C160.225 263.082 160.342 263.082 160.342 262.965C160.458 262.848 160.575 262.731 160.692 262.498C161.276 262.264 161.743 261.914 161.86 261.33C162.444 260.979 163.028 260.629 163.496 260.161C164.197 259.577 164.43 259.11 163.496 258.759C162.444 258.409 161.86 258.409 161.043 259.11C160.926 259.227 160.809 259.344 160.809 259.46C160.225 259.694 159.757 260.045 158.823 260.512C158.356 261.68 159.991 260.745 159.524 261.914C156.37 261.797 153.449 264.717 148.893 264.25C148.426 267.054 150.295 267.638 151.23 269.04C148.776 272.311 148.893 276.4 150.295 279.904C150.412 279.787 150.412 279.671 150.529 279.554C150.645 279.32 150.762 279.086 150.879 278.97C150.996 278.736 151.113 278.619 151.23 278.385C151.346 278.269 151.463 278.152 151.463 277.918C151.697 277.685 151.814 277.451 152.047 277.217C152.164 277.1 152.281 276.984 152.281 276.867C152.748 274.998 153.332 273.713 153.916 271.843C154.033 272.194 153.916 272.778 154.267 272.778Z" fill="#DCAA7A"/>
<path d="M311.976 251.633C313.962 249.413 317.7 247.661 320.854 247.194L321.088 246.726C317.7 246.259 312.326 249.063 311.976 251.633Z" fill="#DCAA7A"/>
<path d="M289.896 232.708C290.481 234.227 291.532 236.68 292.7 236.563C291.298 235.979 290.714 233.058 289.896 232.708Z" fill="#DCAA7A"/>
<path d="M305.55 253.969C310.807 250.815 315.363 246.259 316.415 239.717C317.115 239.25 317.466 240.184 317.583 239.133C317.349 234.811 315.363 228.736 311.391 228.269C322.723 237.147 310.223 253.619 299.943 255.605C291.532 257.357 283.004 252.684 281.835 244.156C280.901 237.147 284.639 232.474 285.691 228.502C283.705 232.941 280.901 236.68 280.901 242.17C280.901 253.035 291.765 258.525 302.63 256.422C302.513 255.371 304.966 255.254 306.835 255.254C308.12 253.502 313.26 252.451 313.844 255.838C314.078 257.123 312.676 257.824 313.26 259.226C313.844 258.058 314.896 257.591 314.896 256.422C315.363 251.516 308.471 252.918 305.55 253.969Z" fill="#DCAA7A"/>
<path d="M283.471 230.255C283.354 230.372 283.237 230.489 283.237 230.605V230.722C283.354 230.605 283.354 230.372 283.471 230.255Z" fill="#DCAA7A"/>
<path d="M290.364 215.419L293.635 213.55C292.583 213.55 291.532 214.368 290.364 215.419Z" fill="#DCAA7A"/>
<path d="M293.868 213.433L293.635 213.549C293.752 213.549 293.752 213.549 293.868 213.433Z" fill="#DCAA7A"/>
<path d="M291.649 216.003C291.182 216.237 290.714 216.587 290.13 217.054L289.896 217.872C290.481 217.288 291.065 216.704 291.649 216.003Z" fill="#DCAA7A"/>
<path d="M291.064 221.026L293.284 219.156C293.751 218.456 294.219 217.755 294.686 217.054C293.167 218.105 292.116 219.507 291.064 221.026Z" fill="#DCAA7A"/>
<path d="M286.625 226.517C286.509 226.634 285.925 227.568 286.625 227.685C286.742 226.634 287.326 226.634 286.859 225.699C288.611 224.531 289.78 222.662 291.065 221.026L289.78 222.078C288.027 224.297 285.457 226.4 284.756 228.503C285.224 227.802 285.691 226.867 286.625 226.517Z" fill="#DCAA7A"/>
<path d="M288.495 230.722C288.845 229.554 288.495 226.517 289.896 227.334C290.597 223.596 292.233 220.325 294.569 218.105L293.284 219.157C290.948 222.545 288.378 226.049 288.495 230.722Z" fill="#DCAA7A"/>
<path d="M288.962 222.311C291.064 219.975 293.167 217.521 295.036 214.951L296.321 216.704C295.737 217.171 295.153 217.638 294.569 218.222L296.321 216.821L296.905 217.521C296.789 217.171 296.672 216.937 296.555 216.587L296.905 216.236C296.789 216.353 296.672 216.353 296.555 216.47C296.204 215.419 295.971 214.25 296.088 212.965C295.854 212.965 295.737 212.965 295.504 212.849C295.036 212.965 294.452 213.199 293.985 213.316L295.036 214.835C292.466 216.937 290.247 219.391 288.027 221.727L288.611 220.676C288.611 220.676 288.611 220.792 288.494 220.792C287.91 221.61 287.443 222.428 286.859 223.246C286.742 223.713 286.625 224.297 286.391 224.764C286.158 224.998 285.807 225.232 285.574 225.465L286.391 224.881C286.391 224.998 286.275 225.115 286.275 225.232V225.349C286.158 225.582 286.041 225.933 285.924 226.166C285.807 226.4 285.807 226.517 285.691 226.75L286.391 225.232C286.859 224.764 287.326 224.297 287.793 223.713L289.896 222.078C290.247 221.727 290.48 221.377 290.714 220.909C290.013 221.377 289.429 221.844 288.962 222.311Z" fill="#DCAA7A"/>
<path d="M299.125 220.442L297.84 218.923C297.607 220.558 297.84 222.428 298.658 223.245C298.658 222.311 298.892 221.376 299.125 220.442Z" fill="#DCAA7A"/>
<path d="M290.13 217.054C290.247 216.47 290.364 215.886 290.48 215.302L290.13 217.054Z" fill="#DCAA7A"/>
<path d="M288.495 220.676C289.079 219.741 289.546 218.807 289.896 217.872L288.495 220.676Z" fill="#DCAA7A"/>
<path d="M320.503 198.83C322.957 199.881 321.204 202.685 322.957 203.853C323.891 201.283 321.672 198.596 320.503 198.83Z" fill="#DCAA7A"/>
<path d="M334.639 193.924C334.639 194.04 334.639 194.04 334.522 194.157C331.718 197.428 326.695 198.713 321.321 196.844C319.686 195.209 318.05 193.573 317.232 191.354C318.284 195.442 323.424 200.232 329.148 198.947C329.732 198.83 333.938 196.961 334.172 196.727C334.989 196.026 335.69 194.508 335.924 193.106C335.573 193.339 335.106 193.69 334.639 193.924Z" fill="#DCAA7A"/>
<path d="M313.261 208.876C314.078 209.227 313.962 208.059 314.663 208.176C315.597 205.372 315.948 201.517 314.663 199.063C315.13 201.634 315.831 204.32 314.312 207.591C313.962 208.059 313.378 208.059 313.261 208.876Z" fill="#DCAA7A"/>
<path d="M313.144 193.223C313.144 194.741 313.26 196.026 313.844 197.195C313.728 195.676 313.377 194.391 313.144 193.223Z" fill="#DCAA7A"/>
<path d="M22.7258 103.737C22.609 99.2978 22.4922 93.6904 24.1277 89.8353C21.5576 84.1111 22.0249 76.8682 24.8286 72.7794C23.894 71.8448 22.8427 71.1439 21.7913 70.3262C21.7913 72.1953 23.7772 71.728 24.1277 73.2467C22.4922 75.9336 21.0903 78.0364 21.0903 81.1905C21.0903 83.9943 22.9595 86.3307 23.1931 88.9007C23.7772 93.6904 19.9221 98.8306 22.7258 103.737Z" fill="#DCAA7A"/>
<path d="M25.296 46.1445C25.296 46.3782 25.1792 46.6118 25.1792 46.8455C25.4128 46.2613 25.5297 45.6772 25.6465 45.21L25.296 46.1445Z" fill="#DCAA7A"/>
<path d="M27.399 58.411C27.1654 57.3596 26.2308 56.6587 25.5299 55.9578C24.4785 52.8036 24.5953 49.8831 25.0626 46.8457C24.0112 49.8831 22.1421 53.5045 24.4785 55.9578C25.5299 58.0605 27.7495 59.8129 24.829 61.7988C25.0626 61.682 25.2963 61.5652 25.4131 61.4484C23.3103 63.3175 20.9739 64.953 20.7402 68.3408L26.114 61.0979C27.1654 60.5138 27.6327 59.8129 27.399 58.411Z" fill="#DCAA7A"/>
<path d="M323.541 159.928C323.775 159.928 323.424 162.264 324.359 163.082C324.359 162.732 324.125 160.512 325.06 160.162C325.06 160.162 326.929 162.148 328.097 155.956C328.097 155.839 329.032 160.979 331.251 161.096C331.251 161.096 328.214 156.891 329.265 154.437C329.265 154.554 329.382 155.722 330.317 155.839C330.317 155.956 330.55 157.241 331.602 157.942C331.368 156.54 331.251 155.021 331.251 153.62C331.134 152.218 331.018 150.816 331.018 149.297C330.784 147.311 330.901 145.325 331.368 143.456C331.251 141.937 331.485 139.718 332.887 136.797C332.887 136.681 332.77 136.681 332.77 136.564L332.653 136.681C332.303 136.447 331.718 136.096 331.251 135.863C331.485 135.512 331.602 135.045 331.835 134.811C331.251 135.512 330.2 136.33 330.2 136.33C330.2 136.33 330.2 127.919 329.849 127.802C329.499 127.685 329.148 138.783 328.097 141.353L327.98 141.587C327.98 141.237 326.929 127.335 325.994 126.517C325.527 126.05 323.658 156.306 322.139 157.825C322.256 157.942 321.672 159.461 323.541 159.928Z" fill="#DCAA7A"/>
<path d="M299.826 98.2471C302.046 108.411 304.032 118.808 305.784 129.438C302.864 130.139 300.06 130.84 296.672 131.191C294.686 120.794 292.466 110.747 290.948 99.8826C293.868 99.1816 296.672 98.4807 299.826 98.2471Z" fill="#DCAA7A"/>
<path d="M117.235 202.101C115.132 204.087 109.875 203.853 110.693 199.414C111.16 196.961 115.599 195.559 117.585 194.04H117.819C118.637 196.961 119.104 200.232 117.235 202.101ZM127.398 194.624C126.697 190.535 126.113 184.461 124.361 181.657C122.492 178.736 118.286 177.568 113.73 177.919C106.254 178.503 98.3098 181.54 100.997 190.886C103.684 191.003 106.604 189.951 109.174 189.484C109.291 188.199 109.057 187.732 109.408 186.914C110.459 184.694 116.651 183.76 116.417 187.148C116.3 188.316 114.665 189.134 114.081 189.367C111.043 190.652 106.721 191.587 104.618 193.222C99.478 197.077 100.413 206.306 104.735 209.577C105.786 210.395 107.889 211.096 109.758 211.213C115.015 211.446 117.936 209.344 120.155 206.89C120.389 207.825 120.739 208.643 121.44 209.11C124.595 208.76 127.398 208.175 130.202 207.708C128.917 203.619 128.216 199.18 127.398 194.624Z" fill="#DCAA7A"/>
<path d="M202.397 185.161C201.112 186.68 199.126 188.199 196.206 187.614C189.78 186.446 188.028 171.026 196.089 170.442C202.514 170.091 204.5 179.671 202.397 185.161ZM210.808 170.675C208.589 166.353 202.864 162.147 195.972 162.615C189.897 162.965 186.159 165.418 183.706 168.806C181.837 171.376 180.552 176.283 181.019 180.255C181.837 189.6 189.196 196.727 198.308 196.142C203.098 195.792 207.537 193.572 210.107 190.185C213.846 185.278 213.962 176.75 210.808 170.675Z" fill="#DCAA7A"/>
<path d="M98.0757 186.213C97.3748 189.367 91.0665 189.017 92.001 184.577C92.1178 183.876 92.8188 182.825 94.3374 182.591C96.557 182.124 98.6598 183.76 98.0757 186.213ZM99.2439 184.461C98.6598 181.423 94.6879 180.489 91.3001 181.657C90.9496 181.073 90.9496 180.255 91.0665 179.32C92.001 177.568 95.0384 177.919 97.0243 177.101C96.9075 174.998 96.0898 172.428 95.8561 169.858C95.1552 169.741 94.5711 169.975 94.2206 169.975C90.5992 170.676 85.9263 170.792 83.7067 172.428C80.903 174.531 81.0198 178.386 82.0712 182.942C81.2535 183.643 80.2021 183.409 79.3843 183.76C74.8283 185.746 76.5806 193.456 83.7067 191.587C85.2254 199.18 86.3936 207.007 87.9123 214.717C89.431 214.717 90.9496 214.25 92.4683 214.016C93.987 213.783 95.7393 213.666 96.9075 212.848C95.9729 205.372 93.8702 197.895 93.0524 189.951C96.9075 189.951 99.9449 188.082 99.2439 184.461Z" fill="#DCAA7A"/>
<path d="M72.9596 162.848C72.8427 159.928 76.6978 158.993 78.3333 161.213C79.7352 166.236 73.1932 166.704 72.9596 162.848ZM89.7818 146.844C86.2772 146.727 78.6838 148.947 78.8006 145.208C78.8006 143.807 80.9034 142.872 82.4221 142.755C85.5763 142.405 88.0295 144.157 90.2491 144.858C91.7678 142.989 93.2865 141.12 94.3379 138.783C90.1323 134.928 82.6557 134.227 76.9315 136.33C71.5577 138.316 67.3521 144.741 70.74 151.166C72.2586 154.087 75.1792 155.606 79.7352 155.956C82.8894 156.19 88.9641 154.554 89.1977 157.358C89.4314 160.629 82.4221 161.213 79.7352 160.162C78.567 159.694 77.0483 158.292 75.9969 158.292C73.4269 158.176 71.7914 160.045 71.5577 161.797C71.3241 164.017 72.8427 165.886 73.8941 166.704C75.4128 167.872 78.3333 168.689 80.7866 168.806C87.9127 169.274 94.922 166.47 97.6089 162.264C101.698 155.839 97.1416 147.078 89.7818 146.844Z" fill="#DCAA7A"/>
<path d="M228.682 165.069C226.813 164.368 226.229 160.162 229.383 159.578C234.172 158.644 233.355 166.821 228.682 165.069ZM231.486 158.293C228.098 157.125 225.645 159.461 223.892 161.331C223.425 161.915 223.074 163.316 222.49 163.2C222.14 161.915 222.257 160.396 221.789 159.345C218.518 159.578 215.481 160.162 212.561 160.98C214.43 171.611 216.182 182.242 218.518 192.405C221.789 191.938 224.827 191.354 227.747 190.536C227.046 185.629 225.878 180.957 225.06 176.167C224.827 174.531 224.243 172.662 224.359 171.144C224.476 169.742 225.761 168.69 226.696 168.106C228.331 167.172 230.668 167.522 232.303 166.471C235.224 164.485 234.523 159.228 231.486 158.293Z" fill="#DCAA7A"/>
<path d="M114.314 155.138C111.043 154.905 109.875 151.634 109.174 148.246C108.24 143.924 108.123 139.251 112.796 138.433C114.548 138.083 115.599 138.433 116.651 139.251C120.272 142.054 122.492 155.606 114.314 155.138ZM111.51 172.194C110.81 175.349 104.501 174.998 105.436 170.559C105.553 169.858 106.254 168.807 107.772 168.573C109.992 168.106 112.095 169.741 111.51 172.194ZM124.711 133.643C120.973 129.438 113.496 128.27 108.824 131.657C107.889 132.358 107.422 133.526 106.37 134.461C106.137 133.643 106.254 132.709 105.786 132.125C102.749 132.592 99.7115 132.826 97.2583 133.877C98.777 144.274 101.113 157.124 102.983 167.638C103.333 169.391 103.216 171.26 103.683 172.662C104.852 176.4 110.576 177.334 112.445 173.83C114.314 170.208 111.043 164.601 111.394 161.096C113.496 162.381 115.95 163.316 118.753 162.965C131.837 161.447 132.538 142.288 124.711 133.643Z" fill="#DCAA7A"/>
<path d="M146.323 149.998C143.403 151.4 140.132 149.531 141.183 145.91C142.001 142.989 145.856 142.872 148.543 141.587H148.777C149.594 145.325 148.777 148.713 146.323 149.998ZM135.809 137.615C133.94 137.849 132.305 136.797 132.655 133.877C133.239 132.592 134.875 131.541 136.744 132.241C138.964 133.176 138.38 137.265 135.809 137.615ZM158.005 143.223C157.421 139.134 156.954 134.695 155.786 131.073C154.384 126.751 150.529 124.531 144.688 124.882C138.613 125.232 130.436 127.685 130.903 134.578C131.137 138.433 136.277 140.185 138.73 137.382C139.898 136.097 139.665 133.76 141.767 132.709C143.87 131.657 147.141 132.008 147.141 134.461C147.141 135.863 145.389 136.33 143.987 136.914C138.263 139.251 132.071 140.185 131.721 147.311C131.37 155.022 136.394 159.227 143.403 158.409C144.921 158.176 147.725 157.475 149.01 156.423C150.062 155.606 150.295 154.321 151.463 153.269C151.931 154.321 151.931 155.606 152.865 156.19C155.786 155.839 158.473 155.372 160.926 154.554C159.524 151.05 158.59 147.311 158.005 143.223Z" fill="#DCAA7A"/>
<path d="M177.047 193.923C177.164 193.222 177.865 192.171 179.383 191.937C181.603 191.47 183.589 192.988 183.122 195.558C182.421 198.713 175.996 198.362 177.047 193.923ZM152.398 193.689C152.514 192.988 153.215 191.937 154.734 191.703C156.954 191.236 158.94 192.755 158.472 195.325C157.771 198.362 151.346 198.129 152.398 193.689ZM178.799 139.835C177.981 142.171 175.295 143.456 172.491 142.288C168.402 140.536 166.65 129.087 172.491 127.685C172.491 127.568 172.608 127.568 172.608 127.685C173.893 127.685 174.944 127.802 175.762 128.269C178.215 129.671 180.084 136.096 178.799 139.835ZM189.897 143.573C189.313 140.652 188.963 137.732 188.495 134.811C187.794 130.489 186.743 126.517 186.042 121.961C185.809 120.209 185.808 117.639 184.407 117.872C181.953 118.34 177.981 119.041 175.996 119.625C175.879 120.442 176.58 121.143 176.112 121.844C173.893 120.442 172.374 119.975 169.454 120.209C161.743 120.91 157.771 128.269 159.173 137.615C159.641 140.419 160.692 143.807 162.211 146.026C163.612 148.012 166.416 150.232 168.869 150.933C174.36 152.568 178.799 149.764 181.019 146.844C181.019 149.064 181.953 150.933 181.136 152.802C180.201 155.021 175.762 155.606 172.958 156.073C165.248 157.358 158.589 160.278 161.393 169.741C159.757 170.676 156.954 170.325 155.201 171.143C155.085 173.129 156.136 174.647 155.785 176.517C153.683 175.348 153.799 174.998 152.631 174.297C145.622 170.442 136.744 172.895 132.888 177.802C129.267 182.241 128.566 190.185 130.903 195.675C133.005 200.699 137.561 204.787 143.169 205.138C149.828 205.722 154.734 202.801 157.888 199.414C160.225 196.843 160.692 191.587 156.837 190.418C151.697 188.9 151.463 194.858 148.776 196.376C147.374 197.194 145.272 197.311 143.402 196.493C140.715 195.325 139.08 191.47 138.846 189.016C138.145 182.124 143.753 178.386 148.543 181.54C149.477 182.124 150.061 183.292 150.996 183.292C151.697 183.292 153.215 181.774 153.916 181.189C154.851 180.255 155.435 179.087 156.603 178.736C158.94 178.035 160.341 178.619 162.795 177.918C163.612 180.956 163.963 184.11 164.664 187.615C165.832 193.923 166.416 200.815 173.776 200.582C175.411 200.582 180.785 199.764 182.187 199.18C186.159 197.311 184.757 191.236 180.902 190.652C179.617 190.418 178.332 191.119 177.047 191.002C174.594 190.652 174.36 186.563 173.893 183.643C173.425 180.956 172.725 178.386 172.608 176.166C174.944 175.465 177.164 175.582 178.916 174.764C178.799 172.545 178.215 169.624 177.631 167.521C175.762 167.171 173.542 168.456 171.439 167.989C171.089 167.288 171.089 166.119 171.323 165.302C173.425 163.9 176.229 163.783 178.566 163.316C184.874 162.031 190.949 159.811 191.416 152.685C191.299 149.414 190.365 146.377 189.897 143.573Z" fill="#DCAA7A"/>
<path d="M246.205 134.461C243.869 133.994 242.584 129.438 246.089 128.737C247.14 128.503 248.191 128.62 248.775 128.97C251.112 130.606 249.944 135.279 246.205 134.461ZM239.43 120.092C236.509 120.91 232.771 121.728 229.734 121.961C228.916 115.653 238.495 115.069 239.43 120.092ZM245.037 127.335C243.402 128.036 243.051 130.022 242 131.424C239.313 135.162 230.785 134.695 230.435 129.087C236.977 127.685 243.986 126.751 250.528 125.349C250.411 122.545 249.476 120.092 248.308 117.989C247.257 115.887 245.505 113.2 243.869 112.031C241.416 110.279 238.262 108.994 234.406 109.111C225.645 109.345 219.921 115.77 220.271 125.232C220.622 135.396 227.047 142.872 237.444 142.405C240.481 142.288 244.219 141.12 246.439 139.484C248.191 138.199 250.528 135.629 251.229 133.293C252.28 129.671 249.009 125.7 245.037 127.335Z" fill="#DCAA7A"/>
<path d="M83.2396 122.779C80.5527 122.195 80.3191 116.821 84.0574 116.704C88.1461 116.587 87.562 123.713 83.2396 122.779ZM85.9265 115.302C83.8237 114.484 81.9546 115.536 79.2677 115.302C77.8658 113.667 77.749 111.097 77.2817 108.643C76.8144 106.19 75.9967 103.737 76.1135 101.284C77.749 100.466 80.2023 100.466 82.0714 99.8817C81.8378 97.1948 81.2537 94.7416 80.7864 92.2883C78.3331 92.1715 76.6976 92.9892 74.478 93.1061C73.3098 89.9519 73.6603 85.3959 72.1416 82.709C69.2211 83.2931 65.9501 83.6436 63.38 84.5781C63.7305 88.3164 64.665 91.2369 65.1323 94.8584C63.38 95.5593 60.8099 95.5593 59.0576 96.2602C59.5249 98.9471 59.5249 102.101 60.8099 104.087C62.7959 103.97 64.3146 103.386 66.4174 103.386C67.7024 107.125 67.8192 110.512 68.637 114.368C69.6883 119.741 70.5061 124.881 76.2303 125.466C78.4499 125.699 83.5901 125.115 85.3424 124.648C89.548 123.246 89.6648 116.821 85.9265 115.302Z" fill="#DCAA7A"/>
<path d="M189.08 108.643C189.313 107.709 190.131 106.774 191.65 106.424C194.337 105.957 195.388 107.475 195.505 108.994C195.972 113.55 188.145 113.667 189.08 108.643ZM219.57 134.461C218.986 131.073 218.519 127.569 217.935 124.414C217 118.807 213.963 113.433 207.654 113.784C203.682 113.9 200.645 116.704 198.659 119.157C197.725 115.069 197.725 109.929 196.089 106.658C191.883 103.036 186.627 105.957 187.444 111.681C187.912 114.601 188.612 117.872 189.197 121.027C190.949 130.255 192.701 140.653 194.57 149.18C197.958 148.83 201.112 148.246 204.033 147.428C203.566 142.405 202.047 137.265 201.112 132.709C200.762 131.073 200.295 129.087 200.411 127.569C200.528 124.998 202.748 122.779 205.435 123.363C206.603 123.597 207.888 125.349 208.355 126.517C209.407 129.438 209.64 133.176 210.224 136.447C210.808 139.835 211.159 143.106 212.094 146.143C215.481 145.909 218.519 145.442 221.206 144.391C221.089 141.353 220.154 137.966 219.57 134.461Z" fill="#DCAA7A"/>
<path d="M243.869 195.792C241.532 195.091 241.065 190.302 244.57 189.834C245.621 189.718 246.439 189.951 247.023 190.418C249.126 192.288 247.256 196.844 243.869 195.792ZM262.443 151.634C259.523 152.452 256.252 152.802 253.214 153.503C252.397 159.578 252.513 166.587 252.046 172.662C249.71 168.573 247.256 164.017 245.271 159.811C244.57 158.293 243.985 156.774 242.934 155.489C241.415 155.372 239.78 155.839 238.028 156.19C236.275 156.54 234.406 156.423 233.121 157.358C237.093 164.367 241.415 171.844 245.387 178.97C246.789 181.423 248.542 183.876 249.126 186.797C248.892 187.264 248.425 187.498 248.074 187.965C244.453 187.965 241.649 188.199 240.831 191.003C239.546 195.559 243.051 197.545 247.14 197.311C250.644 197.194 255.901 195.909 257.42 193.456C258.705 191.236 258.939 186.68 259.289 183.526C260.34 173.596 261.859 163.783 262.56 154.087C262.794 153.386 263.378 151.867 262.443 151.634Z" fill="#DCAA7A"/>
<path d="M198.308 100.583C198.308 98.9471 199.126 97.6621 201.229 97.4284C203.098 97.1948 204.5 98.2462 204.734 99.9985C205.084 104.087 198.542 104.438 198.308 100.583ZM205.668 96.2602C203.682 87.1482 202.748 79.0875 201.112 70.2091C200.294 65.6531 199.71 60.3961 194.57 60.9802C193.168 61.097 191.766 61.798 190.949 62.9662C189.547 65.1858 190.832 69.8586 191.416 72.7792C192.701 79.3211 193.986 86.3304 195.154 92.4051C196.089 97.4284 195.738 106.073 202.514 104.905C206.252 104.204 206.603 100.349 205.668 96.2602Z" fill="#DCAA7A"/>
<path d="M293.634 96.2611C290.48 96.0274 289.896 90.8873 293.518 90.3032C298.074 89.6023 297.49 96.4947 293.634 96.2611ZM293.634 87.9668C291.181 88.0836 289.896 89.8359 288.845 91.705C288.261 97.0788 292.466 99.4152 295.854 97.8966C300.527 96.0274 299.592 87.7331 293.634 87.9668Z" fill="#DCAA7A"/>
<path d="M284.873 101.635C289.429 100.934 288.845 107.826 284.99 107.593C281.836 107.359 281.252 102.219 284.873 101.635ZM291.532 122.896C289.196 122.78 287.443 124.181 285.808 123.364C284.056 122.429 284.056 118.924 283.588 116.588C283.121 113.551 282.186 111.097 282.303 109.111C285.457 108.411 289.546 108.177 290.13 105.023C290.481 102.92 289.196 100.35 287.093 99.9994C284.523 99.5321 283.355 101.051 280.785 100.817C279.733 97.7798 279.5 93.9247 278.565 90.7705C275.294 91.0042 272.257 91.5883 269.453 92.406C269.336 95.9106 270.972 99.5321 270.855 102.92C268.168 103.621 265.247 104.088 262.21 104.555C261.159 101.401 261.042 97.4293 259.99 94.1583C256.603 94.392 253.682 94.9761 250.761 95.5602C251.112 98.948 252.28 102.569 252.747 106.191C250.645 107.009 248.308 107.009 247.257 108.527C246.089 110.163 246.556 112.85 247.958 113.901C249.71 115.069 251.93 114.135 254.266 114.135C254.733 116.938 255.434 120.326 256.018 123.831C256.603 127.336 256.836 130.84 258.238 133.177C260.925 137.966 268.869 136.915 274.476 134.929C274.243 131.775 273.542 128.971 272.841 126.284C270.738 126.284 268.051 127.686 266.532 126.401C265.831 125.817 265.831 124.298 265.481 123.13C264.663 119.625 263.729 114.953 263.729 112.032C266.532 111.682 269.102 110.981 272.257 110.864C274.359 116.471 273.892 125.116 276.462 129.906C279.266 135.046 287.093 133.527 292.7 131.775C292.7 128.504 291.999 125.817 291.532 122.896Z" fill="#DCAA7A"/>
<path d="M182.071 95.209C181.487 99.5314 175.295 102.101 172.258 98.2464C168.987 94.1576 168.052 83.6437 175.178 82.9428C180.085 82.4755 182.888 89.4848 182.071 95.209ZM191.533 88.3166C191.3 87.1484 190.832 85.1624 189.898 83.4101C187.678 78.8541 181.837 73.9476 174.01 74.8821C172.141 75.1158 170.038 75.5831 168.636 76.1672C166.066 77.3354 163.146 79.6718 161.744 82.2419C160.926 83.7606 159.641 87.4988 159.524 90.4194C159.407 96.1436 162.562 102.452 166.767 105.372C172.024 108.994 180.085 109.111 185.692 105.372C190.248 102.569 193.169 95.4427 191.533 88.3166Z" fill="#DCAA7A"/>
<path d="M86.5106 85.3965C83.7068 84.5787 83.9405 80.3731 86.9778 79.789C91.7675 78.7376 91.6507 86.9151 86.5106 85.3965ZM113.847 103.504C112.912 98.9477 112.445 92.873 109.758 90.1861C106.604 87.032 99.8282 87.3824 96.0899 90.0693C95.0385 90.7702 94.688 91.8216 93.6366 92.1721C93.403 89.4852 92.7021 86.2142 92.3516 83.761C92.118 82.7096 92.2348 81.6582 91.8843 80.8404C90.4825 77.5694 85.8096 76.8685 83.4732 79.6722C81.9545 81.6582 82.8891 84.3451 83.3564 87.2656C83.59 89.0179 84.0573 90.6534 84.4078 92.1721C86.1601 101.635 88.0292 114.835 89.8984 122.546C93.2862 122.312 96.3235 121.611 99.2441 120.793C98.7768 117.99 98.3095 114.368 97.4918 110.513C96.7908 107.008 95.1553 103.27 95.7394 100.116C96.0899 97.8963 99.3609 95.9104 101.814 97.429C103.917 98.7141 104.267 104.906 104.851 107.943C105.552 112.032 106.253 115.653 106.837 119.508C109.758 119.275 113.613 118.691 116.3 117.756C115.716 113.667 114.898 108.644 113.847 103.504Z" fill="#DCAA7A"/>
<path d="M225.878 61.4484C223.075 60.6307 223.308 56.4251 226.346 55.841C231.252 54.7896 231.018 62.9671 225.878 61.4484ZM227.046 89.4855C226.229 91.7051 223.191 93.3406 220.388 92.5229C216.533 91.3547 214.079 80.4903 217.818 77.2193C218.519 76.6352 219.453 76.4015 220.738 76.1679C224.827 75.7006 225.878 78.738 226.696 82.7099C227.163 85.1631 227.747 87.4996 227.046 89.4855ZM235.458 77.2193C234.99 74.9997 234.757 72.6633 234.289 70.4437C234.173 69.6259 233.705 69.0418 233.588 68.2241C232.654 63.3176 232.654 56.5419 229.266 54.6728C226.346 53.0373 222.724 55.2569 222.374 57.7102C222.023 59.8129 222.841 62.1494 223.191 63.9017C223.659 65.8876 224.126 67.7568 224.476 69.8596C222.257 67.7568 217.584 67.5231 214.196 68.6913C210.107 70.0932 207.421 74.0651 206.603 78.3875C204.734 88.0837 209.64 99.9994 218.402 101.284C220.621 101.635 223.892 101.284 226.462 99.8826C227.864 99.0649 228.098 97.7798 229.5 96.6116C229.85 97.4294 229.733 98.7144 230.317 99.1817C233.238 98.7144 236.392 98.3639 238.962 97.4294C238.144 91.4715 236.626 83.4108 235.458 77.2193Z" fill="#DCAA7A"/>
<path d="M142.818 107.942C138.145 109.461 137.328 101.634 142.701 102.335C144.687 102.919 145.155 107.125 142.818 107.942ZM125.412 95.9099C124.361 89.6015 134.057 88.7838 134.641 94.1575C131.72 94.9753 128.683 95.5594 125.412 95.9099ZM147.374 105.372C147.141 102.919 143.636 99.4145 140.015 101.517C138.613 102.335 138.262 104.438 137.094 105.723C134.758 108.293 130.786 108.176 128.449 106.19C127.632 105.489 126.697 104.905 126.697 103.503C127.982 102.686 129.734 102.569 131.253 102.218C136.276 101.284 141.767 100.7 146.206 99.2977C145.388 92.7557 142.351 87.6156 137.678 85.0455C135.108 83.5268 131.72 82.9427 127.865 83.41C123.543 83.8773 119.337 87.3819 117.819 90.1856C115.248 94.8585 115.599 103.036 117.819 107.942C119.337 111.213 122.491 114.134 125.412 115.302C132.421 118.106 140.482 115.419 144.337 111.564C145.856 109.928 147.608 108.059 147.374 105.372Z" fill="#DCAA7A"/>
</svg>
