<svg width="288" height="218" viewBox="0 0 288 218" fill="none" xmlns="http://www.w3.org/2000/svg">
<circle cx="243.076" cy="185.827" r="16.2999" fill="#C4B8E9" stroke="#674DB3" stroke-width="1.4997"/>
<path d="M188.471 16.4297C195.92 14.6535 202.214 20.0482 205.969 27.2197C209.741 34.4243 211.19 43.8127 208.758 50.7783L208.443 51.6797L207.643 51.1602L183.469 35.5059C182.097 34.8275 181.033 33.4406 180.364 31.8037C179.68 30.13 179.37 28.1106 179.583 26.082C180.012 21.9854 182.585 17.8333 188.471 16.4297Z" fill="#C4B8E9" stroke="#674DB3" stroke-width="1.4997"/>
<path d="M126.175 29.334C131.743 20.6838 138.375 18.2 143.158 20.2266C147.94 22.2525 150.193 28.4985 147.557 35.8574L147.484 36.0586L147.317 36.1914L125.46 53.5703L125.03 53.9121L124.574 53.6055C121.035 51.2184 117.277 43.1558 126.175 29.334Z" fill="#C4B8E9" stroke="#674DB3" stroke-width="1.4997" stroke-linecap="round"/>
<path fill-rule="evenodd" clip-rule="evenodd" d="M114.281 67.8606C120.562 63.7957 127.286 26.14 176.862 32.0999C226.44 38.06 232.098 97.9898 241.34 135.048C249.013 165.819 243.059 189.406 238.5 198.273L190.29 215.135C188.272 214.342 179.999 211.416 163.05 206.055C146.101 200.694 134.513 206.848 130.838 210.595C120.13 193.164 94.5509 161.067 96.2927 160.344C99.5996 158.971 102.984 154.263 103.29 153.729C74.1307 126.742 76.8747 105.13 85.5651 98.4241C92.5176 93.0596 101.671 96.1889 105.379 98.4241C102.407 94.7726 100.496 89.9699 99.6716 87.263C99.4664 86.5887 99.4874 85.8648 99.7487 85.2102C101.815 80.0354 106.038 76.9079 108 75.9544C102.526 71.8018 108 71.9243 114.281 67.8606Z" fill="#C4B8E9"/>
<path fill-rule="evenodd" clip-rule="evenodd" d="M171.871 49.1284C180.269 45.5297 190.84 51.3943 195.483 62.2271C197.584 67.1302 198.11 72.2105 197.278 76.6372C192.877 75.7048 187.874 76.2753 183.202 78.5816C179.347 80.4849 176.292 83.2863 174.254 86.4898C170.481 84.0386 167.17 80.1573 165.071 75.2603C160.429 64.4273 163.473 52.7275 171.871 49.1284Z" fill="#343247"/>
<path fill-rule="evenodd" clip-rule="evenodd" d="M118.336 66.9691C121.869 56.8856 128.378 49.9887 132.873 51.5638C137.368 53.1391 138.147 62.5898 134.613 72.6732C132.892 77.5851 130.463 81.7389 127.906 84.5277C126.2 81.2175 122.97 78.3699 118.77 76.8968C117.932 76.603 117.09 76.3753 116.252 76.2122C116.519 73.3539 117.206 70.1936 118.336 66.9691Z" fill="#343247"/>
<mask id="mask0_1290_8479" style="mask-type:alpha" maskUnits="userSpaceOnUse" x="79" y="31" width="167" height="185">
<path d="M99.7492 85.2103C101.815 80.0354 106.038 76.9079 108 75.9543C102.526 71.8017 108 71.9245 114.281 67.8607C120.562 63.797 127.285 26.1398 176.862 32.0999C226.44 38.06 232.099 97.9893 241.34 135.048C249.014 165.818 243.059 189.405 238.5 198.272L190.29 215.135C188.272 214.342 179.999 211.416 163.05 206.055C146.101 200.694 134.514 206.848 130.838 210.595C120.131 193.164 93.5596 161.288 95.366 160.746C100.542 159.193 102.985 154.262 103.29 153.728C74.1308 126.742 76.8753 105.13 85.5659 98.424C92.5184 93.0595 101.671 96.1888 105.379 98.424C102.407 94.7725 100.496 89.97 99.672 87.263C99.4668 86.5886 99.4878 85.865 99.7492 85.2103Z" fill="#C4B8E9"/>
</mask>
<g mask="url(#mask0_1290_8479)">
<path d="M196.946 127.523C146.939 146.236 114.781 115.663 104.952 98.0377C96.2459 88.1632 86.2581 92.8121 82.3525 96.3709C64.9416 114.487 88.8089 143.072 102.466 154.821C105.109 151.502 104.24 152.239 105.949 150.484C109.566 152.694 114.952 155.626 122.793 158.188C134.967 162.164 151.146 165.395 157.632 164.87C156.06 173.834 158.375 178.436 162.35 180.989C173.376 188.069 184.562 179.875 189.083 172.733C188.886 172.078 193.643 169.588 214.244 164.87C234.844 160.153 242.877 149.276 244.318 144.427C242.274 123.198 235.866 104.655 232.917 98.0377C223.797 112.348 205.136 123.657 196.946 127.523Z" fill="#343247"/>
<circle cx="87.3459" cy="108.069" r="23.5334" fill="#C4B8E9"/>
<circle cx="172.338" cy="182.768" r="21.3475" fill="#C4B8E9"/>
</g>
<path d="M107.812 158.064C133.699 158.212 139.921 177.724 138.316 190.886C137.435 198.116 135.014 222.987 103.918 215.271C66.9228 206.092 75.4532 157.878 107.812 158.064Z" fill="#A895DE"/>
<path d="M157.766 83.381C150.522 86.1872 141.419 86.1876 135.688 83.8398C134.859 83.5001 133.863 84.2404 134.069 85.1125C137.113 97.9874 142.371 118.394 147.573 118.394C152.672 118.394 157.907 100.736 159.191 84.3991C159.251 83.6442 158.472 83.1074 157.766 83.381Z" fill="#343247"/>
<mask id="mask1_1290_8479" style="mask-type:alpha" maskUnits="userSpaceOnUse" x="134" y="83" width="26" height="36">
<path d="M157.762 83.3735C150.289 86.1872 140.487 85.7289 135.252 84.7966C134.519 84.6659 133.86 85.3194 134.032 86.0447C137.033 98.7241 142.262 118.395 147.573 118.395C152.672 118.395 157.907 100.736 159.191 84.3996C159.25 83.6447 158.471 83.1066 157.762 83.3735Z" fill="#343247"/>
</mask>
<g mask="url(#mask1_1290_8479)">
<circle cx="152.295" cy="113.047" r="15.336" transform="rotate(-0.892538 152.295 113.047)" fill="#8065CF"/>
</g>
<path d="M176.548 56.8032C178.295 59.5452 181.611 60.8485 184.758 60.0308L193.123 57.856C193.314 58.1437 193.502 58.4365 193.684 58.7349L186.499 63.7915C183.84 65.6627 182.689 69.034 183.65 72.1401L185.354 77.6479C184.657 77.9097 183.964 78.2086 183.277 78.5444L180.212 73.7329C178.465 70.9907 175.149 69.6866 172.002 70.5044L164.079 72.563C163.952 72.1549 163.837 71.7464 163.731 71.3384L170.261 66.7446C172.92 64.8734 174.071 61.5012 173.109 58.395L170.461 49.8384C170.861 49.6059 171.276 49.3946 171.705 49.2036L176.548 56.8032Z" fill="white"/>
<path fill-rule="evenodd" clip-rule="evenodd" d="M131.144 51.3566C131.377 51.3368 131.607 51.3347 131.833 51.3508L129.317 60.4562C128.461 63.556 129.677 66.8572 132.339 68.6613L135.267 70.6457C135.153 71.0292 135.034 71.4146 134.907 71.801L131.063 71.6271C127.941 71.4853 125.057 73.2965 123.828 76.1711L122.688 78.8351C122.251 78.5458 121.795 78.2736 121.322 78.0197L122.092 75.2385C122.884 72.3735 121.908 69.3112 119.605 67.4318L118.497 66.5265C118.704 65.9544 118.92 65.3927 119.146 64.8429L120.517 64.8283C123.489 64.7959 126.162 63.0107 127.33 60.2775L131.144 51.3566Z" fill="white"/>
<path d="M130.125 89.4672C118.767 70.0068 131.289 59.5015 138.227 59.5015H143.886L130.125 89.4672Z" fill="#C4B8E9"/>
<path d="M152.705 69.1385C148.861 69.176 145.017 71.2708 143.444 72.9695C143.344 73.0773 143.206 73.1422 143.059 73.1471C141.982 73.183 141.828 73.3251 136.399 68.7822C132.779 65.7525 138.747 63.8728 142.795 63.8728C153.138 63.8728 154.292 67.0175 153.478 68.7182C153.34 69.0049 153.023 69.1354 152.705 69.1385Z" fill="#343247"/>
<ellipse cx="192.371" cy="93.2557" rx="14.9362" ry="9.54318" transform="rotate(-21.115 192.371 93.2557)" fill="#A895DE"/>
<ellipse cx="8.50338" cy="6.98609" rx="8.50338" ry="6.98609" transform="matrix(-0.932859 -0.360241 -0.360241 0.932859 126.539 84.5306)" fill="#A895DE"/>
<mask id="mask2_1290_8479" style="mask-type:alpha" maskUnits="userSpaceOnUse" x="79" y="31" width="167" height="185">
<path d="M99.7492 85.2103C101.815 80.0354 106.038 76.9079 108 75.9543C102.526 71.8017 108 71.9245 114.281 67.8607C120.562 63.797 127.285 26.1398 176.862 32.0999C226.44 38.06 232.099 97.9893 241.34 135.048C249.014 165.818 243.059 189.405 238.5 198.272L190.29 215.135C188.272 214.342 179.999 211.416 163.05 206.055C146.101 200.694 134.514 206.848 130.838 210.595C120.131 193.164 93.5596 161.288 95.366 160.746C100.542 159.193 102.985 154.262 103.29 153.728C74.1308 126.742 76.8753 105.13 85.5659 98.424C92.5184 93.0595 101.671 96.1888 105.379 98.424C102.407 94.7725 100.496 89.97 99.672 87.263C99.4668 86.5886 99.4878 85.865 99.7492 85.2103Z" fill="#C4B8E9"/>
</mask>
<g mask="url(#mask2_1290_8479)">
<path d="M196.946 127.523C146.939 146.236 114.781 115.663 104.952 98.0377C96.2459 88.1632 86.2581 92.8121 82.3525 96.3709C64.9416 114.487 88.8089 143.072 102.466 154.821C105.109 151.502 104.24 152.239 105.949 150.484C109.566 152.694 114.952 155.626 122.793 158.188C134.967 162.164 151.146 165.395 157.632 164.87C156.06 173.834 158.375 178.436 162.35 180.989C173.376 188.069 184.562 179.875 189.083 172.733C188.886 172.078 193.643 169.588 214.244 164.87C234.844 160.153 242.877 149.276 244.318 144.427C242.274 123.198 235.866 104.655 232.917 98.0377C223.797 112.348 205.136 123.657 196.946 127.523Z" fill="#343247"/>
<circle cx="87.3459" cy="108.069" r="23.5334" fill="#C4B8E9"/>
<circle cx="172.338" cy="182.768" r="21.3475" fill="#C4B8E9"/>
</g>
<path d="M176.548 56.8032C178.295 59.5452 181.611 60.8485 184.758 60.0308L193.123 57.856C193.314 58.1437 193.502 58.4365 193.684 58.7349L186.499 63.7915C183.84 65.6627 182.689 69.034 183.65 72.1401L185.354 77.6479C184.657 77.9097 183.964 78.2086 183.277 78.5444L180.212 73.7329C178.465 70.9907 175.149 69.6866 172.002 70.5044L164.079 72.563C163.952 72.1549 163.837 71.7464 163.731 71.3384L170.261 66.7446C172.92 64.8734 174.071 61.5012 173.109 58.395L170.461 49.8384C170.861 49.6059 171.276 49.3946 171.705 49.2036L176.548 56.8032Z" fill="white"/>
<ellipse cx="192.371" cy="93.2557" rx="14.9362" ry="9.54318" transform="rotate(-21.115 192.371 93.2557)" fill="#A895DE"/>
<ellipse cx="8.50338" cy="6.98609" rx="8.50338" ry="6.98609" transform="matrix(-0.932859 -0.360241 -0.360241 0.932859 126.539 84.5306)" fill="#A895DE"/>
<path d="M136.878 40.8434C128.161 46.1468 121.943 56.3267 118.225 62.3007C114.507 68.2746 113.287 68.5185 107.679 71.2616C103.193 73.4561 106.188 75.3544 108.246 76.0292C105.811 77.0781 100.626 80.5695 99.3677 86.1437C97.7944 93.1115 118.225 117.687 136.878 127.206C153.806 135.845 201.153 141.574 233.007 98.075" stroke="#674DB3" stroke-width="1.4997" stroke-linecap="round" stroke-linejoin="round"/>
<path d="M145.089 36.0821C152.53 32.5455 170.807 27.3736 184.388 34.9787" stroke="#674DB3" stroke-width="1.4997" stroke-linecap="round" stroke-linejoin="round"/>
<path d="M206.795 46.6914C214.452 52.9308 225.662 67.3444 237.629 114.995C246.455 150.137 247.739 174.207 238.913 184.156" stroke="#674DB3" stroke-width="1.4997" stroke-linecap="round" stroke-linejoin="round"/>
<path d="M104.006 97.5338C100.951 95.9212 91.6987 92.6958 83.4641 100.319C72.5598 110.413 85.5875 138.53 103.242 153.553" stroke="#674DB3" stroke-width="1.4997" stroke-linecap="round" stroke-linejoin="round"/>
<path d="M112.015 138.824C110.202 143.984 104.654 156.005 97.0674 160.579" stroke="#674DB3" stroke-width="1.4997" stroke-linecap="round" stroke-linejoin="round"/>
<path d="M171.741 147.504C160.896 155.6 144.154 180.529 163.034 191.497C170.617 195.902 182.937 196.285 189.36 184.286" stroke="#674DB3" stroke-width="1.4997" stroke-linecap="round" stroke-linejoin="round"/>
<path d="M208.757 216.506C241.583 212.525 239.82 191.881 240.091 188.419C240.683 180.85 234.425 159.19 213.778 158.576C175.315 157.433 173.85 185.913 174.918 195.245C175.646 201.617 180.032 219.989 208.757 216.506Z" fill="#A895DE"/>
<path d="M240.083 182.688C241.185 191.575 242.107 211.439 210.735 216.138C205.547 217.003 191.281 217.046 175.718 210.302C156.264 201.872 140.571 202.032 131.492 210.949C121.339 220.921 88.8182 219.921 81.3658 197.009C67.3427 153.893 140.665 138.219 138.694 193.19" stroke="#674DB3" stroke-width="1.4997" stroke-linecap="round" stroke-linejoin="round"/>
<path d="M129.308 212.692C131.021 211.31 134.729 207.737 136.032 203.568" stroke="#674DB3" stroke-width="1.4997" stroke-linecap="round" stroke-linejoin="round"/>
<path d="M191.459 215.127C179.887 212.113 166.759 194.511 179.985 172.923C193.977 150.084 235.493 153.234 240.125 183.028" stroke="#674DB3" stroke-width="1.4997" stroke-linecap="round" stroke-linejoin="round"/>
<path d="M106.614 150.63C113.282 155.283 132.535 164.498 157.747 164.613" stroke="#674DB3" stroke-width="1.4997" stroke-linecap="round" stroke-linejoin="round"/>
<path d="M42.6439 45.917C40.5364 39.219 48.2316 33.7368 53.8736 37.9167L63.768 45.2479C64.812 46.0213 66.2354 46.0343 67.2937 45.2805L77.3232 38.1353C83.042 34.0611 90.633 39.6849 88.4015 46.3424L84.4871 58.0184C84.0742 59.2504 84.502 60.608 85.5461 61.3815L95.4404 68.7127C101.082 72.8928 98.0791 81.85 91.0577 81.7847L78.7443 81.6697C77.4451 81.6576 76.2853 82.4838 75.8723 83.7158L71.9587 95.3912C69.7268 102.049 60.2799 101.961 58.1721 95.2634L54.4752 83.517C54.0852 82.2776 52.9418 81.4297 51.6426 81.4175L39.3284 81.3031C32.3071 81.2375 29.4716 72.2257 35.1904 68.1515L45.2199 61.0063C46.278 60.2523 46.7307 58.9027 46.3408 57.6634L42.6439 45.917Z" fill="#FDF499" stroke="#C7A51F" stroke-width="1.4997"/>
<path d="M246.344 82.5296C247.059 82.226 247.891 82.1976 248.757 82.5019C264.451 88.0132 279.184 101.862 281.076 120.164C283.573 144.306 264.537 165.125 244.564 168.712C229.932 171.339 213.616 166.232 202.899 156.558C202.23 155.954 201.858 155.227 201.78 154.47C201.703 153.72 201.92 152.998 202.324 152.402C203.129 151.215 204.705 150.484 206.441 150.871C226.073 155.25 245.074 148.93 253.293 133.971C260.926 120.077 257.286 102.339 245.332 88.4797C244.149 87.107 244.067 85.3302 244.75 84.0302C245.092 83.3781 245.636 82.8299 246.344 82.5296Z" fill="#FDF499" stroke="#C7A51F" stroke-width="1.4997"/>
</svg>
