<svg width="339" height="443" viewBox="0 0 339 443" fill="none" xmlns="http://www.w3.org/2000/svg">
<path d="M317.561 366.699C316.707 364.393 313.446 364.393 312.593 366.699L309.811 374.215C309.543 374.94 308.971 375.512 308.246 375.78L300.729 378.562C298.423 379.415 298.423 382.677 300.729 383.53L308.246 386.311C308.971 386.58 309.543 387.151 309.811 387.876L312.593 395.393C313.446 397.699 316.707 397.699 317.561 395.393L320.342 387.876C320.61 387.151 321.182 386.58 321.907 386.311L329.424 383.53C331.73 382.677 331.73 379.415 329.424 378.562L321.907 375.78C321.182 375.512 320.61 374.94 320.342 374.215L317.561 366.699Z" fill="#57556C"/>
<ellipse cx="2.61822" cy="2.61822" rx="2.61822" ry="2.61822" transform="matrix(-1 0 0 1 338.756 352.094)" fill="#57556C"/>
<ellipse cx="2.61822" cy="2.61822" rx="2.61822" ry="2.61822" transform="matrix(-1 0 0 1 143.254 437.488)" fill="#57556C"/>
<ellipse cx="2.61822" cy="2.61822" rx="2.61822" ry="2.61822" transform="matrix(-1 0 0 1 338.742 147.189)" fill="#57556C"/>
<ellipse cx="2.61822" cy="2.61822" rx="2.61822" ry="2.61822" transform="matrix(-1 0 0 1 326.975 10.7734)" fill="#57556C"/>
<ellipse cx="2.61822" cy="2.61822" rx="2.61822" ry="2.61822" transform="matrix(-1 0 0 1 5.23633 31.583)" fill="#57556C"/>
<ellipse cx="2.61822" cy="2.61822" rx="2.61822" ry="2.61822" transform="matrix(-1 0 0 1 40.4961 173.564)" fill="#57556C"/>
<ellipse cx="2.61822" cy="2.61822" rx="2.61822" ry="2.61822" transform="matrix(-1 0 0 1 114 128.238)" fill="#57556C"/>
<ellipse cx="2.61822" cy="2.61822" rx="2.61822" ry="2.61822" transform="matrix(-1 0 0 1 21.2461 419.106)" fill="#57556C"/>
<ellipse cx="320.37" cy="126.872" rx="6.60244" ry="6.60244" fill="#57556C"/>
<ellipse cx="22.5477" cy="197.854" rx="6.60244" ry="6.60244" fill="#57556C"/>
<path d="M17.0486 4.2687C17.5912 2.80237 19.6651 2.80237 20.2077 4.2687L21.9764 9.04852C22.147 9.50953 22.5105 9.873 22.9715 10.0436L27.7513 11.8123C29.2176 12.3549 29.2176 14.4288 27.7513 14.9714L22.9715 16.7401C22.5105 16.9107 22.147 17.2742 21.9764 17.7352L20.2077 22.515C19.6651 23.9813 17.5912 23.9813 17.0486 22.515L15.2799 17.7352C15.1093 17.2742 14.7458 16.9107 14.2848 16.7401L9.50501 14.9714C8.03869 14.4288 8.03869 12.3549 9.50501 11.8123L14.2848 10.0436C14.7458 9.873 15.1093 9.50953 15.2799 9.04852L17.0486 4.2687Z" fill="#57556C"/>
</svg>
