<svg width="169" height="181" viewBox="0 0 169 181" fill="none" xmlns="http://www.w3.org/2000/svg">
<g filter="url(#filter0_g_1290_6053)">
<path d="M79.806 94.1383C81.929 89.7949 87.6831 88.3972 91.7385 91.0289C92.0644 91.2404 92.3696 91.4612 92.645 91.6906C114.542 109.935 136.741 100.164 144.147 128.216C147.462 140.773 136.036 154.267 128.278 156.315C106.662 162.022 110.64 152.035 102.076 154.296C92.261 156.887 97.6455 164.403 83.6866 168.088C66.374 172.659 57.2378 167.764 52.6135 152.383C43.4984 122.064 71.1493 120.604 79.3727 95.1949C79.4852 94.8472 79.6325 94.4933 79.806 94.1383Z" fill="#C4B8E9"/>
<ellipse cx="13.4911" cy="19.1113" rx="13.4911" ry="19.1113" transform="matrix(0.975018 -0.222126 0.20308 0.979162 43.0127 58.5423)" fill="#C4B8E9"/>
<ellipse cx="13.4911" cy="19.1113" rx="13.4911" ry="19.1113" transform="matrix(-0.955643 0.294528 0.313099 0.94972 105.43 41.9769)" fill="#C4B8E9"/>
<ellipse cx="13.5533" cy="19.0428" rx="13.5533" ry="19.0428" transform="matrix(0.911399 -0.411523 0.366404 0.930456 18.1914 98.8651)" fill="#C4B8E9"/>
<ellipse cx="13.5533" cy="19.0428" rx="13.5533" ry="19.0428" transform="matrix(-0.99749 0.070811 0.119567 0.992826 147.495 65.0731)" fill="#C4B8E9"/>
<path d="M17.5429 70.8232C17.6753 68.0704 21.179 66.9922 22.8362 69.1941L29.7745 78.413C32.7384 82.3511 30.8949 88.037 26.1842 89.4868C21.4734 90.9365 16.752 87.2711 16.9887 82.348L17.5429 70.8232Z" fill="#C4B8E9"/>
<path d="M46.277 30.7479C46.7579 28.0342 50.3701 27.4097 51.7343 29.8043L57.4456 39.8297C59.8854 44.1123 57.3347 49.518 52.4779 50.3578C47.6212 51.1976 43.4035 46.9622 44.2636 42.109L46.277 30.7479Z" fill="#C4B8E9"/>
<path d="M83.8194 21.2756C83.8364 18.5197 87.2917 17.2956 89.0398 19.4262L96.3583 28.3463C99.4846 32.1567 97.8809 37.9148 93.2351 39.5607C88.5892 41.2066 83.7183 37.7422 83.7486 32.8135L83.8194 21.2756Z" fill="#C4B8E9"/>
<path d="M126.299 42.6394C126.493 39.8903 130.02 38.8917 131.627 41.1307L138.355 50.5045C141.229 54.5087 139.257 60.1513 134.515 61.494C129.772 62.8366 125.135 59.0652 125.483 54.1487L126.299 42.6394Z" fill="#C4B8E9"/>
</g>
<defs>
<filter id="filter0_g_1290_6053" x="13.2668" y="14.6304" width="140.41" height="158.813" filterUnits="userSpaceOnUse" color-interpolation-filters="sRGB">
<feFlood flood-opacity="0" result="BackgroundImageFix"/>
<feBlend mode="normal" in="SourceGraphic" in2="BackgroundImageFix" result="shape"/>
<feTurbulence type="fractalNoise" baseFrequency="0.02341839112341404 0.02341839112341404" numOctaves="3" seed="1852" />
<feDisplacementMap in="shape" scale="7.4263443946838379" xChannelSelector="R" yChannelSelector="G" result="displacedImage" width="100%" height="100%" />
<feMerge result="effect1_texture_1290_6053">
<feMergeNode in="displacedImage"/>
</feMerge>
</filter>
</defs>
</svg>
