<svg width="226" height="245" viewBox="0 0 226 245" fill="none" xmlns="http://www.w3.org/2000/svg">
<g opacity="0.99">
<mask id="path-1-outside-1_1290_8397" maskUnits="userSpaceOnUse" x="136.92" y="31.1594" width="86" height="61" fill="black">
<rect fill="white" x="136.92" y="31.1594" width="86" height="61"/>
<path fill-rule="evenodd" clip-rule="evenodd" d="M179.463 33.1594C187.176 33.1594 194.181 36.1934 199.349 41.133C200.005 40.8793 200.644 40.6356 201.266 40.4055C204.729 39.1242 207.857 38.1364 210.33 37.633C211.518 37.391 212.912 37.1845 214.258 37.2502C214.929 37.283 215.916 37.3963 216.964 37.8215C218.06 38.2664 219.542 39.1964 220.457 40.9914C221.371 42.7868 221.252 44.5333 220.967 45.6818C220.694 46.7797 220.206 47.6447 219.838 48.2072C219.099 49.3342 218.112 50.3395 217.218 51.1584C215.356 52.8619 212.717 54.8109 209.644 56.8576C209.106 57.2163 208.547 57.5798 207.971 57.9514C208.153 59.2568 208.249 60.5902 208.249 61.9455C208.249 77.8432 195.36 90.7307 179.463 90.7307C171.636 90.7306 164.54 87.6058 159.351 82.5373C159.175 82.6033 159.001 82.6704 158.828 82.7346C155.365 84.0158 152.237 85.0046 149.764 85.508C148.576 85.75 147.181 85.9566 145.836 85.8908C145.164 85.8579 144.178 85.7448 143.13 85.3195C142.033 84.8745 140.552 83.9431 139.637 82.1476C138.724 80.3525 138.842 78.6076 139.127 77.4592C139.399 76.3613 139.888 75.4963 140.257 74.9338C140.995 73.8068 141.982 72.8006 142.877 71.9816C144.738 70.2783 147.377 68.3299 150.45 66.2834C150.616 66.1725 150.786 66.0616 150.956 65.9494C150.774 64.6408 150.678 63.3043 150.677 61.9455C150.677 46.0477 163.565 33.1595 179.463 33.1594ZM152.534 72.134C147.351 75.6882 144.461 78.367 144.996 79.4191C145.531 80.4704 149.393 79.7096 155.311 77.6105C154.2 75.9015 153.266 74.0677 152.534 72.134ZM215.098 43.7209C214.523 42.5928 210.112 43.5516 203.44 46.0148C204.634 47.8079 205.63 49.7426 206.402 51.7883C212.123 47.9699 215.458 45.0384 215.14 43.8332L215.098 43.7209Z"/>
</mask>
<path fill-rule="evenodd" clip-rule="evenodd" d="M179.463 33.1594C187.176 33.1594 194.181 36.1934 199.349 41.133C200.005 40.8793 200.644 40.6356 201.266 40.4055C204.729 39.1242 207.857 38.1364 210.33 37.633C211.518 37.391 212.912 37.1845 214.258 37.2502C214.929 37.283 215.916 37.3963 216.964 37.8215C218.06 38.2664 219.542 39.1964 220.457 40.9914C221.371 42.7868 221.252 44.5333 220.967 45.6818C220.694 46.7797 220.206 47.6447 219.838 48.2072C219.099 49.3342 218.112 50.3395 217.218 51.1584C215.356 52.8619 212.717 54.8109 209.644 56.8576C209.106 57.2163 208.547 57.5798 207.971 57.9514C208.153 59.2568 208.249 60.5902 208.249 61.9455C208.249 77.8432 195.36 90.7307 179.463 90.7307C171.636 90.7306 164.54 87.6058 159.351 82.5373C159.175 82.6033 159.001 82.6704 158.828 82.7346C155.365 84.0158 152.237 85.0046 149.764 85.508C148.576 85.75 147.181 85.9566 145.836 85.8908C145.164 85.8579 144.178 85.7448 143.13 85.3195C142.033 84.8745 140.552 83.9431 139.637 82.1476C138.724 80.3525 138.842 78.6076 139.127 77.4592C139.399 76.3613 139.888 75.4963 140.257 74.9338C140.995 73.8068 141.982 72.8006 142.877 71.9816C144.738 70.2783 147.377 68.3299 150.45 66.2834C150.616 66.1725 150.786 66.0616 150.956 65.9494C150.774 64.6408 150.678 63.3043 150.677 61.9455C150.677 46.0477 163.565 33.1595 179.463 33.1594ZM152.534 72.134C147.351 75.6882 144.461 78.367 144.996 79.4191C145.531 80.4704 149.393 79.7096 155.311 77.6105C154.2 75.9015 153.266 74.0677 152.534 72.134ZM215.098 43.7209C214.523 42.5928 210.112 43.5516 203.44 46.0148C204.634 47.8079 205.63 49.7426 206.402 51.7883C212.123 47.9699 215.458 45.0384 215.14 43.8332L215.098 43.7209Z" fill="#82C1D8"/>
<path fill-rule="evenodd" clip-rule="evenodd" d="M179.463 33.1594V31.7716H179.463L179.463 33.1594ZM199.349 41.133L198.39 42.1362L199.028 42.7454L199.85 42.4273L199.349 41.133ZM201.266 40.4055L200.785 39.1039L200.785 39.1039L201.266 40.4055ZM210.33 37.633L210.053 36.2731L210.053 36.2731L210.33 37.633ZM214.258 37.2502L214.325 35.864L214.325 35.864L214.258 37.2502ZM216.964 37.8215L217.485 36.5355L217.485 36.5355L216.964 37.8215ZM220.457 40.9914L221.693 40.3616L221.693 40.3615L220.457 40.9914ZM220.967 45.6818L222.313 46.0162L222.313 46.0161L220.967 45.6818ZM219.838 48.2072L220.999 48.9677L220.999 48.9677L219.838 48.2072ZM217.218 51.1584L218.154 52.1821V52.1821L217.218 51.1584ZM209.644 56.8576L210.414 58.0126V58.0126L209.644 56.8576ZM207.971 57.9514L207.219 56.7854L206.475 57.2655L206.597 58.1422L207.971 57.9514ZM208.249 61.9455L209.637 61.9455V61.9455H208.249ZM179.463 90.7307L179.463 92.1184H179.463V90.7307ZM159.351 82.5373L160.321 81.5445L159.69 80.9282L158.864 81.2378L159.351 82.5373ZM158.828 82.7346L159.31 84.0361H159.31L158.828 82.7346ZM149.764 85.508L150.041 86.8679L150.041 86.8679L149.764 85.508ZM145.836 85.8908L145.768 87.2769H145.768L145.836 85.8908ZM143.13 85.3195L142.608 86.6055L142.608 86.6055L143.13 85.3195ZM139.637 82.1476L138.401 82.7773L138.401 82.7774L139.637 82.1476ZM139.127 77.4592L137.78 77.1248L137.78 77.1249L139.127 77.4592ZM140.257 74.9338L139.096 74.1733L139.096 74.1733L140.257 74.9338ZM142.877 71.9816L141.94 70.9579L141.94 70.9579L142.877 71.9816ZM150.45 66.2834L149.681 65.1284L149.681 65.1284L150.45 66.2834ZM150.956 65.9494L151.72 67.108L152.451 66.6257L152.33 65.7581L150.956 65.9494ZM150.677 61.9455H149.29L149.29 61.9455L150.677 61.9455ZM152.534 72.134L153.832 71.6426L153.206 69.9902L151.749 70.9894L152.534 72.134ZM144.996 79.4191L143.759 80.0478L143.759 80.0489L144.996 79.4191ZM155.311 77.6105L155.775 78.9185L157.434 78.3301L156.475 76.8542L155.311 77.6105ZM215.098 43.7209L216.398 43.2348L216.371 43.1606L216.335 43.0901L215.098 43.7209ZM203.44 46.0148L202.96 44.7129L201.311 45.3214L202.285 46.7839L203.44 46.0148ZM206.402 51.7883L205.104 52.2781L205.72 53.912L207.173 52.9426L206.402 51.7883ZM215.14 43.8332L216.482 43.4791L216.465 43.4121L216.44 43.3471L215.14 43.8332ZM179.463 33.1594V34.5472C186.805 34.5472 193.47 37.4335 198.39 42.1362L199.349 41.133L200.308 40.1298C194.892 34.9532 187.547 31.7716 179.463 31.7716V33.1594ZM199.349 41.133L199.85 42.4273C200.502 42.1751 201.134 41.934 201.748 41.707L201.266 40.4055L200.785 39.1039C200.154 39.3372 199.508 39.5835 198.849 39.8387L199.349 41.133ZM201.266 40.4055L201.748 41.707C205.187 40.4346 208.238 39.4753 210.607 38.9929L210.33 37.633L210.053 36.2731C207.477 36.7976 204.271 37.8138 200.785 39.1039L201.266 40.4055ZM210.33 37.633L210.607 38.9929C211.753 38.7595 213.015 38.5789 214.19 38.6363L214.258 37.2502L214.325 35.864C212.809 35.79 211.284 36.0225 210.053 36.2731L210.33 37.633ZM214.258 37.2502L214.19 38.6363C214.775 38.6649 215.591 38.7624 216.442 39.1075L216.964 37.8215L217.485 36.5355C216.24 36.0302 215.083 35.9011 214.325 35.864L214.258 37.2502ZM216.964 37.8215L216.442 39.1074C217.333 39.4692 218.502 40.211 219.22 41.6213L220.457 40.9914L221.693 40.3615C220.583 38.1818 218.787 37.0635 217.485 36.5355L216.964 37.8215ZM220.457 40.9914L219.22 41.6212C219.939 43.0319 219.851 44.4137 219.62 45.3475L220.967 45.6818L222.313 46.0161C222.652 44.6528 222.804 42.5417 221.693 40.3616L220.457 40.9914ZM220.967 45.6818L219.62 45.3474C219.398 46.239 218.997 46.9573 218.677 47.4468L219.838 48.2072L220.999 48.9677C221.415 48.3321 221.99 47.3203 222.313 46.0162L220.967 45.6818ZM219.838 48.2072L218.677 47.4467C218.032 48.4306 217.144 49.3445 216.281 50.1346L217.218 51.1584L218.154 52.1821C219.081 51.3344 220.166 50.2378 220.999 48.9677L219.838 48.2072ZM217.218 51.1584L216.281 50.1346C214.497 51.7669 211.927 53.67 208.875 55.7026L209.644 56.8576L210.414 58.0126C213.508 55.9518 216.215 53.9568 218.154 52.1821L217.218 51.1584ZM209.644 56.8576L208.875 55.7026C208.345 56.0558 207.792 56.4152 207.219 56.7854L207.971 57.9514L208.724 59.1173C209.302 58.7444 209.867 58.3767 210.414 58.0126L209.644 56.8576ZM207.971 57.9514L206.597 58.1422C206.77 59.3862 206.861 60.656 206.861 61.9455H208.249H209.637C209.637 60.5245 209.536 59.1273 209.346 57.7605L207.971 57.9514ZM208.249 61.9455L206.861 61.9455C206.861 77.0767 194.594 89.3429 179.463 89.3429V90.7307V92.1184C196.127 92.1184 209.636 78.6097 209.637 61.9455L208.249 61.9455ZM179.463 90.7307L179.463 89.3429C172.013 89.3428 165.261 86.3702 160.321 81.5445L159.351 82.5373L158.382 83.5301C163.819 88.8415 171.259 92.1184 179.463 92.1184L179.463 90.7307ZM159.351 82.5373L158.864 81.2378C158.666 81.3119 158.521 81.3683 158.346 81.433L158.828 82.7346L159.31 84.0361C159.481 83.9726 159.684 83.8946 159.838 83.8368L159.351 82.5373ZM158.828 82.7346L158.346 81.433C154.907 82.7055 151.856 83.6658 149.488 84.1481L149.764 85.508L150.041 86.8679C152.617 86.3434 155.823 85.3261 159.31 84.0361L158.828 82.7346ZM149.764 85.508L149.488 84.1481C148.341 84.3815 147.079 84.5621 145.903 84.5047L145.836 85.8908L145.768 87.2769C147.284 87.3511 148.81 87.1185 150.041 86.8679L149.764 85.508ZM145.836 85.8908L145.904 84.5047C145.318 84.476 144.502 84.3786 143.651 84.0336L143.13 85.3195L142.608 86.6055C143.854 87.1109 145.01 87.2399 145.768 87.2769L145.836 85.8908ZM143.13 85.3195L143.651 84.0336C142.761 83.6722 141.593 82.9294 140.874 81.5179L139.637 82.1476L138.401 82.7774C139.511 84.9568 141.305 86.0769 142.608 86.6055L143.13 85.3195ZM139.637 82.1476L140.874 81.518C140.156 80.1069 140.242 78.7263 140.474 77.7934L139.127 77.4592L137.78 77.1249C137.441 78.4889 137.291 80.5982 138.401 82.7773L139.637 82.1476ZM139.127 77.4592L140.474 77.7935C140.695 76.9026 141.096 76.1846 141.417 75.6942L140.257 74.9338L139.096 74.1733C138.68 74.808 138.104 75.82 137.78 77.1248L139.127 77.4592ZM140.257 74.9338L141.417 75.6943C142.062 74.7101 142.951 73.7952 143.814 73.0054L142.877 71.9816L141.94 70.9579C141.013 71.806 139.928 72.9035 139.096 74.1733L140.257 74.9338ZM142.877 71.9816L143.814 73.0054C145.597 71.3734 148.168 69.471 151.219 67.4384L150.45 66.2834L149.681 65.1284C146.587 67.1889 143.879 69.1832 141.94 70.9579L142.877 71.9816ZM150.45 66.2834L151.219 67.4384C151.382 67.3299 151.545 67.2231 151.72 67.108L150.956 65.9494L150.192 64.7908C150.026 64.9 149.851 65.0151 149.681 65.1284L150.45 66.2834ZM150.956 65.9494L152.33 65.7581C152.157 64.5113 152.065 63.2387 152.065 61.9455L150.677 61.9455L149.29 61.9455C149.29 63.3699 149.391 64.7703 149.581 66.1407L150.956 65.9494ZM150.677 61.9455H152.065C152.065 46.8141 164.331 34.5473 179.463 34.5472L179.463 33.1594L179.463 31.7716C162.798 31.7717 149.29 45.2813 149.29 61.9455H150.677ZM152.534 72.134L151.749 70.9894C149.136 72.781 147.046 74.3888 145.662 75.7115C144.978 76.3654 144.403 77.0079 144.034 77.6153C143.72 78.131 143.271 79.0873 143.759 80.0478L144.996 79.4191L146.233 78.7904C146.454 79.2249 146.165 79.4518 146.405 79.0582C146.588 78.7564 146.96 78.3098 147.579 77.7182C148.802 76.5498 150.748 75.0411 153.319 73.2785L152.534 72.134ZM144.996 79.4191L143.759 80.0489C144.248 81.0091 145.286 81.2087 145.887 81.2583C146.595 81.3167 147.452 81.2304 148.382 81.0617C150.264 80.7207 152.792 79.9766 155.775 78.9185L155.311 77.6105L154.847 76.3026C151.912 77.3436 149.55 78.0294 147.887 78.3307C147.046 78.4832 146.467 78.5211 146.115 78.4921C145.657 78.4543 146.011 78.3547 146.233 78.7894L144.996 79.4191ZM155.311 77.6105L156.475 76.8542C155.417 75.2274 154.528 73.4823 153.832 71.6426L152.534 72.134L151.236 72.6253C152.004 74.6531 152.983 76.5757 154.148 78.3668L155.311 77.6105ZM215.098 43.7209L216.335 43.0901C216.069 42.5694 215.627 42.2715 215.23 42.1094C214.843 41.9519 214.427 41.8904 214.042 41.871C213.272 41.832 212.325 41.9493 211.28 42.1609C209.168 42.5885 206.319 43.4726 202.96 44.7129L203.44 46.0148L203.921 47.3167C207.233 46.0938 209.926 45.2669 211.831 44.8813C212.794 44.6863 213.475 44.6214 213.902 44.643C214.116 44.6538 214.191 44.6833 214.182 44.6796C214.162 44.6714 213.984 44.5904 213.862 44.3517L215.098 43.7209ZM203.44 46.0148L202.285 46.7839C203.421 48.4902 204.369 50.3313 205.104 52.2781L206.402 51.7883L207.701 51.2985C206.892 49.1539 205.847 47.1256 204.595 45.2458L203.44 46.0148ZM206.402 51.7883L207.173 52.9426C210.054 51.0191 212.383 49.2884 213.965 47.8615C214.751 47.1531 215.403 46.4754 215.846 45.8504C216.068 45.5376 216.269 45.1933 216.399 44.8281C216.527 44.4665 216.617 43.9898 216.482 43.4791L215.14 43.8332L213.799 44.1873C213.743 43.9779 213.799 43.8565 213.783 43.9008C213.768 43.9415 213.717 44.0538 213.582 44.245C213.31 44.6279 212.83 45.1477 212.107 45.8001C210.671 47.0948 208.471 48.7391 205.632 50.634L206.402 51.7883ZM215.14 43.8332L216.44 43.3471L216.398 43.2348L215.098 43.7209L213.799 44.2069L213.84 44.3192L215.14 43.8332Z" fill="#4C7F91" mask="url(#path-1-outside-1_1290_8397)"/>
</g>
<path opacity="0.99" d="M176.592 54.7861C186.342 49.8215 195.449 45.7661 202.31 43.2271C205.722 41.9647 208.682 41.038 210.93 40.5803C212.03 40.3563 213.137 40.2057 214.111 40.2534C214.598 40.2771 215.215 40.3568 215.834 40.608C216.477 40.869 217.284 41.3885 217.777 42.3568C218.271 43.3254 218.216 44.2845 218.049 44.9582C217.888 45.6067 217.59 46.1524 217.323 46.5599C216.788 47.376 216.015 48.1825 215.187 48.9406C213.495 50.4895 211.004 52.3381 207.977 54.3547C201.888 58.4105 193.252 63.3909 183.502 68.3555C173.753 73.3202 164.646 77.3755 157.784 79.9146C154.373 81.1769 151.413 82.1036 149.165 82.5613C148.065 82.7853 146.958 82.9358 145.983 82.8883C145.497 82.8645 144.88 82.7848 144.261 82.5336C143.618 82.2726 142.81 81.7526 142.317 80.7839C141.824 79.8155 141.878 78.857 142.046 78.1834C142.207 77.5351 142.505 76.9892 142.772 76.5817C143.306 75.7658 144.079 74.9591 144.907 74.2011C146.6 72.6522 149.09 70.8035 152.118 68.787C158.207 64.7311 166.843 59.7508 176.592 54.7861Z" stroke="#E0FFFF" stroke-width="6.01376" stroke-linejoin="round"/>
<circle opacity="0.99" cx="179.461" cy="61.9453" r="28.7857" fill="#B0DDED"/>
<mask id="mask0_1290_8397" style="mask-type:alpha" maskUnits="userSpaceOnUse" x="150" y="33" width="59" height="58">
<circle opacity="0.99" cx="179.461" cy="61.945" r="28.7857" fill="#83C2D9"/>
</mask>
<g mask="url(#mask0_1290_8397)">
<ellipse cx="192.263" cy="58.2961" rx="11.513" ry="11.5129" transform="rotate(-45 192.263 58.2961)" fill="#84C1DA"/>
<ellipse cx="168.779" cy="80.768" rx="2.91991" ry="2.91986" transform="rotate(-45 168.779 80.768)" fill="#84C1DA"/>
<ellipse cx="180.916" cy="40.3436" rx="2.91991" ry="2.91986" transform="rotate(-45 180.916 40.3436)" fill="#84C1DA"/>
<ellipse cx="184.814" cy="81.9493" rx="5.58153" ry="5.58144" transform="rotate(-45 184.814 81.9493)" fill="#84C1DA"/>
<ellipse cx="164.126" cy="54.3594" rx="8.38174" ry="8.38161" transform="rotate(-45 164.126 54.3594)" fill="#84C1DA"/>
</g>
<path opacity="0.99" d="M182.078 65.7062C162.681 75.5838 146.021 81.7532 144.866 79.4861L139.637 82.1487L139.727 82.3188C140.67 84.0491 142.122 84.9412 143.171 85.3658C144.21 85.7863 145.182 85.8957 145.839 85.9273C147.16 85.9907 148.533 85.787 149.714 85.5459C152.169 85.0446 155.286 84.0592 158.75 82.7766C165.751 80.1842 174.975 76.072 184.807 71.0651C194.639 66.0583 203.39 61.017 209.604 56.8799C212.679 54.833 215.31 52.8914 217.159 51.2004C218.049 50.3872 219.021 49.397 219.746 48.2914C220.107 47.7417 220.59 46.8911 220.861 45.8034C221.144 44.6693 221.276 42.8957 220.338 41.0534L215.133 43.7703C216.033 46.1368 201.324 55.9056 182.078 65.7062Z" fill="#E0FFFF"/>
<path d="M116.732 224.983C116.946 221.27 119.658 205.266 119.658 205.052L124.157 203.766L119.463 225.358C128.442 228.92 132.092 236.075 133.156 240.648C133.367 241.555 132.394 242.183 131.546 241.798C123.343 238.073 114.712 240.958 110.157 243.6C109.443 244.014 108.495 243.641 108.23 242.86C106.635 238.15 103.384 236.03 100.858 235.258C99.9748 234.988 99.4558 233.881 100.047 233.172C105.754 226.332 113.406 224.834 116.732 224.983Z" fill="#FDDF39"/>
<path d="M84.4987 222.823L80.8951 201.204C82.5427 198.458 83.984 200.632 84.4987 202.062L87.7594 222.823C94.4865 222.823 101.031 228.6 103.462 231.489C102.289 232.404 99.8751 234.235 99.6005 234.235C94.5934 233.933 89.1754 237.1 86.3051 239.308C85.7461 239.738 84.9286 239.617 84.4389 239.109C80.8907 235.429 73.8084 236.1 69.0323 237.341C68.0655 237.592 67.1997 236.643 67.6992 235.778C71.8252 228.634 80.3795 224.222 84.4987 222.823Z" fill="#FDDF39"/>
<path fill-rule="evenodd" clip-rule="evenodd" d="M85.9839 34.312C89.8111 26.9291 99.7108 18.6835 113.59 21.3823C128.329 24.2484 132.119 36.8502 132.261 45.5376C132.306 48.2853 132.957 51.0152 133.967 53.5708C137.497 62.5016 136.724 76.9132 116.795 83.9038C110.915 85.9666 111.178 97.303 113.59 101.451C126.211 123.151 159.398 108.658 172.289 104.807C175.689 103.791 176.328 106.15 174.596 109.249C169.949 117.563 168.922 123.844 168.25 131.531C185.849 121.192 201.276 130.32 179.696 145.169C197.069 138.535 193.97 158.716 169.568 169.572C191.217 162.449 176.162 186.821 147.394 192.457C137.913 202.603 124.658 209.736 107.004 209.736C81.9936 209.736 66.2796 197.455 58.897 174.848C47.7277 140.644 79.2014 109.701 84.2769 97.1763C87.8092 88.4596 87.1308 84.0734 85.7671 81.3999C84.248 78.4217 81.5039 75.9654 79.1451 73.5962C66.2883 60.6833 72.222 49.5155 79.8072 42.895C82.4548 40.5841 84.3666 37.4321 85.9839 34.312Z" fill="#FDF499"/>
<path d="M104.49 48.4352C100.999 46.2197 98.4479 48.3513 97.6086 49.694C96.7694 51.0367 95.6784 53.5542 91.063 54.3095C85.8313 55.1656 76.6008 59.2438 97.7232 70.5186C100.05 71.7606 102.66 72.4609 105.298 72.5057C124.554 72.833 125.026 66.2563 118.421 61.2748C113.301 57.4145 117.078 55.6522 114.644 51.9598C112.211 48.2674 108.854 51.2045 104.49 48.4352Z" fill="#FFC362"/>
<ellipse cx="102.518" cy="53.1768" rx="0.888898" ry="1.39682" transform="rotate(-28.8496 102.518 53.1768)" fill="#5D4D34"/>
<ellipse cx="109.518" cy="55.1065" rx="0.888898" ry="1.39682" transform="rotate(67.1816 109.518 55.1065)" fill="#5D4D34"/>
<ellipse cx="93.7553" cy="42.4782" rx="2.16385" ry="3.25658" transform="rotate(21.6021 93.7553 42.4782)" fill="#343247"/>
<ellipse cx="2.16385" cy="3.25658" rx="2.16385" ry="3.25658" transform="matrix(-0.998533 -0.0541496 -0.0541496 0.998533 124.595 46.0142)" fill="#343247"/>
<ellipse cx="87.5124" cy="48.6399" rx="5.32676" ry="3.57276" transform="rotate(20.5782 87.5124 48.6399)" fill="#F6DD53"/>
<ellipse cx="124.983" cy="58.2975" rx="5.32676" ry="3.57276" transform="rotate(4.01667 124.983 58.2975)" fill="#F6DD53"/>
<path d="M85.7773 61.9482C91.3043 65.7393 105.544 71.8347 120.532 69.8652C118.387 71.6767 113.642 72.8795 105.309 72.7461C102.641 72.7034 100.004 71.9868 97.6582 70.7148C90.9777 67.0926 87.395 64.2136 85.7773 61.9482Z" fill="#E09E41"/>
<path d="M146.459 193.076C125.595 215.754 82.5143 219.941 62.4964 183.801C46.2155 154.407 63.1844 128.325 82.2705 101.218C89.0769 91.5516 88.2665 82.6131 82.2705 76.8357C65.734 60.9021 72.1128 49.6935 78.673 44.1883C82.5152 40.9639 83.4891 38.1012 85.2023 35.4778C94.9018 20.6248 104.904 20.3029 110.048 20.9717C117.223 21.8287 131.053 25.4795 131.59 41.2346C131.749 45.9058 131.59 49.7273 134.118 54.4599C138.178 62.0583 137.49 74.2978 121.501 82.1769C115.478 85.1451 109.894 86.3096 112.102 96.5743C114.862 109.405 127.096 116.119 143.06 112.762C159.024 109.405 173.475 102.056 175.769 105.762C177.403 108.401 169.129 111.964 168.296 130.763" stroke="#C7A51F" stroke-width="1.38779" stroke-linecap="round"/>
<path d="M156.424 141.065C158.197 138.133 164.331 131.402 175.989 128.539C198.409 123.032 189.66 138.252 179.969 145.01C188.023 140.638 203.696 149.543 169.708 169.534C176.557 165.213 193.15 170.433 160.278 188.391C150.844 193.545 134.596 196.87 139.553 182.497" stroke="#C7A51F" stroke-width="1.38779" stroke-linecap="round" stroke-linejoin="round"/>
<path d="M85.6655 206.185C85.7357 206.958 87.1358 216.564 87.9456 222.08C88.0267 222.633 88.4897 223.043 89.046 223.096C92.8838 223.462 99.2865 225.311 102.24 230.234M81.0116 204.138C81.9912 207.006 83.5406 216.73 84.3161 222.063C84.3975 222.623 84.0625 223.154 83.5281 223.34C78.1593 225.206 69.1942 229.737 67.7946 235.835C67.6158 236.614 68.399 237.184 69.1697 236.973C73.4787 235.793 80.6052 235.063 84.7394 238.807C85.265 239.283 86.0979 239.314 86.6298 238.845C89.2542 236.531 94.3109 233.711 100.155 234.285" stroke="#C7A51F" stroke-width="1.38779" stroke-linecap="round" stroke-linejoin="round"/>
<path d="M118.324 209.264L116.421 224.217C116.35 224.771 115.894 225.193 115.338 225.248C110.765 225.701 102.977 227.8 100.244 233.36C99.9699 233.918 100.27 234.567 100.826 234.847C103.392 236.144 107.243 239.005 108.553 242.7C108.842 243.513 109.835 243.992 110.597 243.588C115.433 241.029 124.125 238.341 131.36 241.718C132.19 242.105 133.402 241.551 133.383 240.635C133.318 237.499 131.692 231.416 120.515 225.505C120.131 225.302 119.876 224.904 119.913 224.472C120.206 221.099 122.236 212.516 123.471 208.062" stroke="#C7A51F" stroke-width="1.38779" stroke-linecap="round" stroke-linejoin="round"/>
<circle cx="106.148" cy="52.1093" r="51.4154" fill="#B0DDED" fill-opacity="0.41" stroke="#E0FFFF" stroke-width="1.38779"/>
<path d="M76.9541 97.5671C77.4913 96.6657 78.6682 96.3939 79.569 96.9321C87.1645 101.47 95.8494 104.031 105.565 104.156C110.729 104.222 116.092 103.537 120.971 102.094C121.988 101.793 123.074 102.355 123.367 103.375L124.063 105.799C124.347 106.788 123.77 107.821 122.773 108.075C117.289 109.473 111.802 110.299 105.991 110.224C95.1365 110.085 85.0551 107.074 76.3367 102.222C75.4428 101.725 75.1553 100.586 75.6791 99.7067L76.9541 97.5671Z" fill="#4F9AB4"/>
<path d="M69.7686 28.8444C74.4439 16.9076 87.4783 9.4594 98.4864 8.19977" stroke="white" stroke-width="3.93208" stroke-linecap="round" stroke-linejoin="round"/>
<path d="M104.688 7.03611C104.688 7.03611 106.567 6.80451 107.887 7.01582" stroke="white" stroke-width="3.93208" stroke-linecap="round" stroke-linejoin="round"/>
<circle cx="52.1438" cy="155.561" r="14.1199" fill="#B0DDED" stroke="#4C7E90" stroke-width="1.38779"/>
<mask id="mask1_1290_8397" style="mask-type:alpha" maskUnits="userSpaceOnUse" x="38" y="142" width="28" height="27">
<circle cx="52.1438" cy="155.561" r="13.426" fill="#B0DDED"/>
</mask>
<g mask="url(#mask1_1290_8397)">
<path fill-rule="evenodd" clip-rule="evenodd" d="M57.7148 164.581C59.032 164.581 60.0996 165.649 60.0996 166.966C60.0994 168.283 59.0318 169.351 57.7148 169.351C56.3977 169.351 55.3294 168.283 55.3291 166.966C55.3291 165.649 56.3975 164.581 57.7148 164.581ZM48.0195 158.163C50.2978 158.163 52.1445 160.009 52.1445 162.288C52.1444 164.566 50.2978 166.413 48.0195 166.413C45.7414 166.412 43.8947 164.566 43.8945 162.288C43.8945 160.009 45.7413 158.163 48.0195 158.163ZM64.0898 153.129C65.8746 153.129 67.322 154.576 67.3223 156.361C67.3223 158.146 65.8747 159.593 64.0898 159.593C63.4155 159.593 62.7895 159.386 62.2715 159.033C62.2819 159.119 62.29 159.206 62.29 159.294C62.2899 160.479 61.329 161.439 60.1445 161.439C58.9602 161.439 58.0001 160.479 58 159.294C58 158.11 58.9601 157.15 60.1445 157.15C60.451 157.15 60.7422 157.215 61.0059 157.331C60.9098 157.025 60.8584 156.699 60.8584 156.361C60.8586 154.576 62.3053 153.13 64.0898 153.129ZM58.3076 153.654C58.8342 153.654 59.2607 154.08 59.2607 154.607C59.2607 155.134 58.8342 155.561 58.3076 155.561C57.7809 155.561 57.3535 155.134 57.3535 154.607C57.3536 154.08 57.7809 153.654 58.3076 153.654ZM41.1543 151.764C41.6809 151.764 42.1073 152.191 42.1074 152.717C42.1074 153.244 41.6809 153.671 41.1543 153.671C40.6275 153.671 40.2002 153.244 40.2002 152.717C40.2003 152.191 40.6276 151.764 41.1543 151.764ZM46.3975 141.079C49.3676 141.079 51.7754 143.487 51.7754 146.458C51.7752 149.428 49.3675 151.835 46.3975 151.835C43.4274 151.835 41.0198 149.427 41.0195 146.458C41.0195 143.487 43.4273 141.079 46.3975 141.079ZM58.8975 145.217C60.2146 145.218 61.2822 146.286 61.2822 147.603C61.282 148.92 60.2144 149.988 58.8975 149.988C57.5803 149.988 56.512 148.92 56.5117 147.603C56.5117 146.286 57.5801 145.217 58.8975 145.217ZM55.1416 143.4C55.6682 143.4 56.0946 143.826 56.0947 144.353C56.0947 144.88 55.6682 145.307 55.1416 145.307C54.6148 145.307 54.1875 144.88 54.1875 144.353C54.1876 143.826 54.6149 143.4 55.1416 143.4Z" fill="#83C1D9"/>
</g>
<circle cx="30.1734" cy="108.213" r="29.4796" fill="#B0DDED" stroke="#4C7E90" stroke-width="1.38779"/>
<mask id="mask2_1290_8397" style="mask-type:alpha" maskUnits="userSpaceOnUse" x="1" y="79" width="58" height="58">
<circle cx="30.1734" cy="108.213" r="28.7857" fill="#B0DDED"/>
</mask>
<g mask="url(#mask2_1290_8397)">
<path d="M47.6941 59.2603C72.502 65.8503 89.4877 85.9431 85.6328 104.139L85.6389 103.731C85.6681 99.5274 84.6452 95.5206 82.9466 91.9929C75.4824 77.3983 59.9557 70.3728 45.8066 68.17C28.1418 64.9988 8.9711 72.7317 7.53161 83.3922C4.5415 93.6407 18.5674 110.192 35.6219 116.243C49.1469 121.392 65.8373 122.924 78.3607 113.639C81.388 111.268 83.9768 108.078 85.6328 104.139C81.7778 122.334 61.7461 129.709 34.8218 123.109C14.7492 118.188 -4.84284 123.379 -4.20455 80.2746C-0.349649 62.0789 22.8862 52.6704 47.6941 59.2603Z" fill="#83C1D9"/>
<path d="M50.6795 58.7529C27.2528 47.335 0.619928 53.7582 -8.80675 73.0993L-8.59227 72.732C-6.35156 68.9541 -3.38318 65.705 0.0426848 63.1487C14.5125 52.5198 34.3461 53.9597 49.1214 61.9496C67.7972 71.4089 80.7262 94.4102 71.7663 112.37C61.6875 127.702 37.0574 134.479 18.1006 125.597C2.70408 118.881 -10.6496 104.146 -11.1924 86.2002C-11.2926 81.7889 -10.5111 77.307 -8.80675 73.0993C-18.2334 92.4405 -5.98387 115.762 16.5425 128.793C39.0689 141.825 66.6019 133.788 76.0286 114.447C85.4553 95.106 74.1061 70.1708 50.6795 58.7529Z" fill="#4C7E90"/>
<path d="M10.5815 82.3283C13.4652 84.2437 16.1369 86.6049 19.5025 89.5088C22.8943 92.4352 27.1053 96.0178 33.1871 100.52C39.8733 105.47 45.6733 107.403 50.2214 107.346C54.693 107.291 58.1192 105.319 60.2992 102.03L63.5959 104.132C60.6983 108.504 60.2992 114.92 50.2214 114.92C41.4047 114.92 37.5794 111.156 28.1337 102.03C23.985 98.0213 20.3283 95.358 16.9054 92.4048C13.4564 89.429 11.0048 87.2673 8.37695 85.5219L10.5815 82.3283Z" fill="#83C1D9"/>
<path d="M75.9513 98.5016C72.7564 97.6521 69.4516 97.2201 65.3299 96.6332C61.1762 96.0417 56.049 95.2766 49.039 93.7649C41.3324 92.103 36.0351 89.2324 32.8058 86.0293C29.631 82.8802 28.3321 79.2998 28.7026 75.7895L25.1017 74.7652C24.6093 79.4311 21.3569 84.6581 28.5861 91.6794C32.1303 95.1216 39.6344 97.1437 51.7764 98.1997C57.1093 98.6635 61.2983 99.5989 65.4902 100.196C69.714 100.797 72.7437 101.197 75.655 101.971L75.9513 98.5016Z" fill="#83C1D9"/>
</g>
</svg>
