<svg width="337" height="462" viewBox="0 0 337 462" fill="none" xmlns="http://www.w3.org/2000/svg">
<ellipse cx="2.61822" cy="2.61822" rx="2.61822" ry="2.61822" transform="matrix(-1 0 0 1 161.223 146.026)" fill="#57556C"/>
<path d="M137.408 161.36C136.555 159.054 133.293 159.054 132.44 161.36L129.659 168.877C129.39 169.602 128.819 170.173 128.094 170.442L120.577 173.223C118.271 174.076 118.271 177.338 120.577 178.191L128.094 180.973C128.819 181.241 129.39 181.813 129.659 182.537L132.44 190.054C133.293 192.36 136.555 192.36 137.408 190.054L140.19 182.537C140.458 181.813 141.03 181.241 141.755 180.973L149.271 178.191C151.577 177.338 151.577 174.076 149.271 173.223L141.755 170.442C141.03 170.173 140.458 169.602 140.19 168.877L137.408 161.36Z" fill="#57556C"/>
<path d="M258.201 -2.32363C259.054 -4.62958 262.316 -4.62958 263.169 -2.32363L265.951 5.19318C266.219 5.91816 266.791 6.48977 267.515 6.75804L275.032 9.53951C277.338 10.3928 277.338 13.6543 275.032 14.5076L267.515 17.289C266.791 17.5573 266.219 18.1289 265.951 18.8539L263.169 26.3707C262.316 28.6767 259.054 28.6767 258.201 26.3707L255.42 18.8539C255.151 18.1289 254.58 17.5573 253.855 17.289L246.338 14.5076C244.032 13.6543 244.032 10.3928 246.338 9.53951L253.855 6.75804C254.58 6.48977 255.151 5.91817 255.42 5.19318L258.201 -2.32363Z" fill="#57556C"/>
<ellipse cx="327.634" cy="47.2696" rx="2.61822" ry="2.61822" fill="#57556C"/>
<ellipse cx="295.636" cy="360.608" rx="6.60244" ry="6.60244" fill="#57556C"/>
<ellipse cx="319.942" cy="377.837" rx="2.61822" ry="2.61822" fill="#57556C"/>
<ellipse cx="2.61822" cy="384.83" rx="2.61822" ry="2.61822" fill="#57556C"/>
<ellipse cx="134.925" cy="337.567" rx="2.61822" ry="2.61822" fill="#57556C"/>
<ellipse cx="70.2042" cy="458.745" rx="2.61822" ry="2.61822" fill="#57556C"/>
<ellipse cx="334.235" cy="258.577" rx="2.61822" ry="2.61822" fill="#57556C"/>
<ellipse cx="8.56158" cy="143.408" rx="2.61822" ry="2.61822" fill="#57556C"/>
</svg>
