<svg width="332" height="455" viewBox="0 0 332 455" fill="none" xmlns="http://www.w3.org/2000/svg">
<ellipse cx="6.60244" cy="335.049" rx="6.60244" ry="6.60244" fill="#57556C"/>
<ellipse cx="276.054" cy="11.8388" rx="6.60244" ry="6.60244" fill="#57556C"/>
<ellipse cx="15.8233" cy="222.049" rx="2.61822" ry="2.61822" fill="#57556C"/>
<ellipse cx="30.2803" cy="364.479" rx="2.61822" ry="2.61822" fill="#57556C"/>
<ellipse cx="214.548" cy="451.427" rx="2.61822" ry="2.61822" fill="#57556C"/>
<ellipse cx="66.1241" cy="155.909" rx="2.61822" ry="2.61822" fill="#57556C"/>
<ellipse cx="43.4854" cy="2.61822" rx="2.61822" ry="2.61822" fill="#57556C"/>
<ellipse cx="329.034" cy="236.571" rx="2.61822" ry="2.61822" fill="#57556C"/>
<ellipse cx="2.61822" cy="2.61822" rx="2.61822" ry="2.61822" transform="matrix(-1 0 0 1 316.482 155.909)" fill="#57556C"/>
<path d="M25.1777 240.666C26.0309 238.36 29.2924 238.36 30.1457 240.666L32.9272 248.183C33.1955 248.908 33.7671 249.48 34.492 249.748L42.0089 252.529C44.3148 253.383 44.3148 256.644 42.0089 257.497L34.4921 260.279C33.7671 260.547 33.1955 261.119 32.9272 261.844L30.1457 269.36C29.2924 271.666 26.0309 271.666 25.1777 269.36L22.3962 261.844C22.1279 261.119 21.5563 260.547 20.8313 260.279L13.3145 257.497C11.0086 256.644 11.0086 253.383 13.3145 252.529L20.8313 249.748C21.5563 249.48 22.1279 248.908 22.3962 248.183L25.1777 240.666Z" fill="#57556C"/>
<path d="M99.156 9.50502C99.6986 8.0387 101.773 8.0387 102.315 9.50502L104.084 14.2849C104.254 14.7459 104.618 15.1093 105.079 15.2799L109.859 17.0486C111.325 17.5912 111.325 19.6651 109.859 20.2077L105.079 21.9764C104.618 22.147 104.254 22.5105 104.084 22.9715L102.315 27.7513C101.773 29.2176 99.6986 29.2176 99.156 27.7513L97.3873 22.9715C97.2167 22.5105 96.8533 22.147 96.3923 21.9764L91.6124 20.2077C90.1461 19.6651 90.1461 17.5912 91.6124 17.0486L96.3923 15.2799C96.8533 15.1093 97.2167 14.7459 97.3873 14.2849L99.156 9.50502Z" fill="#57556C"/>
<path d="M292.67 171.243C291.817 168.937 288.555 168.937 287.702 171.243L284.92 178.76C284.652 179.485 284.081 180.056 283.356 180.324L275.839 183.106C273.533 183.959 273.533 187.221 275.839 188.074L283.356 190.855C284.081 191.124 284.652 191.695 284.92 192.42L287.702 199.937C288.555 202.243 291.817 202.243 292.67 199.937L295.451 192.42C295.72 191.695 296.291 191.124 297.016 190.855L304.533 188.074C306.839 187.221 306.839 183.959 304.533 183.106L297.016 180.324C296.291 180.056 295.72 179.485 295.451 178.76L292.67 171.243Z" fill="#57556C"/>
</svg>
