<svg width="253" height="221" viewBox="0 0 253 221" fill="none" xmlns="http://www.w3.org/2000/svg">
<mask id="path-1-inside-1_1290_8289" fill="white">
<path d="M70.5171 112.538C51.9972 112.538 36.9832 126.602 36.9829 143.953C36.9829 144.412 36.9963 144.869 37.0171 145.324C19.2385 146.982 5.35498 161.036 5.35498 178.128C5.35522 196.336 21.1109 211.096 40.5464 211.096C45.7011 211.096 50.5966 210.057 55.0083 208.192C61.959 215.622 73.0197 220.429 85.478 220.429C98.4388 220.429 109.886 215.226 116.768 207.28C122.869 214.103 132.558 218.514 143.47 218.514C155.396 218.514 165.861 213.245 171.777 205.317C176.55 206.773 181.915 207.592 187.586 207.592C207.483 207.592 223.612 197.533 223.612 185.124C223.612 172.757 207.595 162.724 187.793 162.655C189.028 159.81 189.709 156.7 189.709 153.44C189.709 139.921 178.011 128.961 163.581 128.961C149.15 128.961 137.452 139.921 137.452 153.44C137.452 156.582 138.085 159.586 139.237 162.346C130.325 163.296 122.507 167.206 117.21 172.872C112.767 167.509 106.277 163.336 98.6343 161.076C102.059 156.15 104.05 150.269 104.05 143.953C104.05 126.603 89.0368 112.538 70.5171 112.538Z"/>
</mask>
<path d="M70.5171 112.538C51.9972 112.538 36.9832 126.602 36.9829 143.953C36.9829 144.412 36.9963 144.869 37.0171 145.324C19.2385 146.982 5.35498 161.036 5.35498 178.128C5.35522 196.336 21.1109 211.096 40.5464 211.096C45.7011 211.096 50.5966 210.057 55.0083 208.192C61.959 215.622 73.0197 220.429 85.478 220.429C98.4388 220.429 109.886 215.226 116.768 207.28C122.869 214.103 132.558 218.514 143.47 218.514C155.396 218.514 165.861 213.245 171.777 205.317C176.55 206.773 181.915 207.592 187.586 207.592C207.483 207.592 223.612 197.533 223.612 185.124C223.612 172.757 207.595 162.724 187.793 162.655C189.028 159.81 189.709 156.7 189.709 153.44C189.709 139.921 178.011 128.961 163.581 128.961C149.15 128.961 137.452 139.921 137.452 153.44C137.452 156.582 138.085 159.586 139.237 162.346C130.325 163.296 122.507 167.206 117.21 172.872C112.767 167.509 106.277 163.336 98.6343 161.076C102.059 156.15 104.05 150.269 104.05 143.953C104.05 126.603 89.0368 112.538 70.5171 112.538Z" fill="#EEFAFF"/>
<path d="M70.5171 112.538V111.235H70.5171L70.5171 112.538ZM36.9829 143.953H35.6804V143.953L36.9829 143.953ZM37.0171 145.324L38.3182 145.264C38.3501 145.959 37.8305 146.556 37.1381 146.621L37.0171 145.324ZM5.35498 178.128L4.05249 178.128V178.128H5.35498ZM40.5464 211.096L40.5464 212.399H40.5464V211.096ZM55.0083 208.192L54.501 206.992C55.0041 206.78 55.5864 206.903 55.9595 207.302L55.0083 208.192ZM85.478 220.429V221.732H85.478L85.478 220.429ZM116.768 207.28L115.783 206.427C116.028 206.144 116.383 205.98 116.758 205.977C117.132 205.974 117.49 206.133 117.739 206.412L116.768 207.28ZM143.47 218.514L143.47 219.817H143.47V218.514ZM171.777 205.317L170.733 204.538C171.062 204.098 171.631 203.911 172.157 204.071L171.777 205.317ZM187.586 207.592L187.586 208.895H187.586V207.592ZM223.612 185.124H224.914V185.124L223.612 185.124ZM187.793 162.655L187.789 163.957C187.351 163.956 186.943 163.734 186.703 163.367C186.464 163.001 186.424 162.538 186.599 162.136L187.793 162.655ZM189.709 153.44L191.012 153.44V153.44H189.709ZM163.581 128.961L163.581 127.659H163.581V128.961ZM137.452 153.44H136.149V153.44L137.452 153.44ZM139.237 162.346L140.439 161.845C140.597 162.224 140.567 162.656 140.358 163.01C140.148 163.364 139.784 163.598 139.375 163.641L139.237 162.346ZM117.21 172.872L118.162 173.761C117.906 174.034 117.545 174.185 117.171 174.173C116.797 174.162 116.446 173.991 116.207 173.703L117.21 172.872ZM98.6343 161.076L98.2649 162.325C97.8638 162.206 97.5441 161.902 97.4054 161.507C97.2668 161.113 97.3261 160.676 97.5649 160.332L98.6343 161.076ZM104.05 143.953L105.353 143.953V143.953H104.05ZM70.5171 112.538V113.84C52.6351 113.84 38.2856 127.401 38.2854 143.953L36.9829 143.953L35.6804 143.953C35.6807 125.804 51.3592 111.235 70.5171 111.235V112.538ZM36.9829 143.953H38.2854C38.2854 144.387 38.298 144.824 38.3182 145.264L37.0171 145.324L35.716 145.383C35.6945 144.915 35.6804 144.437 35.6804 143.953H36.9829ZM37.0171 145.324L37.1381 146.621C19.9522 148.224 6.65747 161.783 6.65747 178.128H5.35498H4.05249C4.05249 160.289 18.5248 145.741 36.8961 144.027L37.0171 145.324ZM5.35498 178.128L6.65747 178.128C6.6577 195.538 21.7488 209.794 40.5464 209.794V211.096V212.399C20.4729 212.399 4.05275 197.134 4.05249 178.128L5.35498 178.128ZM40.5464 211.096L40.5464 209.794C45.5252 209.794 50.2483 208.791 54.501 206.992L55.0083 208.192L55.5156 209.392C50.9449 211.324 45.877 212.399 40.5464 212.399L40.5464 211.096ZM55.0083 208.192L55.9595 207.302C62.6387 214.442 73.3416 219.127 85.478 219.127L85.478 220.429L85.478 221.732C72.6978 221.732 61.2793 216.802 54.0571 209.082L55.0083 208.192ZM85.478 220.429V219.127C98.1058 219.127 109.177 214.056 115.783 206.427L116.768 207.28L117.753 208.132C110.596 216.397 98.7718 221.732 85.478 221.732V220.429ZM116.768 207.28L117.739 206.412C123.574 212.938 132.901 217.212 143.47 217.212V218.514V219.817C132.216 219.817 122.163 215.268 115.797 208.148L116.768 207.28ZM143.47 218.514L143.47 217.212C155.025 217.212 165.086 212.105 170.733 204.538L171.777 205.317L172.821 206.096C166.636 214.384 155.766 219.817 143.47 219.817L143.47 218.514ZM171.777 205.317L172.157 204.071C176.802 205.488 182.039 206.29 187.586 206.29V207.592V208.895C181.791 208.895 176.298 208.058 171.397 206.563L171.777 205.317ZM187.586 207.592L187.586 206.29C197.33 206.29 206.089 203.824 212.371 199.906C218.671 195.977 222.309 190.716 222.309 185.124L223.612 185.124L224.914 185.124C224.914 191.941 220.488 197.914 213.749 202.116C206.992 206.331 197.739 208.895 187.586 208.895L187.586 207.592ZM223.612 185.124H222.309C222.309 179.551 218.697 174.307 212.436 170.381C206.194 166.467 197.486 163.991 187.789 163.957L187.793 162.655L187.798 161.352C197.902 161.388 207.103 163.963 213.82 168.174C220.518 172.374 224.914 178.33 224.914 185.124H223.612ZM187.793 162.655L186.599 162.136C187.764 159.451 188.407 156.516 188.407 153.44H189.709H191.012C191.012 156.883 190.292 160.17 188.988 163.173L187.793 162.655ZM189.709 153.44L188.407 153.44C188.407 140.719 177.373 130.264 163.581 130.264V128.961V127.659C178.649 127.659 191.012 139.123 191.012 153.44L189.709 153.44ZM163.581 128.961L163.581 130.264C149.788 130.264 138.754 140.719 138.754 153.44L137.452 153.44L136.149 153.44C136.149 139.123 148.512 127.659 163.581 127.659L163.581 128.961ZM137.452 153.44H138.754C138.754 156.405 139.352 159.239 140.439 161.845L139.237 162.346L138.035 162.848C136.819 159.933 136.149 156.759 136.149 153.44H137.452ZM139.237 162.346L139.375 163.641C130.752 164.561 123.23 168.34 118.162 173.761L117.21 172.872L116.259 171.982C121.785 166.072 129.899 162.032 139.099 161.051L139.237 162.346ZM117.21 172.872L116.207 173.703C111.947 168.561 105.688 164.52 98.2649 162.325L98.6343 161.076L99.0036 159.827C106.865 162.151 113.587 166.457 118.213 172.041L117.21 172.872ZM98.6343 161.076L97.5649 160.332C100.846 155.613 102.748 149.99 102.748 143.953H104.05H105.353C105.353 150.549 103.272 156.687 99.7037 161.819L98.6343 161.076ZM104.05 143.953L102.748 143.953C102.748 127.401 88.3988 113.84 70.5171 113.84L70.5171 112.538L70.5171 111.235C89.6748 111.235 105.353 125.805 105.353 143.953L104.05 143.953Z" fill="#62A3BD" mask="url(#path-1-inside-1_1290_8289)"/>
<path d="M58.3514 210.434C57.4676 209.757 55.0923 207.533 52.6613 204.062" stroke="#62A3BD" stroke-width="1.30249" stroke-linecap="round"/>
<path d="M113.835 209.309C114.69 208.596 116.973 206.278 119.261 202.711" stroke="#62A3BD" stroke-width="1.30249" stroke-linecap="round"/>
<path d="M188.041 163.331C186.93 163.289 183.836 163.732 180.349 165.835" stroke="#62A3BD" stroke-width="1.30249" stroke-linecap="round"/>
<path d="M65.0593 160.073C76.4667 165.258 84.4317 161.658 86.9883 159.209L83.6173 172.41C78.108 176.947 60.0902 178.653 50.0439 174.44C39.9976 170.227 38.6624 162.306 41.402 159.209C43.8867 156.4 50.8001 153.592 65.0593 160.073Z" fill="#F6C7C7"/>
<path d="M86.9882 159.209C84.4317 161.658 76.4666 165.258 65.0592 160.073C50.8 153.592 43.4373 156.06 41.4019 159.209C38.5545 163.615 39.9976 170.228 50.0438 174.44C60.0901 178.653 77.05 177.249 82.5593 172.712" stroke="#BE7B7B" stroke-width="1.30249" stroke-linecap="round"/>
<path d="M95.7606 110.687C102.79 113.004 103.812 118.953 103.037 123.913C113.795 121.352 137.957 115.382 148.611 111.555C149.817 111.122 150.509 110.22 150.509 106.11C150.509 95.1333 169.842 89.8674 171.709 108.754C173.481 126.675 162.131 136.855 155.436 139.692C158.925 166.651 159.7 179.792 159.63 185.454C159.602 187.728 158.511 189.775 156.57 190.961C150.103 194.914 139.196 197.168 136.061 195.808C132.615 194.313 130.968 184.643 129.638 178.642C129.52 178.11 128.944 177.826 128.433 178.016C123.662 179.8 116.434 180.337 113.246 180.16C112.887 180.14 112.54 180.333 112.376 180.653C105.241 194.503 101.498 195.478 97.8887 195.808C86.8071 196.822 80.7256 194.935 77.748 192.816C75.7752 191.412 76.0301 188.765 77.0438 186.566C84.5576 170.266 87.5075 153.72 88.0464 147.129C61.3127 146.198 83.6572 106.697 95.7606 110.687Z" fill="#FCF0F0"/>
<path d="M47.9251 43.7979C54.708 38.7107 65.7413 41.1824 67.7325 42.6597V65.5747C88.7615 88.003 36.9214 135.239 6.86432 104.182C-6.2373 90.6446 2.43385 69.4398 25.3946 62.177C41.7389 57.007 39.4465 50.1568 47.9251 43.7979Z" fill="#F6C7C7"/>
<path d="M159.954 25.2204C151.245 15.9901 139.248 17.4138 137.828 22.7943L179.658 93.6048C217.127 74.1494 198.298 58.1757 179.352 47.8743C169.723 42.6386 173.607 39.6906 159.954 25.2204Z" fill="#F6C7C7"/>
<path d="M169.459 56.6937C160.406 28.177 130.532 11.3741 101.193 18.9114L92.5633 21.1286C63.1185 28.6933 45.0668 58.1846 51.0785 87.653C51.441 89.4297 50.963 91.2661 49.9419 92.7645C46.5323 97.7682 45.2108 104.158 46.8359 110.484C49.8338 122.153 61.59 127.801 72.2233 128.274C90.3222 129.079 150.577 113.678 169.352 103.321C178.197 98.4415 187.957 86.6673 184.959 74.9984C183.275 68.4429 178.784 63.3521 173.103 60.6805C171.406 59.8829 170.026 58.4802 169.459 56.6937Z" fill="#FCEDED"/>
<mask id="mask0_1290_8289" style="mask-type:alpha" maskUnits="userSpaceOnUse" x="46" y="17" width="140" height="112">
<path d="M170.296 59.5894C162.402 29.3264 131.511 11.1224 101.193 18.9114L92.5633 21.1285C62.1762 28.9354 43.9231 60.0944 51.73 90.4812C47.029 95.7273 44.9515 103.149 46.8359 110.484C49.8339 122.153 61.59 127.801 72.2233 128.274C90.3222 129.079 150.577 113.678 169.352 103.321C178.197 98.4415 187.957 86.6673 184.959 74.9983C183.006 67.3958 177.278 61.7631 170.296 59.5894Z" fill="#FCEDED"/>
</mask>
<g mask="url(#mask0_1290_8289)">
<ellipse cx="44.2144" cy="33.8427" rx="44.2144" ry="33.8427" transform="matrix(0.968547 -0.24883 0.248836 0.968546 67.6274 82.5453)" fill="#F6C7C7"/>
</g>
<path d="M82.124 53.8129L78.7707 56.5673" stroke="#343247" stroke-width="4.55871" stroke-linecap="round"/>
<ellipse cx="10.0159" cy="10.0158" rx="10.0159" ry="10.0158" transform="matrix(0.922345 -0.386369 0.386373 0.922341 77.8403 61.7318)" fill="#343247"/>
<ellipse cx="4.0502" cy="4.05018" rx="4.0502" ry="4.05018" transform="matrix(0.922345 -0.386369 0.386373 0.922341 87.5117 66.5978)" fill="white"/>
<ellipse cx="2.03109" cy="2.03108" rx="2.03109" ry="2.03108" transform="matrix(0.922345 -0.386369 0.386373 0.922342 83.6445 64.7456)" fill="white"/>
<ellipse cx="1.44587" cy="1.44586" rx="1.44587" ry="1.44586" transform="matrix(0.922345 -0.386369 0.386373 0.922341 88.3984 61.974)" fill="white"/>
<path d="M127.052 42.2852L131.318 43.0822" stroke="#343247" stroke-width="4.55871" stroke-linecap="round"/>
<ellipse cx="10.0158" cy="10.0158" rx="10.0158" ry="10.0158" transform="matrix(0.879621 0.475681 -0.475687 0.879612 121.671 44.6132)" fill="#343247"/>
<ellipse cx="2.03108" cy="2.03108" rx="2.03108" ry="2.03108" transform="matrix(0.879622 0.47568 -0.475688 0.879611 126.663 50.9887)" fill="white"/>
<ellipse cx="1.44586" cy="1.44586" rx="1.44586" ry="1.44586" transform="matrix(0.879621 0.475681 -0.475687 0.879611 130.31 55.2709)" fill="white"/>
<ellipse cx="1.44586" cy="1.44586" rx="1.44586" ry="1.44586" transform="matrix(0.879621 0.475681 -0.475687 0.879612 121.579 54.307)" fill="white"/>
<ellipse cx="4.0502" cy="4.05019" rx="4.0502" ry="4.05019" transform="matrix(0.879621 0.475681 -0.475687 0.879612 124.572 56.0943)" fill="white"/>
<path fill-rule="evenodd" clip-rule="evenodd" d="M103.129 73.7224C105.274 71.0467 113.191 68.5689 117.108 69.8773C118.082 70.2029 118.42 71.3039 118.081 72.2735C117.343 74.3898 115.773 77.336 113.053 79.2189C113.108 79.442 113.16 79.6669 113.206 79.8934C114.304 83.7729 117.307 87.1533 120.343 88.6485C121.984 89.4566 123.473 89.6385 124.608 89.253C125.679 88.8887 126.706 87.9238 127.277 85.8087C127.449 85.1723 128.104 84.7958 128.74 84.9674C129.377 85.1394 129.753 85.7947 129.582 86.4311C129.108 88.188 128.306 89.5322 127.244 90.4436C127.684 98.9081 127.106 104.618 125.784 108.163C125.105 109.984 124.189 111.343 123.006 112.168C121.789 113.018 120.415 113.212 119.045 112.93C116.435 112.394 113.766 110.127 111.447 107.331C109.2 104.621 107.115 101.21 105.542 97.761C103.595 97.9006 101.593 96.9986 99.6622 95.0886C99.1936 94.625 99.1891 93.8688 99.6525 93.4001C100.116 92.9315 100.872 92.927 101.341 93.3904C103.15 95.1799 104.629 95.546 105.742 95.3308C106.909 95.1051 108.075 94.1688 109.064 92.5268C110.895 89.486 111.723 84.6448 110.883 80.4501C110.807 80.1737 110.74 79.8941 110.68 79.6133C108.685 79.3966 105.728 78.5699 103.343 75.7692C102.837 75.174 102.64 74.3323 103.129 73.7224Z" fill="#343247"/>
<path d="M120.642 98.1978C123.034 98.1606 125.294 98.7314 127.274 99.7676C127.059 103.36 126.546 106.121 125.784 108.163C125.105 109.984 124.189 111.343 123.007 112.169C121.789 113.018 120.415 113.212 119.045 112.931C116.435 112.394 113.766 110.127 111.447 107.331C110.703 106.434 109.979 105.46 109.283 104.433C111.72 100.738 115.882 98.272 120.642 98.1978Z" fill="#EC8686"/>
<ellipse cx="8.6739" cy="5.54196" rx="8.6739" ry="5.54196" transform="matrix(0.968547 -0.24883 0.248836 0.968546 138.925 61.9511)" fill="#F6C7C7"/>
<ellipse cx="8.6739" cy="5.54197" rx="8.6739" ry="5.54197" transform="matrix(0.968547 -0.248831 0.248836 0.968546 64.0771 81.1804)" fill="#F6C7C7"/>
<path d="M171.71 108.754C173.482 126.675 162.131 136.855 155.437 139.692L148.612 111.555C149.818 111.122 150.51 110.22 150.51 106.11C150.51 95.1333 169.842 89.8674 171.71 108.754Z" fill="#FCF0F0"/>
<path d="M95.7061 110.687C102.736 113.004 103.757 118.953 102.983 123.913C102.126 129.212 97.9291 141.273 87.9919 147.129C61.2582 146.198 83.6028 106.697 95.7061 110.687Z" fill="#FCF0F0"/>
<path d="M61.8961 41.059C58.3169 39.4412 49.2556 38.6043 41.0021 50.9845C38.9769 54.156 33.8951 59.238 26.673 61.8746C12.7199 66.9684 0.651392 74.828 0.651367 89.6155C0.65134 105.468 21.056 122.171 46.8484 110.708" stroke="#BE7B7B" stroke-width="1.30249" stroke-linecap="round"/>
<path d="M138.238 21.7958C140.767 18.7698 148.162 14.7945 157.514 23.1015C169.203 33.4852 170.385 43.4337 177.535 46.8535C184.686 50.2733 202.054 59.2435 201.097 71.038C200.191 82.212 191.926 88.2799 181.874 91.9484" stroke="#BE7B7B" stroke-width="1.30249" stroke-linecap="round"/>
<path fill-rule="evenodd" clip-rule="evenodd" d="M155.881 34.0146C156.101 33.7305 156.511 33.6777 156.795 33.8975C160.41 36.6928 163.381 40.8114 165.677 44.9443C167.976 49.084 169.623 53.2844 170.57 56.291C170.845 57.1622 171.432 57.9269 172.203 58.4219C178.726 62.6087 182.688 67.1287 184.735 71.6738C186.784 76.2254 186.892 80.7537 185.793 84.9043C183.625 93.0962 176.761 99.8279 170.833 102.593C171.849 104.967 172.443 107.986 172.444 111.727C172.443 128.929 162.581 137.12 156.242 139.897C158.248 151.542 159.433 174.968 159.829 186.683C159.868 187.834 159.478 189.004 158.587 189.829C154.972 193.177 149.794 195.078 145.202 195.956C142.899 196.396 140.718 196.584 138.92 196.561C137.159 196.538 135.655 196.312 134.787 195.844C134.35 195.607 133.978 195.193 133.658 194.723C133.332 194.242 133.022 193.645 132.729 192.977C132.142 191.638 131.594 189.941 131.101 188.141C130.205 184.868 129.477 181.186 129.034 178.53C124.138 180.731 119.668 181.119 116.271 180.917C115.086 180.846 114.032 180.704 113.136 180.542C113.126 180.585 113.113 180.628 113.094 180.67C110.895 185.526 108.739 188.915 106.924 191.184C105.127 193.43 103.623 194.629 102.709 195.024L102.708 195.023C95.7203 198.415 87.1171 196.985 80.298 195.053C78.8517 194.643 77.7858 194.024 77.0382 193.258C76.2874 192.488 75.8873 191.598 75.7296 190.699C75.4195 188.93 76.0454 187.145 76.6896 186.046C83.2205 174.044 86.3508 155.555 87.1769 147.112C81.9987 147.025 78.6584 145.067 76.8761 141.937C74.867 138.409 74.9637 133.59 76.2843 128.85C73.0695 128.819 68.2683 128.507 63.4396 127.14C58.3325 125.693 53.1252 123.049 49.7697 118.247C41.9425 107.045 46.1723 97.0649 49.7931 92.1074C50.422 91.2462 50.6771 90.1768 50.4542 89.1709C47.732 76.8837 49.8608 65.7226 51.3654 61.2812C51.4809 60.941 51.8502 60.7579 52.1906 60.873C52.531 60.9885 52.7139 61.3587 52.5988 61.6992C51.1565 65.9568 49.0645 76.874 51.7267 88.8896C52.038 90.2952 51.6726 91.7414 50.8449 92.875C47.4089 97.5794 43.4489 106.927 50.8371 117.501C53.954 121.962 58.8401 124.484 63.7941 125.887C68.6617 127.265 73.5275 127.542 76.675 127.551C78.1517 123.022 80.7227 118.552 83.798 115.233C87.0743 111.698 91.0529 109.339 94.9738 109.862C97.9948 110.266 100.106 111.475 101.474 113.227C102.83 114.964 103.399 117.163 103.487 119.455C103.538 120.772 103.431 122.138 103.215 123.496C110.096 122.243 126.564 119.281 137.829 114.673C138.162 114.537 138.542 114.697 138.678 115.029C138.813 115.362 138.655 115.742 138.322 115.878C126.729 120.621 109.772 123.625 103.133 124.836C103.076 124.846 103.019 124.846 102.964 124.842C102.358 127.718 101.327 130.469 100.331 132.532C100.175 132.856 99.786 132.992 99.4621 132.836C99.1384 132.68 99.0021 132.29 99.1584 131.966C100.729 128.71 102.351 123.772 102.186 119.506C102.103 117.381 101.581 115.479 100.447 114.027C99.3252 112.59 97.5471 111.52 94.8019 111.153C91.5146 110.714 87.9294 112.692 84.7531 116.119C81.5993 119.522 78.9767 124.225 77.6203 128.901C76.2576 133.6 76.2098 138.135 78.008 141.293C79.7639 144.376 83.4078 146.351 89.9484 145.687C90.3061 145.65 90.6258 145.911 90.6623 146.269C90.6986 146.626 90.438 146.946 90.0802 146.982C89.5328 147.038 89.0019 147.074 88.4875 147.095C87.677 155.529 84.5253 174.383 77.8234 186.687L77.8136 186.704C77.2616 187.645 76.7745 189.114 77.0128 190.474C77.1295 191.139 77.4194 191.783 77.9709 192.349C78.5258 192.918 79.3747 193.437 80.6535 193.8C87.453 195.726 95.644 197.019 102.165 193.841L102.179 193.834L102.193 193.828C102.812 193.56 104.153 192.562 105.906 190.37C107.626 188.221 109.703 184.971 111.842 180.273C111.805 180.265 111.767 180.257 111.731 180.248C111.175 180.116 110.73 179.99 110.412 179.899C110.25 179.853 110.131 179.819 110.042 179.795C109.998 179.783 109.971 179.776 109.955 179.772L110.022 179.777C109.662 179.777 109.37 179.485 109.37 179.126C109.37 178.766 109.662 178.475 110.022 178.475L110.147 178.484C110.183 178.49 110.212 178.496 110.229 178.5C110.276 178.51 110.329 178.523 110.38 178.537C110.482 178.564 110.618 178.604 110.77 178.647C111.08 178.736 111.505 178.855 112.032 178.98C113.088 179.232 114.562 179.51 116.349 179.616C119.92 179.829 124.75 179.358 130.016 176.606C130.334 176.44 130.728 176.563 130.895 176.882C131.061 177.201 130.938 177.594 130.619 177.761C130.499 177.824 130.378 177.884 130.258 177.944C130.687 180.589 131.434 184.423 132.358 187.797C132.843 189.571 133.372 191.198 133.922 192.453C134.197 193.081 134.47 193.599 134.735 193.99C135.008 194.391 135.238 194.606 135.406 194.697C135.975 195.004 137.199 195.235 138.938 195.258C140.639 195.28 142.732 195.102 144.958 194.677C149.426 193.823 154.336 191.989 157.701 188.873C158.271 188.346 158.556 187.565 158.527 186.727C158.134 175.084 156.965 152.017 155.005 140.389C154.584 140.538 154.186 140.662 153.817 140.759C153.469 140.849 153.113 140.641 153.023 140.293C152.932 139.945 153.14 139.59 153.488 139.499C158.817 138.109 171.142 130.653 171.142 111.727C171.142 106.228 169.811 102.53 167.912 100.213C166.021 97.9049 163.516 96.905 161.019 96.8809C156.095 96.8333 151.364 100.523 151.289 105.415L151.297 105.892V105.909C151.315 106.803 151.318 108.662 150.679 110.525C150.032 112.41 148.713 114.332 146.092 115.244C145.752 115.362 145.381 115.182 145.263 114.843C145.145 114.503 145.325 114.132 145.664 114.014C147.811 113.267 148.893 111.717 149.447 110.103C150.008 108.468 150.012 106.802 149.995 105.935V105.934C149.727 99.8749 155.417 95.5248 161.031 95.5791C163.885 95.6067 166.765 96.7582 168.919 99.3867C169.413 99.989 169.865 100.666 170.27 101.42C175.906 98.7969 182.477 92.3393 184.533 84.5703C185.563 80.6783 185.462 76.4598 183.547 72.208C181.629 67.9496 177.87 63.6068 171.5 59.5185C170.475 58.8604 169.694 57.8472 169.327 56.6826C168.402 53.7458 166.789 49.6276 164.538 45.5762C162.284 41.518 159.415 37.5713 155.998 34.9287C155.714 34.7087 155.661 34.2991 155.881 34.0146ZM90.6584 20.5732C104.658 15.7492 121.934 14.6488 140.138 22.0068C140.471 22.1416 140.632 22.5221 140.497 22.8555C140.362 23.1886 139.983 23.3496 139.65 23.2148C121.772 15.9888 104.823 17.0699 91.0822 21.8047C77.3225 26.546 66.8175 34.9376 61.8341 42.2676C61.6318 42.5646 61.2271 42.6416 60.9298 42.4394C60.6327 42.2371 60.5558 41.8325 60.758 41.5351C65.9242 33.9364 76.6775 25.3907 90.6584 20.5732Z" fill="#BE7B7B"/>
<path fill-rule="evenodd" clip-rule="evenodd" d="M68.6889 189.214C69.6519 184.514 75.8352 181.811 82.4994 183.177C88.7644 184.46 93.2239 188.883 92.936 193.312C94.2883 192.518 95.9572 192.202 97.6518 192.549C101.171 193.27 103.467 196.576 102.779 199.933C102.091 203.289 98.68 205.425 95.1606 204.704C92.0205 204.061 89.8565 201.36 89.9145 198.401C87.2841 200.286 83.2459 201.063 79.0121 200.195C72.348 198.83 67.726 193.913 68.6889 189.214ZM141.381 189.641C147.618 188.255 153.326 190.071 154.131 193.696C154.936 197.321 150.534 201.383 144.297 202.769C138.061 204.154 132.353 202.339 131.547 198.714C130.742 195.089 135.145 191.026 141.381 189.641Z" fill="#EEFAFF"/>
<path d="M73.2515 184.491C78.6221 182.579 90.0594 181.745 92.8435 193.706" stroke="#62A3BD" stroke-width="1.30249" stroke-linecap="round"/>
<path d="M91.3613 196.864C92.1347 192.675 100.513 190.162 103.091 197.444" stroke="#62A3BD" stroke-width="1.30249" stroke-linecap="round"/>
<path d="M132.411 196.685C133.433 190.336 148.068 184.525 154.31 194.157" stroke="#62A3BD" stroke-width="1.30249" stroke-linecap="round"/>
<mask id="path-38-inside-2_1290_8289" fill="white">
<path d="M217.538 84.3898C227.49 84.3899 235.558 91.8023 235.558 100.945C235.558 102.875 235.197 104.726 234.537 106.447C244.468 107.33 252.078 112.338 252.078 118.384C252.078 125.053 242.819 130.459 231.399 130.459C225.082 130.459 219.428 128.804 215.635 126.196C212.935 129.638 207.877 131.956 202.081 131.956C195.261 131.956 189.461 128.747 187.326 124.273C185.01 125.556 182.136 126.317 179.022 126.317C171.35 126.316 165.13 121.702 165.13 116.01C165.13 110.318 171.35 105.702 179.022 105.702C180.124 105.702 181.195 105.8 182.223 105.98C182.189 105.644 182.171 105.303 182.171 104.959C182.171 98.8562 187.556 93.9086 194.199 93.9084C196.509 93.9084 198.667 94.5072 200.499 95.5441C202.936 89.0529 209.644 84.3898 217.538 84.3898Z"/>
</mask>
<path d="M217.538 84.3898C227.49 84.3899 235.558 91.8023 235.558 100.945C235.558 102.875 235.197 104.726 234.537 106.447C244.468 107.33 252.078 112.338 252.078 118.384C252.078 125.053 242.819 130.459 231.399 130.459C225.082 130.459 219.428 128.804 215.635 126.196C212.935 129.638 207.877 131.956 202.081 131.956C195.261 131.956 189.461 128.747 187.326 124.273C185.01 125.556 182.136 126.317 179.022 126.317C171.35 126.316 165.13 121.702 165.13 116.01C165.13 110.318 171.35 105.702 179.022 105.702C180.124 105.702 181.195 105.8 182.223 105.98C182.189 105.644 182.171 105.303 182.171 104.959C182.171 98.8562 187.556 93.9086 194.199 93.9084C196.509 93.9084 198.667 94.5072 200.499 95.5441C202.936 89.0529 209.644 84.3898 217.538 84.3898Z" fill="#EEFAFF"/>
<path d="M217.538 84.3898L217.538 83.0873H217.538V84.3898ZM235.558 100.945L236.86 100.946V100.945H235.558ZM234.537 106.447L233.321 105.981C233.175 106.363 233.216 106.791 233.432 107.137C233.648 107.484 234.015 107.709 234.422 107.745L234.537 106.447ZM252.078 118.384L253.381 118.384V118.384H252.078ZM231.399 130.459L231.399 131.762H231.399V130.459ZM215.635 126.196L216.373 125.123C215.806 124.734 215.034 124.852 214.61 125.393L215.635 126.196ZM202.081 131.956V133.259H202.081L202.081 131.956ZM187.326 124.273L188.502 123.712C188.347 123.388 188.065 123.142 187.723 123.032C187.381 122.923 187.009 122.959 186.695 123.133L187.326 124.273ZM179.022 126.317L179.022 127.619H179.022V126.317ZM165.13 116.01H163.827V116.01L165.13 116.01ZM179.022 105.702V104.4H179.022L179.022 105.702ZM182.223 105.98L181.998 107.263C182.4 107.333 182.811 107.211 183.109 106.934C183.408 106.657 183.559 106.256 183.519 105.851L182.223 105.98ZM182.171 104.959L180.868 104.959V104.959H182.171ZM194.199 93.9084V92.6059H194.199L194.199 93.9084ZM200.499 95.5441L199.858 96.6777C200.189 96.8652 200.586 96.8984 200.944 96.7684C201.301 96.6385 201.585 96.3584 201.718 96.002L200.499 95.5441ZM217.538 84.3898L217.538 85.6923C226.877 85.6924 234.255 92.6233 234.255 100.945H235.558H236.86C236.86 90.9813 228.103 83.0874 217.538 83.0873L217.538 84.3898ZM235.558 100.945L234.255 100.945C234.255 102.711 233.926 104.404 233.321 105.981L234.537 106.447L235.753 106.914C236.469 105.048 236.86 103.038 236.86 100.946L235.558 100.945ZM234.537 106.447L234.422 107.745C239.216 108.171 243.379 109.589 246.304 111.56C249.245 113.541 250.776 115.953 250.776 118.384H252.078H253.381C253.381 114.769 251.107 111.654 247.76 109.399C244.397 107.134 239.789 105.607 234.652 105.15L234.537 106.447ZM252.078 118.384L250.776 118.384C250.776 121.063 248.906 123.729 245.364 125.798C241.855 127.847 236.92 129.157 231.399 129.157V130.459V131.762C237.299 131.762 242.704 130.368 246.678 128.047C250.621 125.745 253.381 122.373 253.381 118.384L252.078 118.384ZM231.399 130.459L231.399 129.157C225.286 129.157 219.903 127.55 216.373 125.123L215.635 126.196L214.897 127.27C218.952 130.057 224.879 131.762 231.399 131.762L231.399 130.459ZM215.635 126.196L214.61 125.393C212.207 128.457 207.564 130.654 202.081 130.654L202.081 131.956L202.081 133.259C208.189 133.259 213.664 130.82 216.66 127L215.635 126.196ZM202.081 131.956V130.654C195.599 130.654 190.358 127.602 188.502 123.712L187.326 124.273L186.151 124.834C188.565 129.892 194.923 133.259 202.081 133.259V131.956ZM187.326 124.273L186.695 123.133C184.583 124.303 181.928 125.014 179.022 125.014V126.317V127.619C182.344 127.619 185.437 126.808 187.957 125.412L187.326 124.273ZM179.022 126.317L179.022 125.014C175.437 125.014 172.243 123.934 169.975 122.252C167.707 120.569 166.432 118.348 166.432 116.01L165.13 116.01L163.827 116.01C163.828 119.364 165.663 122.296 168.423 124.344C171.183 126.392 174.935 127.619 179.022 127.619L179.022 126.317ZM165.13 116.01H166.432C166.432 113.672 167.707 111.45 169.975 109.768C172.243 108.085 175.437 107.005 179.022 107.005L179.022 105.702L179.022 104.4C174.935 104.4 171.183 105.628 168.423 107.676C165.663 109.723 163.827 112.656 163.827 116.01H165.13ZM179.022 105.702V107.005C180.047 107.005 181.043 107.096 181.998 107.263L182.223 105.98L182.447 104.697C181.347 104.504 180.201 104.4 179.022 104.4V105.702ZM182.223 105.98L183.519 105.851C183.489 105.554 183.473 105.257 183.473 104.959H182.171H180.868C180.868 105.349 180.889 105.733 180.927 106.109L182.223 105.98ZM182.171 104.959L183.473 104.959C183.473 99.6773 188.17 95.2111 194.199 95.2109L194.199 93.9084L194.199 92.6059C186.943 92.6061 180.868 98.0351 180.868 104.959L182.171 104.959ZM194.199 93.9084V95.2109C196.283 95.2109 198.22 95.7508 199.858 96.6777L200.499 95.5441L201.141 94.4106C199.114 93.2637 196.735 92.6059 194.199 92.6059V93.9084ZM200.499 95.5441L201.718 96.002C203.952 90.0543 210.148 85.6923 217.538 85.6923V84.3898V83.0873C209.141 83.0873 201.921 88.0514 199.28 95.0863L200.499 95.5441Z" fill="#62A3BD" mask="url(#path-38-inside-2_1290_8289)"/>
<path d="M182.315 106.693C183.159 106.87 185.31 107.71 187.161 109.651" stroke="#62A3BD" stroke-width="1.30249" stroke-linecap="round"/>
<path d="M224.682 109.318C221.59 99.9125 205.614 101.845 206.387 112.539" stroke="#62A3BD" stroke-width="1.30249" stroke-linecap="round"/>
</svg>
